SplineFontDB: 3.2
FontName: IRRoya
FullName: IRRoya
FamilyName: IRRoya
Weight: Book
Copyright: Copyright (c) 2022, Information Technology Organization of Iran (ito.gov.ir)
Version: 1.000
ItalicAngle: 0
UnderlinePosition: -100
UnderlineWidth: 60
Ascent: 1638
Descent: 410
InvalidEm: 0
sfntRevision: 0x00010000
LayerCount: 2
Layer: 0 1 "Back" 1
Layer: 1 1 "Fore" 0
XUID: [1021 420 722297922 1120867]
StyleMap: 0x0040
FSType: 0
OS2Version: 3
OS2_WeightWidthSlopeOnly: 0
OS2_UseTypoMetrics: 0
CreationTime: 1356419197
ModificationTime: 1662630653
PfmFamily: 17
TTFWeight: 400
TTFWidth: 5
LineGap: 100
VLineGap: 0
Panose: 2 0 5 3 0 0 0 2 0 2
OS2TypoAscent: 2100
OS2TypoAOffset: 0
OS2TypoDescent: -1300
OS2TypoDOffset: 0
OS2TypoLinegap: 300
OS2WinAscent: 2100
OS2WinAOffset: 0
OS2WinDescent: 1300
OS2WinDOffset: 0
HheadAscent: 2100
HheadAOffset: 0
HheadDescent: -1300
HheadDOffset: 0
OS2SubXSize: 1434
OS2SubYSize: 1331
OS2SubXOff: 0
OS2SubYOff: 293
OS2SupXSize: 1434
OS2SupYSize: 1331
OS2SupXOff: 0
OS2SupYOff: 928
OS2StrikeYSize: 50
OS2StrikeYPos: 250
OS2CapHeight: 2108
OS2XHeight: 707
OS2FamilyClass: 2048
OS2Vendor: 'PARS'
OS2CodePages: 20000041.00000000
OS2UnicodeRanges: 00002003.00000000.00000000.00000000
Lookup: 1 1 0 "'init' Initial Forms in Arabic lookup 0" { "'init' Initial Forms in Arabic lookup 0 subtable"  } ['init' ('arab' <'dflt' > ) ]
Lookup: 1 1 0 "'isol' Isolated Forms in Arabic lookup 1" { "'isol' Isolated Forms in Arabic lookup 1 subtable"  } ['isol' ('arab' <'dflt' > ) ]
Lookup: 1 1 0 "'medi' Medial Forms in Arabic lookup 2" { "'medi' Medial Forms in Arabic lookup 2 subtable"  } ['medi' ('arab' <'dflt' > ) ]
Lookup: 1 1 0 "'fina' Terminal Forms in Arabic lookup 3" { "'fina' Terminal Forms in Arabic lookup 3 subtable"  } ['fina' ('arab' <'dflt' > ) ]
Lookup: 4 1 0 "'ccmp' Glyph Composition/Decomposition in Arabic lookup 4" { "'ccmp' Glyph Composition/Decomposition in Arabic lookup 4 subtable"  } ['ccmp' ('arab' <'dflt' > ) ]

StartChar: quotedbl
Encoding: 34 34 1
Width: 480
Flags: W
LayerCount: 2
Fore
SplineSet
78 1325 m 1,0,-1
 180 1325 l 1,1,-1
 158 1003 l 1,2,-1
 90 1003 l 1,3,-1
 78 1325 l 1,0,-1
291 1325 m 1,4,-1
 392 1325 l 1,5,-1
 370 1003 l 1,6,-1
 303 1003 l 1,7,-1
 291 1325 l 1,4,-1
EndSplineSet
EndChar

StartChar: numbersign
Encoding: 35 35 2
Width: 870
Flags: W
LayerCount: 2
Fore
SplineSet
820 376 m 1,0,-1
 630 376 l 1,1,-1
 576 0 l 1,2,-1
 475 0 l 1,3,-1
 530 376 l 1,4,-1
 296 376 l 1,5,-1
 239 0 l 1,6,-1
 138 0 l 1,7,-1
 195 376 l 1,8,-1
 8 376 l 1,9,-1
 8 472 l 1,10,-1
 211 472 l 1,11,-1
 247 705 l 1,12,-1
 56 705 l 1,13,-1
 56 801 l 1,14,-1
 261 801 l 1,15,-1
 315 1153 l 1,16,-1
 416 1153 l 1,17,-1
 362 801 l 1,18,-1
 593 801 l 1,19,-1
 646 1153 l 1,20,-1
 747 1153 l 1,21,-1
 694 801 l 1,22,-1
 864 801 l 1,23,-1
 864 705 l 1,24,-1
 681 705 l 1,25,-1
 646 472 l 1,26,-1
 820 472 l 1,27,-1
 820 376 l 1,0,-1
348 705 m 1,28,-1
 312 472 l 1,29,-1
 545 472 l 1,30,-1
 580 705 l 1,31,-1
 348 705 l 1,28,-1
EndSplineSet
EndChar

StartChar: dollar
Encoding: 36 36 3
Width: 870
Flags: W
LayerCount: 2
Fore
SplineSet
714 870 m 1,0,1
 691 981 691 981 630 1038 c 128,-1,2
 569 1095 569 1095 460 1109 c 1,3,-1
 460 681 l 1,4,5
 539 635 539 635 589.5 603.5 c 128,-1,6
 640 572 640 572 672.5 547.5 c 128,-1,7
 705 523 705 523 724.5 501 c 128,-1,8
 744 479 744 479 761 452 c 0,9,10
 777 426 777 426 786.5 383.5 c 128,-1,11
 796 341 796 341 796 296 c 0,12,13
 796 233 796 233 772 181 c 128,-1,14
 748 129 748 129 705 93 c 0,15,16
 682 74 682 74 658.5 60 c 128,-1,17
 635 46 635 46 607 35.5 c 128,-1,18
 579 25 579 25 543.5 16.5 c 128,-1,19
 508 8 508 8 460 0 c 1,20,-1
 460 -151 l 1,21,-1
 400 -151 l 1,22,-1
 400 0 l 1,23,24
 345 2 345 2 302.5 7 c 128,-1,25
 260 12 260 12 222.5 22 c 128,-1,26
 185 32 185 32 150 48 c 128,-1,27
 115 64 115 64 76 88 c 1,28,-1
 76 315 l 1,29,-1
 103 315 l 1,30,31
 134 178 134 178 205.5 114 c 128,-1,32
 277 50 277 50 400 48 c 1,33,-1
 400 540 l 1,34,35
 354 566 354 566 322 585 c 128,-1,36
 290 604 290 604 267 620 c 128,-1,37
 244 636 244 636 225.5 651 c 128,-1,38
 207 666 207 666 188 684 c 0,39,40
 135 733 135 733 112.5 781 c 128,-1,41
 90 829 90 829 90 892 c 0,42,43
 90 949 90 949 114.5 998.5 c 128,-1,44
 139 1048 139 1048 184 1083 c 0,45,46
 206 1100 206 1100 227 1112 c 128,-1,47
 248 1124 248 1124 273 1132 c 128,-1,48
 298 1140 298 1140 328.5 1145.5 c 128,-1,49
 359 1151 359 1151 400 1156 c 1,50,-1
 400 1266 l 1,51,-1
 460 1266 l 1,52,-1
 460 1156 l 1,53,54
 515 1149 515 1149 557 1140.5 c 128,-1,55
 599 1132 599 1132 632.5 1121 c 128,-1,56
 666 1110 666 1110 691.5 1096 c 128,-1,57
 717 1082 717 1082 739 1063 c 1,58,-1
 739 870 l 1,59,-1
 714 870 l 1,0,1
399 1109 m 1,60,61
 219 1073 219 1073 219 930 c 0,62,63
 219 900 219 900 226.5 875 c 128,-1,64
 234 850 234 850 254.5 825.5 c 128,-1,65
 275 801 275 801 310 773 c 128,-1,66
 345 745 345 745 399 709 c 1,67,-1
 399 1109 l 1,60,61
460 48 m 1,68,69
 563 68 563 68 610.5 117 c 128,-1,70
 658 166 658 166 658 254 c 0,71,72
 658 294 658 294 649.5 325 c 128,-1,73
 641 356 641 356 619 384.5 c 128,-1,74
 597 413 597 413 558.5 442.5 c 128,-1,75
 520 472 520 472 460 510 c 1,76,-1
 460 48 l 1,68,69
EndSplineSet
EndChar

StartChar: percent
Encoding: 37 37 4
Width: 1450
Flags: W
LayerCount: 2
Fore
SplineSet
1164 646 m 0,0,1
 1252 646 1252 646 1298 598.5 c 128,-1,2
 1344 551 1344 551 1344 460 c 0,3,4
 1344 409 1344 409 1333.5 358 c 128,-1,5
 1323 307 1323 307 1303.5 259 c 128,-1,6
 1284 211 1284 211 1256 167.5 c 128,-1,7
 1228 124 1228 124 1194 88 c 0,8,9
 1148 43 1148 43 1099 21.5 c 128,-1,10
 1050 0 1050 0 990 0 c 0,11,12
 943 0 943 0 904.5 16 c 128,-1,13
 866 32 866 32 839 61 c 128,-1,14
 812 90 812 90 797 131.5 c 128,-1,15
 782 173 782 173 782 224 c 0,16,17
 782 306 782 306 814 382 c 128,-1,18
 846 458 846 458 899.5 516.5 c 128,-1,19
 953 575 953 575 1021.5 610.5 c 128,-1,20
 1090 646 1090 646 1164 646 c 0,0,1
1176 590 m 0,21,22
 1136 590 1136 590 1099 565.5 c 128,-1,23
 1062 541 1062 541 1027 489 c 0,24,25
 1003 454 1003 454 982 412 c 128,-1,26
 961 370 961 370 946 326 c 128,-1,27
 931 282 931 282 922.5 240 c 128,-1,28
 914 198 914 198 914 164 c 0,29,30
 914 113 914 113 943 82.5 c 128,-1,31
 972 52 972 52 1020 52 c 256,32,33
 1068 52 1068 52 1107.5 75.5 c 128,-1,34
 1147 99 1147 99 1189 151 c 0,35,36
 1214 182 1214 182 1234 218.5 c 128,-1,37
 1254 255 1254 255 1268.5 294.5 c 128,-1,38
 1283 334 1283 334 1291 373.5 c 128,-1,39
 1299 413 1299 413 1299 450 c 0,40,41
 1299 479 1299 479 1289 504.5 c 128,-1,42
 1279 530 1279 530 1262.5 549 c 128,-1,43
 1246 568 1246 568 1223.5 579 c 128,-1,44
 1201 590 1201 590 1176 590 c 0,21,22
433 -23 m 1,45,-1
 350 -23 l 1,46,-1
 960 1067 l 1,47,48
 934 1052 934 1052 912 1042 c 128,-1,49
 890 1032 890 1032 868 1026 c 128,-1,50
 846 1020 846 1020 822 1017.5 c 128,-1,51
 798 1015 798 1015 769 1015 c 0,52,53
 731 1015 731 1015 705.5 1019 c 128,-1,54
 680 1023 680 1023 656 1032 c 1,55,56
 663 1009 663 1009 665.5 991.5 c 128,-1,57
 668 974 668 974 668 955 c 0,58,59
 668 904 668 904 656 850.5 c 128,-1,60
 644 797 644 797 621.5 746.5 c 128,-1,61
 599 696 599 696 567 652 c 128,-1,62
 535 608 535 608 495.5 574.5 c 128,-1,63
 456 541 456 541 409.5 522 c 128,-1,64
 363 503 363 503 312 503 c 0,65,66
 269 503 269 503 231.5 520.5 c 128,-1,67
 194 538 194 538 166 568 c 128,-1,68
 138 598 138 598 122 638.5 c 128,-1,69
 106 679 106 679 106 724 c 0,70,71
 106 807 106 807 138 884.5 c 128,-1,72
 170 962 170 962 223.5 1021.5 c 128,-1,73
 277 1081 277 1081 346.5 1117 c 128,-1,74
 416 1153 416 1153 491 1153 c 0,75,76
 511 1153 511 1153 526.5 1151 c 128,-1,77
 542 1149 542 1149 555.5 1143.5 c 128,-1,78
 569 1138 569 1138 582.5 1129 c 128,-1,79
 596 1120 596 1120 613 1105 c 0,80,81
 644 1078 644 1078 677.5 1068 c 128,-1,82
 711 1058 711 1058 764 1058 c 0,83,84
 804 1058 804 1058 838.5 1064 c 128,-1,85
 873 1070 873 1070 905 1084 c 128,-1,86
 937 1098 937 1098 969 1120.5 c 128,-1,87
 1001 1143 1001 1143 1036 1176 c 1,88,-1
 1103 1176 l 1,89,-1
 433 -23 l 1,45,-1
609 1045 m 1,90,91
 589 1050 589 1050 575.5 1054.5 c 128,-1,92
 562 1059 562 1059 551.5 1064 c 128,-1,93
 541 1069 541 1069 532 1075 c 128,-1,94
 523 1081 523 1081 513 1090 c 0,95,96
 505 1097 505 1097 501 1098 c 128,-1,97
 497 1099 497 1099 491 1100 c 0,98,99
 450 1100 450 1100 404 1059.5 c 128,-1,100
 358 1019 358 1019 320 947 c 0,101,102
 303 914 303 914 288 876.5 c 128,-1,103
 273 839 273 839 262 802 c 128,-1,104
 251 765 251 765 245 730 c 128,-1,105
 239 695 239 695 239 668 c 0,106,107
 239 620 239 620 267 591.5 c 128,-1,108
 295 563 295 563 341 563 c 0,109,110
 394 563 394 563 445 597 c 128,-1,111
 496 631 496 631 536 687 c 128,-1,112
 576 743 576 743 600.5 814 c 128,-1,113
 625 885 625 885 625 959 c 0,114,115
 625 997 625 997 609 1045 c 1,90,91
EndSplineSet
EndChar

StartChar: ampersand
Encoding: 38 38 5
Width: 1354
Flags: W
LayerCount: 2
Fore
SplineSet
1238 705 m 1,0,1
 1205 700 1205 700 1181 693.5 c 128,-1,2
 1157 687 1157 687 1138.5 676 c 128,-1,3
 1120 665 1120 665 1104.5 647.5 c 128,-1,4
 1089 630 1089 630 1074 603 c 2,5,-1
 1028 522 l 2,6,7
 1008 486 1008 486 989 455.5 c 128,-1,8
 970 425 970 425 950 394.5 c 128,-1,9
 930 364 930 364 907 332 c 128,-1,10
 884 300 884 300 855 261 c 1,11,12
 976 101 976 101 1123 101 c 0,13,14
 1147 101 1147 101 1166.5 105.5 c 128,-1,15
 1186 110 1186 110 1204 120.5 c 128,-1,16
 1222 131 1222 131 1240 149 c 128,-1,17
 1258 167 1258 167 1279 193 c 1,18,-1
 1306 174 l 1,19,20
 1267 80 1267 80 1197.5 28.5 c 128,-1,21
 1128 -23 1128 -23 1043 -23 c 0,22,23
 1005 -23 1005 -23 969.5 -14 c 128,-1,24
 934 -5 934 -5 898.5 14 c 128,-1,25
 863 33 863 33 825.5 63.5 c 128,-1,26
 788 94 788 94 747 136 c 1,27,28
 698 93 698 93 653 62.5 c 128,-1,29
 608 32 608 32 563 13 c 128,-1,30
 518 -6 518 -6 471 -14.5 c 128,-1,31
 424 -23 424 -23 371 -23 c 0,32,33
 230 -23 230 -23 151.5 47.5 c 128,-1,34
 73 118 73 118 73 244 c 0,35,36
 73 355 73 355 140 445.5 c 128,-1,37
 207 536 207 536 347 618 c 2,38,-1
 412 656 l 1,39,40
 394 705 394 705 382.5 741.5 c 128,-1,41
 371 778 371 778 364 806.5 c 128,-1,42
 357 835 357 835 354.5 859.5 c 128,-1,43
 352 884 352 884 352 909 c 0,44,45
 352 964 352 964 373 1013 c 128,-1,46
 394 1062 394 1062 430 1098 c 128,-1,47
 466 1134 466 1134 515 1155 c 128,-1,48
 564 1176 564 1176 620 1176 c 0,49,50
 671 1176 671 1176 714.5 1160.5 c 128,-1,51
 758 1145 758 1145 789 1117.5 c 128,-1,52
 820 1090 820 1090 837.5 1051 c 128,-1,53
 855 1012 855 1012 855 966 c 0,54,55
 855 923 855 923 839 880 c 128,-1,56
 823 837 823 837 796 807 c 0,57,58
 778 787 778 787 759 770.5 c 128,-1,59
 740 754 740 754 716 738 c 128,-1,60
 692 722 692 722 660.5 705.5 c 128,-1,61
 629 689 629 689 585 668 c 1,62,63
 613 612 613 612 639 566 c 128,-1,64
 665 520 665 520 692 478 c 128,-1,65
 719 436 719 436 748.5 395.5 c 128,-1,66
 778 355 778 355 814 310 c 1,67,68
 856 365 856 365 886 411 c 128,-1,69
 916 457 916 457 935.5 495.5 c 128,-1,70
 955 534 955 534 964 566 c 128,-1,71
 973 598 973 598 973 626 c 0,72,73
 973 645 973 645 968 659 c 128,-1,74
 963 673 963 673 950 682 c 128,-1,75
 937 691 937 691 916 696.5 c 128,-1,76
 895 702 895 702 862 705 c 1,77,-1
 862 741 l 1,78,-1
 1238 741 l 1,79,-1
 1238 705 l 1,0,1
558 724 m 1,80,81
 665 782 665 782 713.5 840.5 c 128,-1,82
 762 899 762 899 762 973 c 0,83,84
 762 1005 762 1005 751.5 1032 c 128,-1,85
 741 1059 741 1059 722.5 1079 c 128,-1,86
 704 1099 704 1099 678.5 1110 c 128,-1,87
 653 1121 653 1121 623 1121 c 0,88,89
 563 1121 563 1121 526 1081 c 128,-1,90
 489 1041 489 1041 489 978 c 0,91,92
 489 949 489 949 492.5 921 c 128,-1,93
 496 893 496 893 504.5 863 c 128,-1,94
 513 833 513 833 526 799 c 128,-1,95
 539 765 539 765 558 724 c 1,80,81
439 597 m 1,96,97
 382 561 382 561 342.5 527.5 c 128,-1,98
 303 494 303 494 279 460.5 c 128,-1,99
 255 427 255 427 244 391 c 128,-1,100
 233 355 233 355 233 314 c 0,101,102
 233 263 233 263 251 218.5 c 128,-1,103
 269 174 269 174 299.5 140.5 c 128,-1,104
 330 107 330 107 371 87.5 c 128,-1,105
 412 68 412 68 458 68 c 0,106,107
 512 68 512 68 569.5 93.5 c 128,-1,108
 627 119 627 119 703 181 c 1,109,110
 666 227 666 227 634.5 269.5 c 128,-1,111
 603 312 603 312 572.5 360 c 128,-1,112
 542 408 542 408 510 465 c 128,-1,113
 478 522 478 522 439 597 c 1,96,97
EndSplineSet
EndChar

StartChar: quotesingle
Encoding: 39 39 6
Width: 384
Flags: W
LayerCount: 2
Fore
SplineSet
142 1325 m 1,0,-1
 243 1325 l 1,1,-1
 221 1003 l 1,2,-1
 154 1003 l 1,3,-1
 142 1325 l 1,0,-1
EndSplineSet
EndChar

StartChar: asterisk
Encoding: 42 42 7
Width: 774
Flags: W
LayerCount: 2
Fore
SplineSet
430 713 m 1,0,-1
 430 569 l 2,1,2
 430 555 430 555 422 545 c 128,-1,3
 414 535 414 535 399 535 c 2,4,-1
 348 535 l 2,5,6
 340 535 340 535 329.5 545 c 128,-1,7
 319 555 319 555 319 569 c 2,8,-1
 319 713 l 1,9,-1
 221 612 l 1,10,11
 193 594 193 594 164 612 c 1,12,-1
 133 645 l 2,13,14
 115 668 115 668 139 694 c 2,15,-1
 240 797 l 1,16,-1
 96 797 l 2,17,18
 82 797 82 797 69.5 806 c 128,-1,19
 57 815 57 815 57 831 c 2,20,-1
 57 881 l 2,21,22
 57 891 57 891 69.5 900 c 128,-1,23
 82 909 82 909 96 909 c 2,24,-1
 231 909 l 1,25,-1
 133 1010 l 2,26,27
 119 1022 119 1022 118 1036.5 c 128,-1,28
 117 1051 117 1051 127 1065 c 1,29,-1
 164 1096 l 2,30,31
 174 1106 174 1106 186.5 1105 c 128,-1,32
 199 1104 199 1104 211 1090 c 2,33,-1
 319 985 l 1,34,-1
 319 1141 l 2,35,36
 319 1153 319 1153 329.5 1164.5 c 128,-1,37
 340 1176 340 1176 348 1176 c 2,38,-1
 399 1176 l 2,39,40
 414 1176 414 1176 422 1164.5 c 128,-1,41
 430 1153 430 1153 430 1141 c 2,42,-1
 430 991 l 1,43,-1
 537 1096 l 2,44,45
 549 1110 549 1110 561 1111 c 128,-1,46
 573 1112 573 1112 592 1104 c 1,47,-1
 618 1065 l 1,48,49
 629 1057 629 1057 629 1044.5 c 128,-1,50
 629 1032 629 1032 616 1016 c 2,51,-1
 512 909 l 1,52,-1
 668 909 l 2,53,54
 678 909 678 909 690 900 c 128,-1,55
 702 891 702 891 702 881 c 2,56,-1
 702 831 l 2,57,58
 702 815 702 815 690 806 c 128,-1,59
 678 797 678 797 668 797 c 2,60,-1
 504 797 l 1,61,-1
 616 694 l 1,62,63
 635 668 635 668 616 637 c 1,64,-1
 586 606 l 1,65,66
 563 588 563 588 537 612 c 2,67,-1
 430 713 l 1,0,-1
EndSplineSet
EndChar

StartChar: plus
Encoding: 43 43 8
Width: 864
Flags: W
LayerCount: 2
Fore
SplineSet
356 326 m 1,0,-1
 96 326 l 1,1,-1
 96 459 l 1,2,-1
 356 459 l 1,3,-1
 356 723 l 1,4,-1
 489 723 l 1,5,-1
 489 459 l 1,6,-1
 762 459 l 1,7,-1
 762 326 l 1,8,-1
 489 326 l 1,9,-1
 489 63 l 1,10,-1
 356 63 l 1,11,-1
 356 326 l 1,0,-1
EndSplineSet
EndChar

StartChar: hyphen
Encoding: 45 45 9
Width: 894
Flags: W
LayerCount: 2
Fore
SplineSet
96 326 m 1,0,-1
 96 459 l 1,1,-1
 762 459 l 1,2,-1
 762 326 l 1,3,-1
 96 326 l 1,0,-1
EndSplineSet
EndChar

StartChar: period
Encoding: 46 46 10
Width: 589
Flags: W
LayerCount: 2
Fore
SplineSet
510 104 m 0,0,1
 510 59 510 59 480 28.5 c 128,-1,2
 450 -2 450 -2 405 -2 c 0,3,4
 383 -2 383 -2 364 6.5 c 128,-1,5
 345 15 345 15 330.5 29 c 128,-1,6
 316 43 316 43 307.5 62.5 c 128,-1,7
 299 82 299 82 299 104 c 256,8,9
 299 126 299 126 307.5 145 c 128,-1,10
 316 164 316 164 330.5 178 c 128,-1,11
 345 192 345 192 364 200.5 c 128,-1,12
 383 209 383 209 405 209 c 256,13,14
 427 209 427 209 446 200.5 c 128,-1,15
 465 192 465 192 479.5 178 c 128,-1,16
 494 164 494 164 502 145 c 128,-1,17
 510 126 510 126 510 104 c 0,0,1
EndSplineSet
EndChar

StartChar: slash
Encoding: 47 47 11
Width: 423
Flags: W
LayerCount: 2
Fore
SplineSet
378 1119 m 1,0,-1
 112 -93 l 1,1,-1
 43 -93 l 1,2,-1
 310 1119 l 1,3,-1
 378 1119 l 1,0,-1
EndSplineSet
EndChar

StartChar: zero
Encoding: 48 48 12
Width: 960
Flags: W
LayerCount: 2
Fore
SplineSet
482 1176 m 0,0,1
 567 1176 567 1176 638.5 1132.5 c 128,-1,2
 710 1089 710 1089 761 1009.5 c 128,-1,3
 812 930 812 930 840.5 819.5 c 128,-1,4
 869 709 869 709 869 575 c 0,5,6
 869 496 869 496 857 420 c 128,-1,7
 845 344 845 344 823 277.5 c 128,-1,8
 801 211 801 211 770 156.5 c 128,-1,9
 739 102 739 102 701 66 c 0,10,11
 653 20 653 20 598.5 -2.5 c 128,-1,12
 544 -25 544 -25 475 -25 c 0,13,14
 399 -25 399 -25 334.5 5.5 c 128,-1,15
 270 36 270 36 221 94 c 0,16,17
 190 130 190 130 164.5 184.5 c 128,-1,18
 139 239 139 239 120.5 304.5 c 128,-1,19
 102 370 102 370 92 442 c 128,-1,20
 82 514 82 514 82 585 c 0,21,22
 82 661 82 661 93.5 735.5 c 128,-1,23
 105 810 105 810 127 876 c 128,-1,24
 149 942 149 942 180 996 c 128,-1,25
 211 1050 211 1050 249 1086 c 0,26,27
 298 1132 298 1132 354 1154 c 128,-1,28
 410 1176 410 1176 482 1176 c 0,0,1
477 1131 m 0,29,30
 249 1131 249 1131 249 569 c 0,31,32
 249 21 249 21 475 21 c 256,33,34
 701 21 701 21 701 571 c 0,35,36
 701 849 701 849 645 990 c 128,-1,37
 589 1131 589 1131 477 1131 c 0,29,30
EndSplineSet
EndChar

StartChar: one
Encoding: 49 49 13
Width: 960
Flags: W
LayerCount: 2
Fore
SplineSet
565 1173 m 1,0,-1
 565 129 l 2,1,2
 565 97 565 97 571.5 77.5 c 128,-1,3
 578 58 578 58 596 47 c 128,-1,4
 614 36 614 36 646.5 31.5 c 128,-1,5
 679 27 679 27 731 26 c 1,6,-1
 731 0 l 1,7,-1
 251 0 l 1,8,-1
 251 26 l 1,9,10
 278 27 278 27 297 28.5 c 128,-1,11
 316 30 316 30 330 32 c 128,-1,12
 344 34 344 34 354.5 38 c 128,-1,13
 365 42 365 42 374 48 c 0,14,15
 416 73 416 73 416 161 c 2,16,-1
 416 950 l 2,17,18
 416 1032 416 1032 364 1032 c 0,19,20
 341 1032 341 1032 314 1023.5 c 128,-1,21
 287 1015 287 1015 238 994 c 1,22,-1
 238 1018 l 1,23,-1
 552 1176 l 1,24,-1
 565 1173 l 1,0,-1
EndSplineSet
EndChar

StartChar: two
Encoding: 50 50 14
Width: 960
Flags: W
LayerCount: 2
Fore
SplineSet
776 0 m 1,0,-1
 97 0 l 1,1,-1
 97 21 l 1,2,-1
 407 350 l 2,3,4
 519 468 519 468 576 583.5 c 128,-1,5
 633 699 633 699 633 802 c 0,6,7
 633 857 633 857 615 902.5 c 128,-1,8
 597 948 597 948 565 980 c 128,-1,9
 533 1012 533 1012 488 1030 c 128,-1,10
 443 1048 443 1048 388 1048 c 0,11,12
 343 1048 343 1048 307.5 1036.5 c 128,-1,13
 272 1025 272 1025 242.5 998.5 c 128,-1,14
 213 972 213 972 187 929 c 128,-1,15
 161 886 161 886 135 822 c 1,16,-1
 99 830 l 1,17,18
 110 876 110 876 121 911 c 128,-1,19
 132 946 132 946 145 973.5 c 128,-1,20
 158 1001 158 1001 174 1023.5 c 128,-1,21
 190 1046 190 1046 211 1068 c 0,22,23
 260 1121 260 1121 323.5 1148.5 c 128,-1,24
 387 1176 387 1176 461 1176 c 0,25,26
 528 1176 528 1176 587 1152.5 c 128,-1,27
 646 1129 646 1129 689.5 1087.5 c 128,-1,28
 733 1046 733 1046 758 990 c 128,-1,29
 783 934 783 934 783 869 c 0,30,31
 783 818 783 818 770 767 c 128,-1,32
 757 716 757 716 729.5 663.5 c 128,-1,33
 702 611 702 611 660 555.5 c 128,-1,34
 618 500 618 500 560 439 c 2,35,-1
 268 133 l 1,36,-1
 684 133 l 2,37,38
 713 133 713 133 733.5 137 c 128,-1,39
 754 141 754 141 771.5 153 c 128,-1,40
 789 165 789 165 807 187.5 c 128,-1,41
 825 210 825 210 849 247 c 1,42,-1
 872 239 l 1,43,-1
 776 0 l 1,0,-1
EndSplineSet
EndChar

StartChar: three
Encoding: 51 51 15
Width: 960
Flags: W
LayerCount: 2
Fore
SplineSet
311 597 m 1,0,1
 356 613 356 613 388.5 626.5 c 128,-1,2
 421 640 421 640 446 653.5 c 128,-1,3
 471 667 471 667 490.5 682 c 128,-1,4
 510 697 510 697 530 717 c 0,5,6
 564 750 564 750 582 794 c 128,-1,7
 600 838 600 838 600 886 c 0,8,9
 600 927 600 927 586 961.5 c 128,-1,10
 572 996 572 996 547 1020.5 c 128,-1,11
 522 1045 522 1045 486.5 1059 c 128,-1,12
 451 1073 451 1073 409 1073 c 0,13,14
 326 1073 326 1073 264.5 1028 c 128,-1,15
 203 983 203 983 150 887 c 1,16,-1
 123 895 l 1,17,18
 137 934 137 934 150 963.5 c 128,-1,19
 163 993 163 993 176.5 1015.5 c 128,-1,20
 190 1038 190 1038 205 1056 c 128,-1,21
 220 1074 220 1074 240 1091 c 0,22,23
 289 1133 289 1133 345 1154.5 c 128,-1,24
 401 1176 401 1176 467 1176 c 0,25,26
 527 1176 527 1176 576.5 1158.5 c 128,-1,27
 626 1141 626 1141 662 1109.5 c 128,-1,28
 698 1078 698 1078 718 1034 c 128,-1,29
 738 990 738 990 738 938 c 0,30,31
 738 903 738 903 729.5 872.5 c 128,-1,32
 721 842 721 842 701.5 813.5 c 128,-1,33
 682 785 682 785 651 757 c 128,-1,34
 620 729 620 729 575 698 c 1,35,36
 603 686 603 686 624.5 675.5 c 128,-1,37
 646 665 646 665 662.5 654 c 128,-1,38
 679 643 679 643 692.5 631.5 c 128,-1,39
 706 620 706 620 719 606 c 0,40,41
 757 564 757 564 777 506 c 128,-1,42
 797 448 797 448 797 382 c 0,43,44
 797 290 797 290 761 214.5 c 128,-1,45
 725 139 725 139 660.5 86 c 128,-1,46
 596 33 596 33 508 4 c 128,-1,47
 420 -25 420 -25 316 -25 c 0,48,49
 225 -25 225 -25 172.5 2 c 128,-1,50
 120 29 120 29 120 75 c 0,51,52
 120 102 120 102 138 119 c 128,-1,53
 156 136 156 136 186 136 c 0,54,55
 209 136 209 136 234 126 c 128,-1,56
 259 116 259 116 297 93 c 0,57,58
 345 61 345 61 377 49.5 c 128,-1,59
 409 38 409 38 444 38 c 0,60,61
 492 38 492 38 533.5 58 c 128,-1,62
 575 78 575 78 605.5 113 c 128,-1,63
 636 148 636 148 653.5 195 c 128,-1,64
 671 242 671 242 671 297 c 0,65,66
 671 342 671 342 658.5 383 c 128,-1,67
 646 424 646 424 623.5 457.5 c 128,-1,68
 601 491 601 491 568 516 c 128,-1,69
 535 541 535 541 495 555 c 0,70,71
 480 561 480 561 463.5 565 c 128,-1,72
 447 569 447 569 426 571 c 128,-1,73
 405 573 405 573 377.5 574 c 128,-1,74
 350 575 350 575 311 575 c 1,75,-1
 311 597 l 1,0,1
EndSplineSet
EndChar

StartChar: four
Encoding: 52 52 16
Width: 960
Flags: W
LayerCount: 2
Fore
SplineSet
867 291 m 1,0,-1
 689 291 l 1,1,-1
 689 0 l 1,2,-1
 555 0 l 1,3,-1
 555 291 l 1,4,-1
 66 291 l 1,5,-1
 66 402 l 1,6,-1
 613 1176 l 1,7,-1
 689 1176 l 1,8,-1
 689 402 l 1,9,-1
 867 402 l 1,10,-1
 867 291 l 1,0,-1
553 1000 m 1,11,-1
 135 402 l 1,12,-1
 553 402 l 1,13,-1
 553 1000 l 1,11,-1
EndSplineSet
EndChar

StartChar: five
Encoding: 53 53 17
Width: 960
Flags: W
LayerCount: 2
Fore
SplineSet
287 867 m 1,0,1
 364 853 364 853 422.5 838 c 128,-1,2
 481 823 481 823 526 804.5 c 128,-1,3
 571 786 571 786 605 764 c 128,-1,4
 639 742 639 742 668 714 c 0,5,6
 701 681 701 681 724 649 c 128,-1,7
 747 617 747 617 761 581.5 c 128,-1,8
 775 546 775 546 781.5 507 c 128,-1,9
 788 468 788 468 788 422 c 0,10,11
 788 322 788 322 759.5 246.5 c 128,-1,12
 731 171 731 171 671 111 c 0,13,14
 605 45 605 45 515 10 c 128,-1,15
 425 -25 425 -25 313 -25 c 0,16,17
 213 -25 213 -25 157 3.5 c 128,-1,18
 101 32 101 32 101 83 c 0,19,20
 101 148 101 148 176 148 c 0,21,22
 203 148 203 148 234.5 134.5 c 128,-1,23
 266 121 266 121 308 90 c 0,24,25
 347 61 347 61 372.5 50.5 c 128,-1,26
 398 40 398 40 424 40 c 0,27,28
 475 40 475 40 519 63 c 128,-1,29
 563 86 563 86 596 126 c 128,-1,30
 629 166 629 166 647.5 220.5 c 128,-1,31
 666 275 666 275 666 337 c 0,32,33
 666 467 666 467 595.5 550.5 c 128,-1,34
 525 634 525 634 374 683 c 0,35,36
 320 700 320 700 270 708.5 c 128,-1,37
 220 717 220 717 178 717 c 0,38,39
 156 717 156 717 156 731 c 0,40,41
 156 733 156 733 158 739 c 2,42,-1
 348 1153 l 1,43,-1
 711 1153 l 2,44,45
 739 1153 739 1153 755.5 1162 c 128,-1,46
 772 1171 772 1171 792 1198 c 1,47,-1
 807 1186 l 1,48,-1
 741 1030 l 2,49,50
 737 1021 737 1021 729.5 1018 c 128,-1,51
 722 1015 722 1015 701 1015 c 2,52,-1
 360 1015 l 1,53,-1
 287 867 l 1,0,1
EndSplineSet
EndChar

StartChar: six
Encoding: 54 54 18
Width: 960
Flags: W
LayerCount: 2
Fore
SplineSet
825 1163 m 1,0,1
 723 1146 723 1146 636 1103 c 128,-1,2
 549 1060 549 1060 482.5 996 c 128,-1,3
 416 932 416 932 371.5 848.5 c 128,-1,4
 327 765 327 765 309 666 c 1,5,6
 350 691 350 691 379.5 706.5 c 128,-1,7
 409 722 409 722 433.5 730.5 c 128,-1,8
 458 739 458 739 480.5 742 c 128,-1,9
 503 745 503 745 532 745 c 0,10,11
 607 745 607 745 667.5 719.5 c 128,-1,12
 728 694 728 694 770.5 646.5 c 128,-1,13
 813 599 813 599 836 532 c 128,-1,14
 859 465 859 465 859 382 c 0,15,16
 859 292 859 292 832.5 217 c 128,-1,17
 806 142 806 142 757.5 88 c 128,-1,18
 709 34 709 34 642 4.5 c 128,-1,19
 575 -25 575 -25 494 -25 c 0,20,21
 404 -25 404 -25 331.5 13 c 128,-1,22
 259 51 259 51 208.5 118.5 c 128,-1,23
 158 186 158 186 131 279.5 c 128,-1,24
 104 373 104 373 104 485 c 0,25,26
 104 664 104 664 177 806 c 128,-1,27
 250 948 250 948 395 1051 c 0,28,29
 443 1085 443 1085 487.5 1107.5 c 128,-1,30
 532 1130 532 1130 581.5 1146 c 128,-1,31
 631 1162 631 1162 688.5 1172 c 128,-1,32
 746 1182 746 1182 821 1191 c 1,33,-1
 825 1163 l 1,0,1
467 665 m 0,34,35
 419 665 419 665 380.5 653.5 c 128,-1,36
 342 642 342 642 314 621 c 0,37,38
 288 601 288 601 277 563 c 128,-1,39
 266 525 266 525 266 458 c 0,40,41
 266 357 266 357 283 276.5 c 128,-1,42
 300 196 300 196 332 140 c 128,-1,43
 364 84 364 84 410 54.5 c 128,-1,44
 456 25 456 25 513 25 c 0,45,46
 607 25 607 25 655 100.5 c 128,-1,47
 703 176 703 176 703 322 c 0,48,49
 703 404 703 404 687 467.5 c 128,-1,50
 671 531 671 531 641 575 c 128,-1,51
 611 619 611 619 567 642 c 128,-1,52
 523 665 523 665 467 665 c 0,34,35
EndSplineSet
EndChar

StartChar: seven
Encoding: 55 55 19
Width: 960
Flags: W
LayerCount: 2
Fore
SplineSet
827 1125 m 1,0,-1
 457 -14 l 1,1,-1
 344 -14 l 1,2,-1
 689 1023 l 1,3,-1
 311 1023 l 2,4,5
 275 1023 275 1023 249.5 1017.5 c 128,-1,6
 224 1012 224 1012 202 997 c 128,-1,7
 180 982 180 982 159 954.5 c 128,-1,8
 138 927 138 927 110 882 c 1,9,-1
 80 897 l 1,10,-1
 183 1153 l 1,11,-1
 827 1153 l 1,12,-1
 827 1125 l 1,0,-1
EndSplineSet
EndChar

StartChar: eight
Encoding: 56 56 20
Width: 960
Flags: W
LayerCount: 2
Fore
SplineSet
550 646 m 1,0,1
 629 587 629 587 681 540 c 128,-1,2
 733 493 733 493 763.5 449.5 c 128,-1,3
 794 406 794 406 806.5 363 c 128,-1,4
 819 320 819 320 819 269 c 0,5,6
 819 202 819 202 795 147.5 c 128,-1,7
 771 93 771 93 726.5 55 c 128,-1,8
 682 17 682 17 618.5 -4 c 128,-1,9
 555 -25 555 -25 477 -25 c 0,10,11
 403 -25 403 -25 341.5 -4 c 128,-1,12
 280 17 280 17 236 55.5 c 128,-1,13
 192 94 192 94 167.5 147 c 128,-1,14
 143 200 143 200 143 263 c 0,15,16
 143 308 143 308 151.5 342.5 c 128,-1,17
 160 377 160 377 185 411.5 c 128,-1,18
 210 446 210 446 254 485 c 128,-1,19
 298 524 298 524 369 578 c 1,20,21
 300 638 300 638 258 680 c 128,-1,22
 216 722 216 722 192.5 757.5 c 128,-1,23
 169 793 169 793 161 826.5 c 128,-1,24
 153 860 153 860 153 902 c 0,25,26
 153 961 153 961 178 1011.5 c 128,-1,27
 203 1062 203 1062 247 1098.5 c 128,-1,28
 291 1135 291 1135 352 1155.5 c 128,-1,29
 413 1176 413 1176 484 1176 c 0,30,31
 549 1176 549 1176 604 1157.5 c 128,-1,32
 659 1139 659 1139 698.5 1106.5 c 128,-1,33
 738 1074 738 1074 760.5 1029 c 128,-1,34
 783 984 783 984 783 930 c 0,35,36
 783 885 783 885 771 848 c 128,-1,37
 759 811 759 811 731 777.5 c 128,-1,38
 703 744 703 744 658.5 712 c 128,-1,39
 614 680 614 680 550 646 c 1,0,1
414 543 m 1,40,41
 376 513 376 513 349.5 483 c 128,-1,42
 323 453 323 453 306 421 c 128,-1,43
 289 389 289 389 281.5 353.5 c 128,-1,44
 274 318 274 318 274 277 c 0,45,46
 274 220 274 220 290 173.5 c 128,-1,47
 306 127 306 127 335.5 94 c 128,-1,48
 365 61 365 61 405.5 43 c 128,-1,49
 446 25 446 25 495 25 c 0,50,51
 538 25 538 25 573.5 39 c 128,-1,52
 609 53 609 53 634.5 78 c 128,-1,53
 660 103 660 103 674 138.5 c 128,-1,54
 688 174 688 174 688 216 c 0,55,56
 688 253 688 253 679.5 284 c 128,-1,57
 671 315 671 315 651 344 c 128,-1,58
 631 373 631 373 598.5 403 c 128,-1,59
 566 433 566 433 518 467 c 2,60,-1
 414 543 l 1,40,41
500 677 m 1,61,62
 505 682 505 682 507 683 c 128,-1,63
 509 684 509 684 515 688 c 0,64,65
 590 739 590 739 626.5 798 c 128,-1,66
 663 857 663 857 663 932 c 0,67,68
 663 977 663 977 649.5 1013 c 128,-1,69
 636 1049 636 1049 611 1074.5 c 128,-1,70
 586 1100 586 1100 550 1114 c 128,-1,71
 514 1128 514 1128 470 1128 c 0,72,73
 429 1128 429 1128 394.5 1115.5 c 128,-1,74
 360 1103 360 1103 335 1080 c 128,-1,75
 310 1057 310 1057 296 1025 c 128,-1,76
 282 993 282 993 282 955 c 0,77,78
 282 919 282 919 294 885 c 128,-1,79
 306 851 306 851 332.5 817.5 c 128,-1,80
 359 784 359 784 400 749.5 c 128,-1,81
 441 715 441 715 500 677 c 1,61,62
EndSplineSet
EndChar

StartChar: nine
Encoding: 57 57 21
Width: 960
Flags: W
LayerCount: 2
Fore
SplineSet
143 -3 m 1,0,1
 242 14 242 14 327 56.5 c 128,-1,2
 412 99 412 99 479.5 165 c 128,-1,3
 547 231 547 231 595.5 318 c 128,-1,4
 644 405 644 405 671 512 c 1,5,6
 603 458 603 458 542.5 435 c 128,-1,7
 482 412 482 412 410 412 c 0,8,9
 340 412 340 412 282.5 437.5 c 128,-1,10
 225 463 225 463 183.5 509.5 c 128,-1,11
 142 556 142 556 119.5 621 c 128,-1,12
 97 686 97 686 97 766 c 0,13,14
 97 854 97 854 124.5 929 c 128,-1,15
 152 1004 152 1004 200.5 1059 c 128,-1,16
 249 1114 249 1114 315 1145 c 128,-1,17
 381 1176 381 1176 459 1176 c 0,18,19
 543 1176 543 1176 614 1140 c 128,-1,20
 685 1104 685 1104 736 1039 c 128,-1,21
 787 974 787 974 815.5 884 c 128,-1,22
 844 794 844 794 844 686 c 0,23,24
 844 597 844 597 824.5 513.5 c 128,-1,25
 805 430 805 430 768.5 355 c 128,-1,26
 732 280 732 280 678.5 216 c 128,-1,27
 625 152 625 152 557 103 c 0,28,29
 512 70 512 70 470 47.5 c 128,-1,30
 428 25 428 25 381 9 c 128,-1,31
 334 -7 334 -7 277.5 -18 c 128,-1,32
 221 -29 221 -29 148 -38 c 1,33,-1
 143 -3 l 1,0,1
675 686 m 2,34,35
 675 1128 675 1128 445 1128 c 0,36,37
 367 1128 367 1128 322 1074 c 0,38,39
 308 1057 308 1057 296 1029.5 c 128,-1,40
 284 1002 284 1002 275.5 969 c 128,-1,41
 267 936 267 936 262 898.5 c 128,-1,42
 257 861 257 861 257 825 c 0,43,44
 257 747 257 747 272 684.5 c 128,-1,45
 287 622 287 622 315.5 578 c 128,-1,46
 344 534 344 534 383.5 510.5 c 128,-1,47
 423 487 423 487 473 487 c 0,48,49
 521 487 521 487 566 503.5 c 128,-1,50
 611 520 611 520 649 552 c 0,51,52
 663 564 663 564 669 578 c 128,-1,53
 675 592 675 592 675 618 c 2,54,-1
 675 686 l 2,34,35
EndSplineSet
EndChar

StartChar: less
Encoding: 60 60 22
Width: 1117
Flags: W
LayerCount: 2
Fore
SplineSet
955 58 m 1,0,-1
 150 444 l 1,1,-1
 150 534 l 1,2,-1
 955 918 l 1,3,-1
 955 784 l 1,4,-1
 331 489 l 1,5,-1
 955 192 l 1,6,-1
 955 58 l 1,0,-1
EndSplineSet
EndChar

StartChar: equal
Encoding: 61 61 23
Width: 1029
Flags: W
LayerCount: 2
Fore
SplineSet
873 586 m 1,0,-1
 144 586 l 1,1,-1
 144 706 l 1,2,-1
 873 706 l 1,3,-1
 873 586 l 1,0,-1
873 271 m 1,4,-1
 144 271 l 1,5,-1
 144 391 l 1,6,-1
 873 391 l 1,7,-1
 873 271 l 1,4,-1
EndSplineSet
EndChar

StartChar: greater
Encoding: 62 62 24
Width: 1117
Flags: W
LayerCount: 2
Fore
SplineSet
966 444 m 1,0,-1
 160 58 l 1,1,-1
 160 192 l 1,2,-1
 786 489 l 1,3,-1
 160 784 l 1,4,-1
 160 918 l 1,5,-1
 966 534 l 1,6,-1
 966 444 l 1,0,-1
EndSplineSet
EndChar

StartChar: question
Encoding: 63 63 25
Width: 773
Flags: W
LayerCount: 2
Fore
SplineSet
395 286 m 1,0,1
 397 343 397 343 409.5 405 c 128,-1,2
 422 467 422 467 447 533 c 2,3,-1
 496 644 l 2,4,5
 528 716 528 716 544 785.5 c 128,-1,6
 560 855 560 855 560 915 c 0,7,8
 560 958 560 958 545.5 996.5 c 128,-1,9
 531 1035 531 1035 505.5 1063.5 c 128,-1,10
 480 1092 480 1092 445.5 1108.5 c 128,-1,11
 411 1125 411 1125 372 1125 c 0,12,13
 340 1125 340 1125 310.5 1116 c 128,-1,14
 281 1107 281 1107 258 1092 c 128,-1,15
 235 1077 235 1077 221 1057.5 c 128,-1,16
 207 1038 207 1038 207 1017 c 0,17,18
 207 997 207 997 237 963 c 0,19,20
 257 940 257 940 265.5 923 c 128,-1,21
 274 906 274 906 274 887 c 0,22,23
 274 856 274 856 254 836.5 c 128,-1,24
 234 817 234 817 202 817 c 0,25,26
 160 817 160 817 139 844.5 c 128,-1,27
 118 872 118 872 118 924 c 0,28,29
 118 978 118 978 139.5 1024 c 128,-1,30
 161 1070 161 1070 199 1104 c 128,-1,31
 237 1138 237 1138 288.5 1157 c 128,-1,32
 340 1176 340 1176 400 1176 c 0,33,34
 472 1176 472 1176 541.5 1148.5 c 128,-1,35
 611 1121 611 1121 658 1076 c 0,36,37
 688 1047 688 1047 704.5 1002.5 c 128,-1,38
 721 958 721 958 721 907 c 0,39,40
 721 854 721 854 702.5 803 c 128,-1,41
 684 752 684 752 643 688 c 0,42,43
 634 674 634 674 627.5 665 c 128,-1,44
 621 656 621 656 611.5 643.5 c 128,-1,45
 602 631 602 631 585 610.5 c 128,-1,46
 568 590 568 590 538 553 c 0,47,48
 514 523 514 523 496 493.5 c 128,-1,49
 478 464 478 464 464.5 432.5 c 128,-1,50
 451 401 451 401 441.5 365 c 128,-1,51
 432 329 432 329 425 286 c 1,52,-1
 395 286 l 1,0,1
412 173 m 0,53,54
 431 173 431 173 448.5 165.5 c 128,-1,55
 466 158 466 158 479 144.5 c 128,-1,56
 492 131 492 131 499.5 113.5 c 128,-1,57
 507 96 507 96 507 76 c 0,58,59
 507 38 507 38 480 12 c 128,-1,60
 453 -14 453 -14 411 -14 c 0,61,62
 372 -14 372 -14 346 11.5 c 128,-1,63
 320 37 320 37 320 75 c 0,64,65
 320 117 320 117 346.5 145 c 128,-1,66
 373 173 373 173 412 173 c 0,53,54
EndSplineSet
EndChar

StartChar: at
Encoding: 64 64 26
Width: 1603
Flags: W
LayerCount: 2
Fore
SplineSet
1219 75 m 1,0,1
 1156 46 1156 46 1106 27 c 128,-1,2
 1056 8 1056 8 1012.5 -3.5 c 128,-1,3
 969 -15 969 -15 928 -20 c 128,-1,4
 887 -25 887 -25 841 -25 c 0,5,6
 706 -25 706 -25 589 20.5 c 128,-1,7
 472 66 472 66 386 146 c 128,-1,8
 300 226 300 226 251 334 c 128,-1,9
 202 442 202 442 202 568 c 0,10,11
 202 695 202 695 251.5 806 c 128,-1,12
 301 917 301 917 387 999 c 128,-1,13
 473 1081 473 1081 589 1128.5 c 128,-1,14
 705 1176 705 1176 837 1176 c 0,15,16
 958 1176 958 1176 1062 1137 c 128,-1,17
 1166 1098 1166 1098 1243 1029 c 128,-1,18
 1320 960 1320 960 1364 867 c 128,-1,19
 1408 774 1408 774 1408 666 c 0,20,21
 1408 582 1408 582 1382.5 506.5 c 128,-1,22
 1357 431 1357 431 1313 373.5 c 128,-1,23
 1269 316 1269 316 1211 282.5 c 128,-1,24
 1153 249 1153 249 1088 249 c 0,25,26
 1025 249 1025 249 981.5 283.5 c 128,-1,27
 938 318 938 318 930 376 c 1,28,29
 885 316 885 316 827.5 283.5 c 128,-1,30
 770 251 770 251 712 251 c 0,31,32
 680 251 680 251 652 266 c 128,-1,33
 624 281 624 281 603 307 c 128,-1,34
 582 333 582 333 570 368.5 c 128,-1,35
 558 404 558 404 558 445 c 0,36,37
 558 520 558 520 584 598 c 128,-1,38
 610 676 610 676 656 739.5 c 128,-1,39
 702 803 702 803 764.5 843.5 c 128,-1,40
 827 884 827 884 900 884 c 0,41,42
 922 884 922 884 939 880 c 128,-1,43
 956 876 956 876 970.5 865.5 c 128,-1,44
 985 855 985 855 998 838 c 128,-1,45
 1011 821 1011 821 1025 794 c 1,46,-1
 1043 860 l 1,47,-1
 1163 860 l 1,48,-1
 1050 418 l 2,49,50
 1046 405 1046 405 1046 387 c 0,51,52
 1046 306 1046 306 1114 306 c 0,53,54
 1157 306 1157 306 1197.5 335 c 128,-1,55
 1238 364 1238 364 1269.5 412 c 128,-1,56
 1301 460 1301 460 1320 522 c 128,-1,57
 1339 584 1339 584 1339 649 c 0,58,59
 1339 746 1339 746 1299.5 832.5 c 128,-1,60
 1260 919 1260 919 1192 983.5 c 128,-1,61
 1124 1048 1124 1048 1033 1085.5 c 128,-1,62
 942 1123 942 1123 839 1123 c 0,63,64
 742 1123 742 1123 658 1089.5 c 128,-1,65
 574 1056 574 1056 510 990 c 0,66,67
 473 951 473 951 443 902 c 128,-1,68
 413 853 413 853 392 798 c 128,-1,69
 371 743 371 743 359.5 683 c 128,-1,70
 348 623 348 623 348 563 c 0,71,72
 348 449 348 449 386 353.5 c 128,-1,73
 424 258 424 258 491.5 189 c 128,-1,74
 559 120 559 120 652.5 81.5 c 128,-1,75
 746 43 746 43 857 43 c 0,76,77
 900 43 900 43 940 47.5 c 128,-1,78
 980 52 980 52 1020 62 c 128,-1,79
 1060 72 1060 72 1103.5 88 c 128,-1,80
 1147 104 1147 104 1198 127 c 1,81,-1
 1219 75 l 1,0,1
924 807 m 2,82,-1
 917 807 l 2,83,84
 885 807 885 807 846.5 784 c 128,-1,85
 808 761 808 761 773 721 c 0,86,87
 683 619 683 619 683 473 c 0,88,89
 683 404 683 404 710.5 365 c 128,-1,90
 738 326 738 326 787 326 c 0,91,92
 817 326 817 326 844.5 344.5 c 128,-1,93
 872 363 872 363 895 394 c 128,-1,94
 918 425 918 425 936.5 465 c 128,-1,95
 955 505 955 505 968 547.5 c 128,-1,96
 981 590 981 590 988 632.5 c 128,-1,97
 995 675 995 675 995 710 c 0,98,99
 995 755 995 755 976.5 780 c 128,-1,100
 958 805 958 805 924 807 c 2,82,-1
EndSplineSet
EndChar

StartChar: A
Encoding: 65 65 27
Width: 1257
Flags: W
LayerCount: 2
Fore
SplineSet
1229 0 m 1,0,-1
 785 0 l 1,1,-1
 785 33 l 1,2,3
 819 34 819 34 842.5 37 c 128,-1,4
 866 40 866 40 880.5 47 c 128,-1,5
 895 54 895 54 901 65 c 128,-1,6
 907 76 907 76 907 93 c 256,7,8
 907 110 907 110 898.5 141.5 c 128,-1,9
 890 173 890 173 874 209 c 2,10,-1
 802 376 l 1,11,-1
 347 376 l 1,12,-1
 266 173 l 2,13,14
 260 156 260 156 256 138 c 128,-1,15
 252 120 252 120 252 105 c 0,16,17
 252 68 252 68 280 50.5 c 128,-1,18
 308 33 308 33 371 33 c 1,19,-1
 371 0 l 1,20,-1
 26 0 l 1,21,-1
 26 33 l 1,22,23
 57 34 57 34 79 43.5 c 128,-1,24
 101 53 101 53 123 82.5 c 128,-1,25
 145 112 145 112 172.5 168 c 128,-1,26
 200 224 200 224 242 319 c 2,27,-1
 604 1173 l 1,28,-1
 639 1173 l 1,29,-1
 1073 184 l 2,30,31
 1095 136 1095 136 1111.5 107 c 128,-1,32
 1128 78 1128 78 1144.5 62.5 c 128,-1,33
 1161 47 1161 47 1180.5 41 c 128,-1,34
 1200 35 1200 35 1229 33 c 1,35,-1
 1229 0 l 1,0,-1
778 447 m 1,36,-1
 576 926 l 1,37,-1
 376 447 l 1,38,-1
 778 447 l 1,36,-1
EndSplineSet
EndChar

StartChar: B
Encoding: 66 66 28
Width: 1161
Flags: W
LayerCount: 2
Fore
SplineSet
517 1153 m 2,0,1
 973 1153 973 1153 973 857 c 0,2,3
 973 803 973 803 954.5 757.5 c 128,-1,4
 936 712 936 712 904 683 c 0,5,6
 888 669 888 669 872.5 658 c 128,-1,7
 857 647 857 647 837.5 638.5 c 128,-1,8
 818 630 818 630 793 622 c 128,-1,9
 768 614 768 614 734 606 c 1,10,11
 776 595 776 595 807.5 585 c 128,-1,12
 839 575 839 575 863 564.5 c 128,-1,13
 887 554 887 554 907 541 c 128,-1,14
 927 528 927 528 947 510 c 0,15,16
 989 472 989 472 1010.5 421.5 c 128,-1,17
 1032 371 1032 371 1032 314 c 0,18,19
 1032 247 1032 247 1005.5 189.5 c 128,-1,20
 979 132 979 132 926.5 90 c 128,-1,21
 874 48 874 48 795 24 c 128,-1,22
 716 0 716 0 611 0 c 2,23,-1
 30 0 l 1,24,-1
 30 33 l 1,25,26
 84 35 84 35 116.5 41.5 c 128,-1,27
 149 48 149 48 167 65 c 128,-1,28
 185 82 185 82 190.5 112 c 128,-1,29
 196 142 196 142 196 190 c 2,30,-1
 196 963 l 2,31,32
 196 1011 196 1011 190.5 1040 c 128,-1,33
 185 1069 185 1069 167.5 1085.5 c 128,-1,34
 150 1102 150 1102 117.5 1109 c 128,-1,35
 85 1116 85 1116 30 1119 c 1,36,-1
 30 1153 l 1,37,-1
 517 1153 l 2,0,1
374 136 m 2,38,39
 374 115 374 115 379 101.5 c 128,-1,40
 384 88 384 88 397 79.5 c 128,-1,41
 410 71 410 71 431 68 c 128,-1,42
 452 65 452 65 484 65 c 0,43,44
 578 65 578 65 644.5 80.5 c 128,-1,45
 711 96 711 96 752.5 127 c 128,-1,46
 794 158 794 158 813 204 c 128,-1,47
 832 250 832 250 832 312 c 0,48,49
 832 396 832 396 796.5 448.5 c 128,-1,50
 761 501 761 501 686 533 c 0,51,52
 662 542 662 542 634 548.5 c 128,-1,53
 606 555 606 555 569.5 559.5 c 128,-1,54
 533 564 533 564 485.5 566 c 128,-1,55
 438 568 438 568 374 568 c 1,56,-1
 374 136 l 2,38,39
540 637 m 2,57,58
 665 637 665 637 730.5 691.5 c 128,-1,59
 796 746 796 746 796 849 c 0,60,61
 796 967 796 967 719 1027.5 c 128,-1,62
 642 1088 642 1088 489 1088 c 2,63,-1
 412 1088 l 2,64,65
 393 1088 393 1088 383.5 1076 c 128,-1,66
 374 1064 374 1064 374 1036 c 2,67,-1
 374 637 l 1,68,-1
 540 637 l 2,57,58
EndSplineSet
EndChar

StartChar: C
Encoding: 67 67 29
Width: 1161
Flags: W
LayerCount: 2
Fore
SplineSet
1040 784 m 1,0,1
 1027 826 1027 826 1015 857.5 c 128,-1,2
 1003 889 1003 889 990 914 c 128,-1,3
 977 939 977 939 961 959.5 c 128,-1,4
 945 980 945 980 924 1001 c 0,5,6
 817 1108 817 1108 665 1108 c 0,7,8
 570 1108 570 1108 493.5 1071 c 128,-1,9
 417 1034 417 1034 363 966.5 c 128,-1,10
 309 899 309 899 280 802.5 c 128,-1,11
 251 706 251 706 251 588 c 0,12,13
 251 456 251 456 281.5 355.5 c 128,-1,14
 312 255 312 255 368.5 187.5 c 128,-1,15
 425 120 425 120 505 86 c 128,-1,16
 585 52 585 52 683 52 c 0,17,18
 737 52 737 52 786 62 c 128,-1,19
 835 72 835 72 882 93.5 c 128,-1,20
 929 115 929 115 976 148 c 128,-1,21
 1023 181 1023 181 1071 228 c 1,22,-1
 1102 196 l 1,23,24
 1021 90 1021 90 899 32.5 c 128,-1,25
 777 -25 777 -25 626 -25 c 0,26,27
 503 -25 503 -25 397 16 c 128,-1,28
 291 57 291 57 213.5 133.5 c 128,-1,29
 136 210 136 210 92 319.5 c 128,-1,30
 48 429 48 429 48 566 c 0,31,32
 48 712 48 712 95.5 829 c 128,-1,33
 143 946 143 946 237 1027 c 0,34,35
 318 1099 318 1099 420 1137.5 c 128,-1,36
 522 1176 522 1176 632 1176 c 0,37,38
 695 1176 695 1176 758.5 1166 c 128,-1,39
 822 1156 822 1156 886 1135 c 0,40,41
 906 1127 906 1127 924 1123 c 128,-1,42
 942 1119 942 1119 954 1119 c 0,43,44
 980 1119 980 1119 999.5 1134 c 128,-1,45
 1019 1149 1019 1149 1027 1176 c 1,46,-1
 1063 1176 l 1,47,-1
 1063 784 l 1,48,-1
 1040 784 l 1,0,1
EndSplineSet
EndChar

StartChar: D
Encoding: 68 68 30
Width: 1257
Flags: W
LayerCount: 2
Fore
SplineSet
181 963 m 2,0,1
 181 1011 181 1011 176.5 1040 c 128,-1,2
 172 1069 172 1069 156 1085 c 128,-1,3
 140 1101 140 1101 110 1108 c 128,-1,4
 80 1115 80 1115 28 1119 c 1,5,-1
 28 1153 l 1,6,-1
 498 1153 l 2,7,8
 660 1153 660 1153 789 1114.5 c 128,-1,9
 918 1076 918 1076 1008 1002.5 c 128,-1,10
 1098 929 1098 929 1145.5 823 c 128,-1,11
 1193 717 1193 717 1193 581 c 0,12,13
 1193 452 1193 452 1149 345 c 128,-1,14
 1105 238 1105 238 1019.5 161.5 c 128,-1,15
 934 85 934 85 809 42.5 c 128,-1,16
 684 0 684 0 522 0 c 2,17,-1
 28 0 l 1,18,-1
 28 33 l 1,19,20
 77 36 77 36 107.5 43.5 c 128,-1,21
 138 51 138 51 154 68 c 128,-1,22
 170 85 170 85 175.5 114 c 128,-1,23
 181 143 181 143 181 190 c 2,24,-1
 181 963 l 2,0,1
359 136 m 2,25,26
 359 115 359 115 363 101.5 c 128,-1,27
 367 88 367 88 377.5 79.5 c 128,-1,28
 388 71 388 71 405.5 68 c 128,-1,29
 423 65 423 65 449 65 c 0,30,31
 506 65 506 65 554 69 c 128,-1,32
 602 73 602 73 643 81.5 c 128,-1,33
 684 90 684 90 720.5 103.5 c 128,-1,34
 757 117 757 117 790 136 c 0,35,36
 1003 259 1003 259 1003 569 c 0,37,38
 1003 856 1003 856 796 1001 c 0,39,40
 671 1088 671 1088 449 1088 c 0,41,42
 422 1088 422 1088 404.5 1085 c 128,-1,43
 387 1082 387 1082 377 1074.5 c 128,-1,44
 367 1067 367 1067 363 1053.5 c 128,-1,45
 359 1040 359 1040 359 1020 c 2,46,-1
 359 136 l 2,25,26
EndSplineSet
EndChar

StartChar: E
Encoding: 69 69 31
Width: 1063
Flags: W
LayerCount: 2
Fore
SplineSet
960 0 m 1,0,-1
 21 0 l 1,1,-1
 21 33 l 1,2,3
 69 36 69 36 98.5 43.5 c 128,-1,4
 128 51 128 51 144.5 68.5 c 128,-1,5
 161 86 161 86 167 115 c 128,-1,6
 173 144 173 144 173 190 c 2,7,-1
 173 963 l 2,8,9
 173 1009 173 1009 167.5 1037.5 c 128,-1,10
 162 1066 162 1066 145.5 1083 c 128,-1,11
 129 1100 129 1100 99 1107.5 c 128,-1,12
 69 1115 69 1115 21 1119 c 1,13,-1
 21 1153 l 1,14,-1
 945 1153 l 1,15,-1
 945 904 l 1,16,-1
 907 904 l 1,17,18
 896 962 896 962 881 998 c 128,-1,19
 866 1034 866 1034 837.5 1053.5 c 128,-1,20
 809 1073 809 1073 762.5 1079.5 c 128,-1,21
 716 1086 716 1086 643 1086 c 2,22,-1
 407 1086 l 2,23,24
 372 1086 372 1086 361 1074.5 c 128,-1,25
 350 1063 350 1063 350 1027 c 2,26,-1
 350 641 l 1,27,-1
 618 641 l 2,28,29
 738 641 738 641 771 684 c 0,30,31
 778 693 778 693 783 703.5 c 128,-1,32
 788 714 788 714 792 727.5 c 128,-1,33
 796 741 796 741 800 760 c 128,-1,34
 804 779 804 779 809 806 c 1,35,-1
 849 806 l 1,36,-1
 849 402 l 1,37,-1
 809 402 l 1,38,39
 801 456 801 456 790.5 489 c 128,-1,40
 780 522 780 522 759.5 540 c 128,-1,41
 739 558 739 558 705.5 563.5 c 128,-1,42
 672 569 672 569 618 569 c 2,43,-1
 350 569 l 1,44,-1
 350 139 l 2,45,46
 350 117 350 117 353 103 c 128,-1,47
 356 89 356 89 362 85 c 0,48,49
 366 80 366 80 381 76.5 c 128,-1,50
 396 73 396 73 419.5 70.5 c 128,-1,51
 443 68 443 68 472 66.5 c 128,-1,52
 501 65 501 65 533 65 c 2,53,-1
 580 65 l 2,54,55
 673 65 673 65 737 74.5 c 128,-1,56
 801 84 801 84 846.5 109 c 128,-1,57
 892 134 892 134 925 178.5 c 128,-1,58
 958 223 958 223 990 294 c 1,59,-1
 1040 294 l 1,60,-1
 960 0 l 1,0,-1
EndSplineSet
EndChar

StartChar: F
Encoding: 70 70 32
Width: 968
Flags: W
LayerCount: 2
Fore
SplineSet
794 402 m 1,0,1
 786 454 786 454 775 487 c 128,-1,2
 764 520 764 520 743 538 c 128,-1,3
 722 556 722 556 688.5 562.5 c 128,-1,4
 655 569 655 569 603 569 c 2,5,-1
 350 569 l 1,6,-1
 350 190 l 2,7,8
 350 143 350 143 356 113.5 c 128,-1,9
 362 84 362 84 379 67 c 128,-1,10
 396 50 396 50 427 43 c 128,-1,11
 458 36 458 36 508 33 c 1,12,-1
 508 0 l 1,13,-1
 21 0 l 1,14,-1
 21 33 l 1,15,16
 70 36 70 36 100 44 c 128,-1,17
 130 52 130 52 146.5 70.5 c 128,-1,18
 163 89 163 89 168 122 c 128,-1,19
 173 155 173 155 173 209 c 2,20,-1
 173 963 l 2,21,22
 173 1009 173 1009 167.5 1037.5 c 128,-1,23
 162 1066 162 1066 145.5 1083 c 128,-1,24
 129 1100 129 1100 99 1107.5 c 128,-1,25
 69 1115 69 1115 21 1119 c 1,26,-1
 21 1153 l 1,27,-1
 945 1153 l 1,28,-1
 945 904 l 1,29,-1
 907 904 l 1,30,31
 896 962 896 962 881 998 c 128,-1,32
 866 1034 866 1034 837.5 1053.5 c 128,-1,33
 809 1073 809 1073 762.5 1079.5 c 128,-1,34
 716 1086 716 1086 643 1086 c 2,35,-1
 405 1086 l 2,36,37
 388 1086 388 1086 377 1083.5 c 128,-1,38
 366 1081 366 1081 360 1074.5 c 128,-1,39
 354 1068 354 1068 352 1056.5 c 128,-1,40
 350 1045 350 1045 350 1027 c 2,41,-1
 350 641 l 1,42,-1
 603 641 l 2,43,44
 654 641 654 641 687.5 647 c 128,-1,45
 721 653 721 653 742 671 c 128,-1,46
 763 689 763 689 774.5 721 c 128,-1,47
 786 753 786 753 794 806 c 1,48,-1
 834 806 l 1,49,-1
 834 402 l 1,50,-1
 794 402 l 1,0,1
EndSplineSet
EndChar

StartChar: G
Encoding: 71 71 33
Width: 1257
Flags: W
LayerCount: 2
Fore
SplineSet
1234 585 m 1,0,1
 1196 582 1196 582 1172.5 575 c 128,-1,2
 1149 568 1149 568 1135.5 553 c 128,-1,3
 1122 538 1122 538 1117.5 513.5 c 128,-1,4
 1113 489 1113 489 1113 450 c 2,5,-1
 1113 98 l 1,6,7
 1087 75 1087 75 1036.5 53 c 128,-1,8
 986 31 986 31 924.5 13.5 c 128,-1,9
 863 -4 863 -4 797.5 -14.5 c 128,-1,10
 732 -25 732 -25 676 -25 c 0,11,12
 529 -25 529 -25 409 22.5 c 128,-1,13
 289 70 289 70 201 161 c 0,14,15
 126 239 126 239 91 337.5 c 128,-1,16
 56 436 56 436 56 566 c 0,17,18
 56 699 56 699 100 811 c 128,-1,19
 144 923 144 923 223.5 1004 c 128,-1,20
 303 1085 303 1085 412.5 1130.5 c 128,-1,21
 522 1176 522 1176 653 1176 c 0,22,23
 773 1176 773 1176 890 1136 c 0,24,25
 941 1119 941 1119 966 1119 c 0,26,27
 994 1119 994 1119 1015.5 1135.5 c 128,-1,28
 1037 1152 1037 1152 1045 1176 c 1,29,-1
 1083 1176 l 1,30,-1
 1083 809 l 1,31,-1
 1057 809 l 1,32,33
 1040 849 1040 849 1025.5 878.5 c 128,-1,34
 1011 908 1011 908 997 931.5 c 128,-1,35
 983 955 983 955 967.5 974 c 128,-1,36
 952 993 952 993 933 1011 c 0,37,38
 830 1108 830 1108 683 1108 c 0,39,40
 588 1108 588 1108 509.5 1072 c 128,-1,41
 431 1036 431 1036 374 967 c 128,-1,42
 317 898 317 898 285.5 797.5 c 128,-1,43
 254 697 254 697 254 568 c 0,44,45
 254 446 254 446 285.5 349.5 c 128,-1,46
 317 253 317 253 376.5 185 c 128,-1,47
 436 117 436 117 520.5 81 c 128,-1,48
 605 45 605 45 712 45 c 0,49,50
 759 45 759 45 801 53.5 c 128,-1,51
 843 62 843 62 874.5 76 c 128,-1,52
 906 90 906 90 924.5 108.5 c 128,-1,53
 943 127 943 127 943 148 c 2,54,-1
 943 430 l 2,55,56
 943 487 943 487 935 518 c 128,-1,57
 927 549 927 549 907 560 c 0,58,59
 899 566 899 566 890.5 569.5 c 128,-1,60
 882 573 882 573 869 576 c 128,-1,61
 856 579 856 579 837 581 c 128,-1,62
 818 583 818 583 790 585 c 1,63,-1
 790 616 l 1,64,-1
 1234 616 l 1,65,-1
 1234 585 l 1,0,1
EndSplineSet
EndChar

StartChar: H
Encoding: 72 72 34
Width: 1257
Flags: W
LayerCount: 2
Fore
SplineSet
892 625 m 1,0,-1
 892 963 l 2,1,2
 892 1009 892 1009 887 1038 c 128,-1,3
 882 1067 882 1067 865.5 1083.5 c 128,-1,4
 849 1100 849 1100 818.5 1107.5 c 128,-1,5
 788 1115 788 1115 738 1119 c 1,6,-1
 738 1153 l 1,7,-1
 1222 1153 l 1,8,-1
 1222 1119 l 1,9,10
 1172 1115 1172 1115 1141.5 1107.5 c 128,-1,11
 1111 1100 1111 1100 1094.5 1083.5 c 128,-1,12
 1078 1067 1078 1067 1073 1038 c 128,-1,13
 1068 1009 1068 1009 1068 963 c 2,14,-1
 1068 190 l 2,15,16
 1068 143 1068 143 1073.5 114.5 c 128,-1,17
 1079 86 1079 86 1095.5 69 c 128,-1,18
 1112 52 1112 52 1142 44.5 c 128,-1,19
 1172 37 1172 37 1222 33 c 1,20,-1
 1222 0 l 1,21,-1
 738 0 l 1,22,-1
 738 33 l 1,23,24
 789 36 789 36 819.5 43.5 c 128,-1,25
 850 51 850 51 866 69.5 c 128,-1,26
 882 88 882 88 887 121 c 128,-1,27
 892 154 892 154 892 209 c 2,28,-1
 892 548 l 1,29,-1
 364 548 l 1,30,-1
 364 190 l 2,31,32
 364 143 364 143 369.5 114.5 c 128,-1,33
 375 86 375 86 391.5 69 c 128,-1,34
 408 52 408 52 438 44.5 c 128,-1,35
 468 37 468 37 517 33 c 1,36,-1
 517 0 l 1,37,-1
 33 0 l 1,38,-1
 33 33 l 1,39,40
 84 36 84 36 114.5 43.5 c 128,-1,41
 145 51 145 51 160.5 69.5 c 128,-1,42
 176 88 176 88 181 121 c 128,-1,43
 186 154 186 154 186 209 c 2,44,-1
 186 963 l 2,45,46
 186 1009 186 1009 181 1038 c 128,-1,47
 176 1067 176 1067 160 1083.5 c 128,-1,48
 144 1100 144 1100 113.5 1107.5 c 128,-1,49
 83 1115 83 1115 33 1119 c 1,50,-1
 33 1153 l 1,51,-1
 517 1153 l 1,52,-1
 517 1119 l 1,53,54
 467 1115 467 1115 436.5 1107.5 c 128,-1,55
 406 1100 406 1100 390 1083.5 c 128,-1,56
 374 1067 374 1067 369 1038 c 128,-1,57
 364 1009 364 1009 364 963 c 2,58,-1
 364 625 l 1,59,-1
 892 625 l 1,0,-1
EndSplineSet
EndChar

StartChar: I
Encoding: 73 73 35
Width: 580
Flags: W
LayerCount: 2
Fore
SplineSet
201 963 m 2,0,1
 201 1011 201 1011 195 1040 c 128,-1,2
 189 1069 189 1069 171 1085.5 c 128,-1,3
 153 1102 153 1102 119.5 1109 c 128,-1,4
 86 1116 86 1116 31 1119 c 1,5,-1
 31 1153 l 1,6,-1
 548 1153 l 1,7,-1
 548 1119 l 1,8,9
 493 1117 493 1117 459.5 1110.5 c 128,-1,10
 426 1104 426 1104 407.5 1087 c 128,-1,11
 389 1070 389 1070 383 1040.5 c 128,-1,12
 377 1011 377 1011 377 963 c 2,13,-1
 377 190 l 2,14,15
 377 142 377 142 383.5 112.5 c 128,-1,16
 390 83 390 83 409 66 c 128,-1,17
 428 49 428 49 461 42 c 128,-1,18
 494 35 494 35 548 33 c 1,19,-1
 548 0 l 1,20,-1
 31 0 l 1,21,-1
 31 33 l 1,22,23
 86 35 86 35 119.5 41.5 c 128,-1,24
 153 48 153 48 171 64.5 c 128,-1,25
 189 81 189 81 195 111 c 128,-1,26
 201 141 201 141 201 190 c 2,27,-1
 201 963 l 2,0,1
EndSplineSet
EndChar

StartChar: J
Encoding: 74 74 36
Width: 677
Flags: W
LayerCount: 2
Fore
SplineSet
484 319 m 2,0,1
 484 153 484 153 408.5 64 c 128,-1,2
 333 -25 333 -25 190 -25 c 0,3,4
 152 -25 152 -25 120 -15.5 c 128,-1,5
 88 -6 88 -6 65 10.5 c 128,-1,6
 42 27 42 27 29.5 50.5 c 128,-1,7
 17 74 17 74 17 101 c 0,8,9
 17 119 17 119 24 134.5 c 128,-1,10
 31 150 31 150 42.5 162 c 128,-1,11
 54 174 54 174 69.5 181 c 128,-1,12
 85 188 85 188 103 188 c 0,13,14
 167 188 167 188 193 99 c 0,15,16
 203 67 203 67 212.5 54.5 c 128,-1,17
 222 42 222 42 241 42 c 0,18,19
 275 42 275 42 290.5 69 c 128,-1,20
 306 96 306 96 306 156 c 2,21,-1
 306 963 l 2,22,23
 306 1011 306 1011 301 1039.5 c 128,-1,24
 296 1068 296 1068 279 1084.5 c 128,-1,25
 262 1101 262 1101 230 1108 c 128,-1,26
 198 1115 198 1115 144 1119 c 1,27,-1
 144 1153 l 1,28,-1
 644 1153 l 1,29,-1
 644 1119 l 1,30,31
 591 1115 591 1115 559.5 1108 c 128,-1,32
 528 1101 528 1101 511 1084.5 c 128,-1,33
 494 1068 494 1068 489 1039.5 c 128,-1,34
 484 1011 484 1011 484 963 c 2,35,-1
 484 319 l 2,0,1
EndSplineSet
EndChar

StartChar: K
Encoding: 75 75 37
Width: 1257
Flags: W
LayerCount: 2
Fore
SplineSet
719 1153 m 1,0,-1
 1175 1153 l 1,1,-1
 1175 1119 l 1,2,3
 1131 1116 1131 1116 1100.5 1110.5 c 128,-1,4
 1070 1105 1070 1105 1042.5 1090.5 c 128,-1,5
 1015 1076 1015 1076 984.5 1050.5 c 128,-1,6
 954 1025 954 1025 910 983 c 2,7,-1
 580 656 l 1,8,-1
 985 221 l 2,9,10
 1045 158 1045 158 1082.5 121 c 128,-1,11
 1120 84 1120 84 1148 65 c 128,-1,12
 1176 46 1176 46 1200.5 40 c 128,-1,13
 1225 34 1225 34 1259 33 c 1,14,-1
 1259 0 l 1,15,-1
 728 0 l 1,16,-1
 728 33 l 1,17,18
 733 35 733 35 738.5 35 c 128,-1,19
 744 35 744 35 749 35 c 2,20,-1
 762 35 l 1,21,-1
 776 35 l 2,22,23
 813 35 813 35 831 45.5 c 128,-1,24
 849 56 849 56 849 73 c 0,25,26
 849 89 849 89 832 119 c 128,-1,27
 815 149 815 149 785 188 c 128,-1,28
 755 227 755 227 713.5 273 c 128,-1,29
 672 319 672 319 623 369 c 2,30,-1
 439 552 l 1,31,-1
 394 515 l 1,32,-1
 394 190 l 2,33,34
 394 143 394 143 399 113.5 c 128,-1,35
 404 84 404 84 420.5 67 c 128,-1,36
 437 50 437 50 468 43 c 128,-1,37
 499 36 499 36 550 33 c 1,38,-1
 550 0 l 1,39,-1
 59 0 l 1,40,-1
 59 33 l 1,41,42
 110 36 110 36 141 44 c 128,-1,43
 172 52 172 52 188.5 70.5 c 128,-1,44
 205 89 205 89 210.5 122 c 128,-1,45
 216 155 216 155 216 209 c 2,46,-1
 216 963 l 2,47,48
 216 1009 216 1009 210.5 1038 c 128,-1,49
 205 1067 205 1067 188.5 1083.5 c 128,-1,50
 172 1100 172 1100 141 1107.5 c 128,-1,51
 110 1115 110 1115 59 1119 c 1,52,-1
 59 1153 l 1,53,-1
 553 1153 l 1,54,-1
 553 1119 l 1,55,56
 500 1115 500 1115 468.5 1108 c 128,-1,57
 437 1101 437 1101 420.5 1084.5 c 128,-1,58
 404 1068 404 1068 399 1039.5 c 128,-1,59
 394 1011 394 1011 394 963 c 2,60,-1
 394 606 l 1,61,-1
 701 886 l 2,62,63
 774 952 774 952 805 994 c 128,-1,64
 836 1036 836 1036 837 1065 c 0,65,66
 837 1083 837 1083 831 1092.5 c 128,-1,67
 825 1102 825 1102 811 1107.5 c 128,-1,68
 797 1113 797 1113 774.5 1115 c 128,-1,69
 752 1117 752 1117 719 1119 c 1,70,-1
 719 1153 l 1,0,-1
EndSplineSet
EndChar

StartChar: L
Encoding: 76 76 38
Width: 1063
Flags: W
LayerCount: 2
Fore
SplineSet
1041 303 m 1,0,-1
 957 0 l 1,1,-1
 21 0 l 1,2,-1
 21 33 l 1,3,4
 69 36 69 36 98.5 43.5 c 128,-1,5
 128 51 128 51 144.5 68.5 c 128,-1,6
 161 86 161 86 167 115 c 128,-1,7
 173 144 173 144 173 190 c 2,8,-1
 173 963 l 2,9,10
 173 1009 173 1009 167.5 1037.5 c 128,-1,11
 162 1066 162 1066 145.5 1083 c 128,-1,12
 129 1100 129 1100 99 1107.5 c 128,-1,13
 69 1115 69 1115 21 1119 c 1,14,-1
 21 1153 l 1,15,-1
 512 1153 l 1,16,-1
 512 1119 l 1,17,18
 460 1116 460 1116 428.5 1108.5 c 128,-1,19
 397 1101 397 1101 379.5 1084 c 128,-1,20
 362 1067 362 1067 356 1038 c 128,-1,21
 350 1009 350 1009 350 963 c 2,22,-1
 350 139 l 2,23,24
 350 116 350 116 355.5 102 c 128,-1,25
 361 88 361 88 377 80.5 c 128,-1,26
 393 73 393 73 422.5 70.5 c 128,-1,27
 452 68 452 68 500 68 c 2,28,-1
 616 68 l 2,29,30
 725 68 725 68 798.5 92 c 128,-1,31
 872 116 872 116 917 167 c 0,32,33
 937 189 937 189 956 220 c 128,-1,34
 975 251 975 251 998 303 c 1,35,-1
 1041 303 l 1,0,-1
EndSplineSet
EndChar

StartChar: M
Encoding: 77 77 39
Width: 1548
Flags: W
LayerCount: 2
Fore
SplineSet
728 0 m 1,0,-1
 703 0 l 1,1,-1
 266 957 l 1,2,-1
 266 256 l 2,3,4
 266 190 266 190 273 148 c 128,-1,5
 280 106 280 106 298 81.5 c 128,-1,6
 316 57 316 57 348 46.5 c 128,-1,7
 380 36 380 36 430 33 c 1,8,-1
 430 0 l 1,9,-1
 21 0 l 1,10,-1
 21 33 l 1,11,12
 75 37 75 37 108.5 47 c 128,-1,13
 142 57 142 57 160 81 c 128,-1,14
 178 105 178 105 184 146.5 c 128,-1,15
 190 188 190 188 190 256 c 2,16,-1
 190 963 l 2,17,18
 190 1011 190 1011 184 1040 c 128,-1,19
 178 1069 178 1069 160.5 1085.5 c 128,-1,20
 143 1102 143 1102 110.5 1109 c 128,-1,21
 78 1116 78 1116 25 1119 c 1,22,-1
 25 1153 l 1,23,-1
 369 1153 l 1,24,-1
 771 274 l 1,25,-1
 1156 1153 l 1,26,-1
 1502 1153 l 1,27,-1
 1502 1119 l 1,28,29
 1454 1115 1454 1115 1424.5 1107.5 c 128,-1,30
 1395 1100 1395 1100 1378.5 1083.5 c 128,-1,31
 1362 1067 1362 1067 1356.5 1038 c 128,-1,32
 1351 1009 1351 1009 1351 963 c 2,33,-1
 1351 190 l 2,34,35
 1351 143 1351 143 1356.5 114 c 128,-1,36
 1362 85 1362 85 1378.5 68 c 128,-1,37
 1395 51 1395 51 1424.5 43.5 c 128,-1,38
 1454 36 1454 36 1502 33 c 1,39,-1
 1502 0 l 1,40,-1
 1015 0 l 1,41,-1
 1015 33 l 1,42,43
 1067 36 1067 36 1098 44 c 128,-1,44
 1129 52 1129 52 1145.5 70.5 c 128,-1,45
 1162 89 1162 89 1167.5 122 c 128,-1,46
 1173 155 1173 155 1173 209 c 2,47,-1
 1173 998 l 1,48,-1
 728 0 l 1,0,-1
EndSplineSet
EndChar

StartChar: N
Encoding: 78 78 40
Width: 1257
Flags: W
LayerCount: 2
Fore
SplineSet
1036 -20 m 1,0,-1
 266 938 l 1,1,-1
 266 256 l 2,2,3
 266 190 266 190 273 148 c 128,-1,4
 280 106 280 106 298 81.5 c 128,-1,5
 316 57 316 57 348 46.5 c 128,-1,6
 380 36 380 36 430 33 c 1,7,-1
 430 0 l 1,8,-1
 21 0 l 1,9,-1
 21 33 l 1,10,11
 75 37 75 37 108.5 47 c 128,-1,12
 142 57 142 57 160 81 c 128,-1,13
 178 105 178 105 184 146.5 c 128,-1,14
 190 188 190 188 190 256 c 2,15,-1
 190 1023 l 1,16,17
 164 1054 164 1054 144.5 1072.5 c 128,-1,18
 125 1091 125 1091 107 1101.5 c 128,-1,19
 89 1112 89 1112 68.5 1115.5 c 128,-1,20
 48 1119 48 1119 21 1119 c 1,21,-1
 21 1153 l 1,22,-1
 319 1153 l 1,23,-1
 989 310 l 1,24,-1
 989 897 l 2,25,26
 989 966 989 966 982 1008 c 128,-1,27
 975 1050 975 1050 956.5 1073 c 128,-1,28
 938 1096 938 1096 905.5 1105.5 c 128,-1,29
 873 1115 873 1115 822 1119 c 1,30,-1
 822 1153 l 1,31,-1
 1231 1153 l 1,32,-1
 1231 1119 l 1,33,34
 1205 1117 1205 1117 1187.5 1114 c 128,-1,35
 1170 1111 1170 1111 1157 1107.5 c 128,-1,36
 1144 1104 1144 1104 1134.5 1099 c 128,-1,37
 1125 1094 1125 1094 1116 1088 c 0,38,39
 1065 1052 1065 1052 1065 897 c 2,40,-1
 1065 -20 l 1,41,-1
 1036 -20 l 1,0,-1
EndSplineSet
EndChar

StartChar: O
Encoding: 79 79 41
Width: 1257
Flags: W
LayerCount: 2
Fore
SplineSet
628 1176 m 0,0,1
 746 1176 746 1176 849.5 1134.5 c 128,-1,2
 953 1093 953 1093 1030.5 1014.5 c 128,-1,3
 1108 936 1108 936 1153 823.5 c 128,-1,4
 1198 711 1198 711 1198 569 c 0,5,6
 1198 438 1198 438 1155.5 328.5 c 128,-1,7
 1113 219 1113 219 1036.5 140.5 c 128,-1,8
 960 62 960 62 853 18.5 c 128,-1,9
 746 -25 746 -25 618 -25 c 0,10,11
 561 -25 561 -25 504 -12.5 c 128,-1,12
 447 0 447 0 394 23 c 128,-1,13
 341 46 341 46 294 79 c 128,-1,14
 247 112 247 112 209 153 c 0,15,16
 137 231 137 231 98 340.5 c 128,-1,17
 59 450 59 450 59 576 c 0,18,19
 59 707 59 707 101 817.5 c 128,-1,20
 143 928 143 928 219 1007.5 c 128,-1,21
 295 1087 295 1087 399 1131.5 c 128,-1,22
 503 1176 503 1176 628 1176 c 0,0,1
628 1114 m 0,23,24
 556 1114 556 1114 493 1086 c 128,-1,25
 430 1058 430 1058 379 1001 c 0,26,27
 351 969 351 969 328.5 923.5 c 128,-1,28
 306 878 306 878 290.5 822.5 c 128,-1,29
 275 767 275 767 266.5 703.5 c 128,-1,30
 258 640 258 640 258 573 c 0,31,32
 258 501 258 501 268.5 432.5 c 128,-1,33
 279 364 279 364 298 305 c 128,-1,34
 317 246 317 246 344 199.5 c 128,-1,35
 371 153 371 153 405 123 c 0,36,37
 453 81 453 81 509 60 c 128,-1,38
 565 39 565 39 625 38 c 0,39,40
 764 38 764 38 857 131 c 0,41,42
 918 192 918 192 942 258 c 0,43,44
 968 326 968 326 984 409.5 c 128,-1,45
 1000 493 1000 493 1000 571 c 0,46,47
 1000 703 1000 703 972.5 804.5 c 128,-1,48
 945 906 945 906 895.5 975 c 128,-1,49
 846 1044 846 1044 777.5 1079 c 128,-1,50
 709 1114 709 1114 628 1114 c 0,23,24
EndSplineSet
EndChar

StartChar: P
Encoding: 80 80 42
Width: 968
Flags: W
LayerCount: 2
Fore
SplineSet
352 190 m 2,0,1
 352 142 352 142 358 112.5 c 128,-1,2
 364 83 364 83 381.5 66 c 128,-1,3
 399 49 399 49 431 42 c 128,-1,4
 463 35 463 35 515 33 c 1,5,-1
 515 0 l 1,6,-1
 28 0 l 1,7,-1
 28 33 l 1,8,9
 77 37 77 37 106 44.5 c 128,-1,10
 135 52 135 52 150 70.5 c 128,-1,11
 165 89 165 89 169.5 122 c 128,-1,12
 174 155 174 155 174 209 c 2,13,-1
 174 963 l 2,14,15
 174 1009 174 1009 169 1037.5 c 128,-1,16
 164 1066 164 1066 149 1082.5 c 128,-1,17
 134 1099 134 1099 105 1106.5 c 128,-1,18
 76 1114 76 1114 28 1119 c 1,19,-1
 28 1153 l 1,20,-1
 487 1153 l 2,21,22
 548 1153 548 1153 606 1144 c 128,-1,23
 664 1135 664 1135 714.5 1118.5 c 128,-1,24
 765 1102 765 1102 805.5 1078.5 c 128,-1,25
 846 1055 846 1055 872 1027 c 0,26,27
 907 989 907 989 925 940.5 c 128,-1,28
 943 892 943 892 943 837 c 0,29,30
 943 750 943 750 898.5 676 c 128,-1,31
 854 602 854 602 776 560 c 0,32,33
 747 544 747 544 715 532.5 c 128,-1,34
 683 521 683 521 646.5 514 c 128,-1,35
 610 507 610 507 567 504 c 128,-1,36
 524 501 524 501 472 501 c 0,37,38
 438 501 438 501 412 502.5 c 128,-1,39
 386 504 386 504 352 507 c 1,40,-1
 352 190 l 2,0,1
352 576 m 1,41,42
 382 574 382 574 403 572.5 c 128,-1,43
 424 571 424 571 450 571 c 0,44,45
 754 571 754 571 754 827 c 0,46,47
 754 962 754 962 671 1025 c 128,-1,48
 588 1088 588 1088 411 1088 c 0,49,50
 376 1088 376 1088 364 1076 c 128,-1,51
 352 1064 352 1064 352 1028 c 2,52,-1
 352 576 l 1,41,42
EndSplineSet
EndChar

StartChar: Q
Encoding: 81 81 43
Width: 1257
Flags: W
LayerCount: 2
Fore
SplineSet
1221 -308 m 1,0,1
 1209 -310 1209 -310 1202 -310 c 128,-1,2
 1195 -310 1195 -310 1190 -310 c 0,3,4
 961 -310 961 -310 800 -259.5 c 128,-1,5
 639 -209 639 -209 543 -98 c 2,6,-1
 462 -2 l 1,7,8
 415 14 415 14 380 29 c 128,-1,9
 345 44 345 44 316.5 61.5 c 128,-1,10
 288 79 288 79 263.5 100 c 128,-1,11
 239 121 239 121 214 148 c 0,12,13
 59 315 59 315 59 573 c 0,14,15
 59 705 59 705 101 816 c 128,-1,16
 143 927 143 927 219 1007 c 128,-1,17
 295 1087 295 1087 399 1131.5 c 128,-1,18
 503 1176 503 1176 628 1176 c 0,19,20
 752 1176 752 1176 857 1131.5 c 128,-1,21
 962 1087 962 1087 1037.5 1007.5 c 128,-1,22
 1113 928 1113 928 1155.5 817.5 c 128,-1,23
 1198 707 1198 707 1198 576 c 0,24,25
 1198 284 1198 284 1003 110 c 0,26,27
 973 83 973 83 945 63.5 c 128,-1,28
 917 44 917 44 886.5 30 c 128,-1,29
 856 16 856 16 821 6 c 128,-1,30
 786 -4 786 -4 741 -12 c 1,31,32
 794 -81 794 -81 847.5 -130 c 128,-1,33
 901 -179 901 -179 959 -211 c 128,-1,34
 1017 -243 1017 -243 1081.5 -259 c 128,-1,35
 1146 -275 1146 -275 1221 -277 c 1,36,-1
 1221 -308 l 1,0,1
633 1114 m 0,37,38
 558 1114 558 1114 495.5 1086.5 c 128,-1,39
 433 1059 433 1059 379 1001 c 0,40,41
 352 972 352 972 329.5 926.5 c 128,-1,42
 307 881 307 881 291.5 825.5 c 128,-1,43
 276 770 276 770 267 708 c 128,-1,44
 258 646 258 646 258 583 c 0,45,46
 258 449 258 449 285 347 c 128,-1,47
 312 245 312 245 361 176.5 c 128,-1,48
 410 108 410 108 478 73 c 128,-1,49
 546 38 546 38 628 38 c 0,50,51
 700 38 700 38 765 67 c 128,-1,52
 830 96 830 96 879 150 c 0,53,54
 906 180 906 180 928 226.5 c 128,-1,55
 950 273 950 273 966 330 c 128,-1,56
 982 387 982 387 991 451 c 128,-1,57
 1000 515 1000 515 1000 580 c 0,58,59
 1000 705 1000 705 972 804 c 128,-1,60
 944 903 944 903 895 972 c 128,-1,61
 846 1041 846 1041 778.5 1077.5 c 128,-1,62
 711 1114 711 1114 633 1114 c 0,37,38
EndSplineSet
EndChar

StartChar: R
Encoding: 82 82 44
Width: 1161
Flags: W
LayerCount: 2
Fore
SplineSet
1147 0 m 1,0,-1
 867 0 l 1,1,-1
 452 536 l 1,2,-1
 355 536 l 1,3,-1
 355 190 l 2,4,5
 355 143 355 143 360.5 114 c 128,-1,6
 366 85 366 85 383 68 c 128,-1,7
 400 51 400 51 430.5 43.5 c 128,-1,8
 461 36 461 36 512 33 c 1,9,-1
 512 0 l 1,10,-1
 30 0 l 1,11,-1
 30 33 l 1,12,13
 79 37 79 37 108 44.5 c 128,-1,14
 137 52 137 52 152.5 70.5 c 128,-1,15
 168 89 168 89 173 122 c 128,-1,16
 178 155 178 155 178 209 c 2,17,-1
 178 963 l 2,18,19
 178 1009 178 1009 173 1037 c 128,-1,20
 168 1065 168 1065 152.5 1081.5 c 128,-1,21
 137 1098 137 1098 108 1106 c 128,-1,22
 79 1114 79 1114 30 1119 c 1,23,-1
 30 1153 l 1,24,-1
 510 1153 l 2,25,26
 728 1153 728 1153 840 1073 c 128,-1,27
 952 993 952 993 952 846 c 0,28,29
 952 783 952 783 929 731.5 c 128,-1,30
 906 680 906 680 864 646 c 0,31,32
 842 628 842 628 820.5 615 c 128,-1,33
 799 602 799 602 772.5 591.5 c 128,-1,34
 746 581 746 581 713.5 572.5 c 128,-1,35
 681 564 681 564 637 555 c 1,36,-1
 995 115 l 2,37,38
 1014 93 1014 93 1031 78 c 128,-1,39
 1048 63 1048 63 1065.5 53.5 c 128,-1,40
 1083 44 1083 44 1102.5 39.5 c 128,-1,41
 1122 35 1122 35 1147 33 c 1,42,-1
 1147 0 l 1,0,-1
355 597 m 1,43,44
 417 598 417 598 462 601 c 128,-1,45
 507 604 507 604 541.5 610.5 c 128,-1,46
 576 617 576 617 604.5 628 c 128,-1,47
 633 639 633 639 663 656 c 0,48,49
 711 681 711 681 736.5 732 c 128,-1,50
 762 783 762 783 762 849 c 0,51,52
 762 972 762 972 684.5 1030 c 128,-1,53
 607 1088 607 1088 444 1088 c 0,54,55
 418 1088 418 1088 400.5 1085 c 128,-1,56
 383 1082 383 1082 373 1075 c 128,-1,57
 363 1068 363 1068 359 1055.5 c 128,-1,58
 355 1043 355 1043 355 1025 c 2,59,-1
 355 597 l 1,43,44
EndSplineSet
EndChar

StartChar: S
Encoding: 83 83 45
Width: 968
Flags: W
LayerCount: 2
Fore
SplineSet
817 806 m 1,0,-1
 773 806 l 1,1,2
 762 845 762 845 752 873.5 c 128,-1,3
 742 902 742 902 730 925 c 128,-1,4
 718 948 718 948 702.5 968.5 c 128,-1,5
 687 989 687 989 666 1010 c 0,6,7
 618 1058 618 1058 566.5 1081.5 c 128,-1,8
 515 1105 515 1105 455 1105 c 0,9,10
 414 1105 414 1105 381 1093.5 c 128,-1,11
 348 1082 348 1082 324 1060.5 c 128,-1,12
 300 1039 300 1039 287 1009 c 128,-1,13
 274 979 274 979 274 943 c 0,14,15
 274 908 274 908 288.5 875.5 c 128,-1,16
 303 843 303 843 333.5 810.5 c 128,-1,17
 364 778 364 778 412.5 744 c 128,-1,18
 461 710 461 710 530 672 c 0,19,20
 616 625 616 625 677.5 580 c 128,-1,21
 739 535 739 535 778.5 489 c 128,-1,22
 818 443 818 443 836.5 394.5 c 128,-1,23
 855 346 855 346 855 292 c 0,24,25
 855 225 855 225 827.5 167 c 128,-1,26
 800 109 800 109 752.5 66.5 c 128,-1,27
 705 24 705 24 640 -0.5 c 128,-1,28
 575 -25 575 -25 500 -25 c 0,29,30
 446 -25 446 -25 395.5 -14.5 c 128,-1,31
 345 -4 345 -4 294 15 c 0,32,33
 240 35 240 35 212 35 c 0,34,35
 192 35 192 35 179 18.5 c 128,-1,36
 166 2 166 2 164 -23 c 1,37,-1
 125 -23 l 1,38,-1
 73 347 l 1,39,-1
 113 347 l 1,40,41
 179 187 179 187 264 112.5 c 128,-1,42
 349 38 349 38 465 38 c 0,43,44
 513 38 513 38 552 52.5 c 128,-1,45
 591 67 591 67 619.5 93 c 128,-1,46
 648 119 648 119 663.5 155 c 128,-1,47
 679 191 679 191 679 235 c 0,48,49
 679 267 679 267 672 292.5 c 128,-1,50
 665 318 665 318 654 336 c 0,51,52
 621 387 621 387 555 438 c 128,-1,53
 489 489 489 489 395 540 c 0,54,55
 322 579 322 579 270.5 617 c 128,-1,56
 219 655 219 655 186 695.5 c 128,-1,57
 153 736 153 736 138 781 c 128,-1,58
 123 826 123 826 123 879 c 0,59,60
 123 1015 123 1015 216 1096 c 0,61,62
 261 1134 261 1134 314.5 1155 c 128,-1,63
 368 1176 368 1176 425 1176 c 0,64,65
 467 1176 467 1176 514 1166.5 c 128,-1,66
 561 1157 561 1157 609 1138 c 0,67,68
 658 1118 658 1118 686 1118 c 0,69,70
 731 1118 731 1118 741 1176 c 1,71,-1
 778 1176 l 1,72,-1
 817 806 l 1,0,-1
EndSplineSet
EndChar

StartChar: T
Encoding: 84 84 46
Width: 1063
Flags: W
LayerCount: 2
Fore
SplineSet
348 1079 m 2,0,1
 275 1079 275 1079 228.5 1071 c 128,-1,2
 182 1063 182 1063 152.5 1039 c 128,-1,3
 123 1015 123 1015 105 971.5 c 128,-1,4
 87 928 87 928 71 857 c 1,5,-1
 30 857 l 1,6,-1
 30 1153 l 1,7,-1
 1022 1153 l 1,8,-1
 1022 857 l 1,9,-1
 990 857 l 1,10,11
 975 929 975 929 958 972.5 c 128,-1,12
 941 1016 941 1016 911.5 1039.5 c 128,-1,13
 882 1063 882 1063 835 1071 c 128,-1,14
 788 1079 788 1079 714 1079 c 2,15,-1
 620 1079 l 1,16,-1
 620 190 l 2,17,18
 620 142 620 142 626 112.5 c 128,-1,19
 632 83 632 83 650 66.5 c 128,-1,20
 668 50 668 50 700.5 43 c 128,-1,21
 733 36 733 36 787 33 c 1,22,-1
 787 0 l 1,23,-1
 279 0 l 1,24,-1
 279 33 l 1,25,26
 333 36 333 36 365 43 c 128,-1,27
 397 50 397 50 414.5 68.5 c 128,-1,28
 432 87 432 87 437 120 c 128,-1,29
 442 153 442 153 442 209 c 2,30,-1
 442 1079 l 1,31,-1
 348 1079 l 2,0,1
EndSplineSet
EndChar

StartChar: U
Encoding: 85 85 47
Width: 1257
Flags: W
LayerCount: 2
Fore
SplineSet
1063 442 m 2,0,1
 1063 392 1063 392 1060 351 c 128,-1,2
 1057 310 1057 310 1050 275.5 c 128,-1,3
 1043 241 1043 241 1032.5 211.5 c 128,-1,4
 1022 182 1022 182 1006 155 c 0,5,6
 901 -25 901 -25 618 -25 c 0,7,8
 396 -25 396 -25 288.5 84 c 128,-1,9
 181 193 181 193 181 420 c 2,10,-1
 181 963 l 2,11,12
 181 1011 181 1011 175.5 1039.5 c 128,-1,13
 170 1068 170 1068 153.5 1084.5 c 128,-1,14
 137 1101 137 1101 106.5 1108 c 128,-1,15
 76 1115 76 1115 25 1119 c 1,16,-1
 25 1153 l 1,17,-1
 517 1153 l 1,18,-1
 517 1119 l 1,19,20
 464 1115 464 1115 433 1107.5 c 128,-1,21
 402 1100 402 1100 385.5 1083.5 c 128,-1,22
 369 1067 369 1067 364 1038 c 128,-1,23
 359 1009 359 1009 359 963 c 2,24,-1
 359 405 l 2,25,26
 359 323 359 323 369 270 c 128,-1,27
 379 217 379 217 402 176 c 0,28,29
 472 52 472 52 658 52 c 0,30,31
 707 52 707 52 751.5 61.5 c 128,-1,32
 796 71 796 71 833.5 89 c 128,-1,33
 871 107 871 107 900 132.5 c 128,-1,34
 929 158 929 158 947 190 c 0,35,36
 968 229 968 229 977.5 283.5 c 128,-1,37
 987 338 987 338 987 427 c 2,38,-1
 987 897 l 2,39,40
 987 962 987 962 980.5 1003 c 128,-1,41
 974 1044 974 1044 956 1068.5 c 128,-1,42
 938 1093 938 1093 906.5 1104 c 128,-1,43
 875 1115 875 1115 824 1119 c 1,44,-1
 824 1153 l 1,45,-1
 1227 1153 l 1,46,-1
 1227 1119 l 1,47,48
 1174 1113 1174 1113 1141.5 1102.5 c 128,-1,49
 1109 1092 1109 1092 1091.5 1068 c 128,-1,50
 1074 1044 1074 1044 1068.5 1003.5 c 128,-1,51
 1063 963 1063 963 1063 897 c 2,52,-1
 1063 442 l 2,0,1
EndSplineSet
EndChar

StartChar: V
Encoding: 86 86 48
Width: 1257
Flags: W
LayerCount: 2
Fore
SplineSet
1213 1119 m 1,0,1
 1181 1117 1181 1117 1160.5 1111 c 128,-1,2
 1140 1105 1140 1105 1123.5 1088 c 128,-1,3
 1107 1071 1107 1071 1091 1040 c 128,-1,4
 1075 1009 1075 1009 1053 957 c 2,5,-1
 666 -20 l 1,6,-1
 641 -20 l 1,7,-1
 212 937 l 2,8,9
 184 995 184 995 164 1030 c 128,-1,10
 144 1065 144 1065 124.5 1084.5 c 128,-1,11
 105 1104 105 1104 82.5 1111 c 128,-1,12
 60 1118 60 1118 28 1119 c 1,13,-1
 28 1153 l 1,14,-1
 491 1153 l 1,15,-1
 491 1119 l 1,16,17
 424 1116 424 1116 392 1106 c 128,-1,18
 360 1096 360 1096 360 1062 c 0,19,20
 360 1052 360 1052 363 1038.5 c 128,-1,21
 366 1025 366 1025 374 1003 c 128,-1,22
 382 981 382 981 396 948.5 c 128,-1,23
 410 916 410 916 432 869 c 2,24,-1
 694 280 l 1,25,-1
 950 919 l 2,26,27
 967 959 967 959 975 992 c 128,-1,28
 983 1025 983 1025 983 1046 c 0,29,30
 983 1083 983 1083 955.5 1099 c 128,-1,31
 928 1115 928 1115 857 1119 c 1,32,-1
 857 1153 l 1,33,-1
 1213 1153 l 1,34,-1
 1213 1119 l 1,0,1
EndSplineSet
EndChar

StartChar: W
Encoding: 87 87 49
Width: 1643
Flags: W
LayerCount: 2
Fore
SplineSet
1623 1119 m 1,0,1
 1588 1113 1588 1113 1565.5 1105.5 c 128,-1,2
 1543 1098 1543 1098 1527.5 1085 c 128,-1,3
 1512 1072 1512 1072 1501 1050.5 c 128,-1,4
 1490 1029 1490 1029 1478 995 c 0,5,6
 1431 867 1431 867 1397 773.5 c 128,-1,7
 1363 680 1363 680 1335.5 605 c 128,-1,8
 1308 530 1308 530 1285.5 466 c 128,-1,9
 1263 402 1263 402 1239 332 c 128,-1,10
 1215 262 1215 262 1187.5 178 c 128,-1,11
 1160 94 1160 94 1123 -20 c 1,12,-1
 1096 -20 l 1,13,-1
 819 717 l 1,14,-1
 550 -20 l 1,15,-1
 524 -20 l 1,16,-1
 188 915 l 2,17,18
 164 976 164 976 145.5 1014.5 c 128,-1,19
 127 1053 127 1053 107.5 1075 c 128,-1,20
 88 1097 88 1097 65 1106.5 c 128,-1,21
 42 1116 42 1116 8 1119 c 1,22,-1
 8 1153 l 1,23,-1
 435 1153 l 1,24,-1
 435 1119 l 1,25,26
 402 1117 402 1117 380 1113.5 c 128,-1,27
 358 1110 358 1110 345.5 1103.5 c 128,-1,28
 333 1097 333 1097 327.5 1087.5 c 128,-1,29
 322 1078 322 1078 322 1063 c 0,30,31
 322 1049 322 1049 327 1028 c 128,-1,32
 332 1007 332 1007 341 983 c 2,33,-1
 592 329 l 1,34,-1
 778 820 l 1,35,-1
 721 963 l 2,36,37
 698 1015 698 1015 682 1046 c 128,-1,38
 666 1077 666 1077 648 1093 c 128,-1,39
 630 1109 630 1109 606.5 1114 c 128,-1,40
 583 1119 583 1119 545 1119 c 1,41,-1
 545 1153 l 1,42,-1
 1010 1153 l 1,43,-1
 1010 1119 l 1,44,45
 938 1118 938 1118 906.5 1104 c 128,-1,46
 875 1090 875 1090 875 1058 c 0,47,48
 875 1035 875 1035 888.5 1002 c 128,-1,49
 902 969 902 969 922 917 c 2,50,-1
 1153 324 l 1,51,-1
 1370 914 l 2,52,53
 1384 950 1384 950 1391 983.5 c 128,-1,54
 1398 1017 1398 1017 1398 1045 c 0,55,56
 1398 1080 1398 1080 1371.5 1096.5 c 128,-1,57
 1345 1113 1345 1113 1278 1119 c 1,58,-1
 1278 1153 l 1,59,-1
 1623 1153 l 1,60,-1
 1623 1119 l 1,0,1
EndSplineSet
EndChar

StartChar: X
Encoding: 88 88 50
Width: 1257
Flags: W
LayerCount: 2
Fore
SplineSet
1211 1119 m 1,0,1
 1170 1117 1170 1117 1140 1110.5 c 128,-1,2
 1110 1104 1110 1104 1082 1086.5 c 128,-1,3
 1054 1069 1054 1069 1024 1038 c 128,-1,4
 994 1007 994 1007 952 955 c 2,5,-1
 698 639 l 1,6,-1
 1032 161 l 2,7,8
 1060 123 1060 123 1080.5 100 c 128,-1,9
 1101 77 1101 77 1122 63.5 c 128,-1,10
 1143 50 1143 50 1167 43.5 c 128,-1,11
 1191 37 1191 37 1226 33 c 1,12,-1
 1226 0 l 1,13,-1
 709 0 l 1,14,-1
 709 33 l 1,15,16
 724 35 724 35 737.5 36 c 128,-1,17
 751 37 751 37 756 37 c 0,18,19
 842 39 842 39 842 87 c 0,20,21
 842 129 842 129 754 258 c 2,22,-1
 588 501 l 1,23,-1
 382 244 l 2,24,25
 357 213 357 213 340 189.5 c 128,-1,26
 323 166 323 166 312 148 c 128,-1,27
 301 130 301 130 296 117 c 128,-1,28
 291 104 291 104 291 94 c 0,29,30
 291 79 291 79 297.5 68.5 c 128,-1,31
 304 58 304 58 319 51 c 128,-1,32
 334 44 334 44 359.5 40 c 128,-1,33
 385 36 385 36 423 33 c 1,34,-1
 423 0 l 1,35,-1
 17 0 l 1,36,-1
 17 33 l 1,37,38
 40 35 40 35 56.5 37.5 c 128,-1,39
 73 40 73 40 88 47 c 128,-1,40
 103 54 103 54 118.5 66 c 128,-1,41
 134 78 134 78 154.5 99.5 c 128,-1,42
 175 121 175 121 202.5 153 c 128,-1,43
 230 185 230 185 269 231 c 2,44,-1
 543 568 l 1,45,-1
 354 846 l 2,46,47
 311 906 311 906 279 949.5 c 128,-1,48
 247 993 247 993 221 1023 c 128,-1,49
 195 1053 195 1053 174 1071 c 128,-1,50
 153 1089 153 1089 132.5 1099.5 c 128,-1,51
 112 1110 112 1110 89 1114 c 128,-1,52
 66 1118 66 1118 38 1119 c 1,53,-1
 38 1153 l 1,54,-1
 564 1153 l 1,55,-1
 564 1119 l 1,56,-1
 515 1118 l 2,57,58
 472 1116 472 1116 452 1104.5 c 128,-1,59
 432 1093 432 1093 432 1067 c 0,60,61
 432 1052 432 1052 440 1030.5 c 128,-1,62
 448 1009 448 1009 466 977.5 c 128,-1,63
 484 946 484 946 512 904 c 128,-1,64
 540 862 540 862 580 806 c 2,65,-1
 653 703 l 1,66,-1
 849 943 l 2,67,68
 887 991 887 991 903 1018.5 c 128,-1,69
 919 1046 919 1046 919 1063 c 0,70,71
 919 1092 919 1092 894 1104.5 c 128,-1,72
 869 1117 869 1117 797 1119 c 1,73,-1
 797 1153 l 1,74,-1
 1211 1153 l 1,75,-1
 1211 1119 l 1,0,1
EndSplineSet
EndChar

StartChar: Y
Encoding: 89 89 51
Width: 1257
Flags: W
LayerCount: 2
Fore
SplineSet
1224 1119 m 1,0,1
 1191 1117 1191 1117 1164 1107.5 c 128,-1,2
 1137 1098 1137 1098 1110 1075.5 c 128,-1,3
 1083 1053 1083 1053 1053 1015.5 c 128,-1,4
 1023 978 1023 978 983 921 c 2,5,-1
 726 528 l 1,6,-1
 726 190 l 2,7,8
 726 141 726 141 732.5 110.5 c 128,-1,9
 739 80 739 80 758 63.5 c 128,-1,10
 777 47 777 47 812 40.5 c 128,-1,11
 847 34 847 34 905 33 c 1,12,-1
 905 0 l 1,13,-1
 372 0 l 1,14,-1
 372 33 l 1,15,16
 432 36 432 36 467 42.5 c 128,-1,17
 502 49 502 49 520 67 c 128,-1,18
 538 85 538 85 543 118.5 c 128,-1,19
 548 152 548 152 548 209 c 2,20,-1
 548 512 l 1,21,-1
 320 846 l 2,22,23
 255 937 255 937 214.5 991 c 128,-1,24
 174 1045 174 1045 145 1073 c 128,-1,25
 116 1101 116 1101 92.5 1109.5 c 128,-1,26
 69 1118 69 1118 38 1119 c 1,27,-1
 38 1153 l 1,28,-1
 525 1153 l 1,29,-1
 525 1119 l 1,30,31
 462 1116 462 1116 432 1107 c 128,-1,32
 402 1098 402 1098 402 1067 c 0,33,34
 402 1053 402 1053 409.5 1032 c 128,-1,35
 417 1011 417 1011 432 990 c 2,36,-1
 689 604 l 1,37,-1
 938 998 l 2,38,39
 950 1018 950 1018 956.5 1033 c 128,-1,40
 963 1048 963 1048 963 1062 c 0,41,42
 963 1093 963 1093 936.5 1105.5 c 128,-1,43
 910 1118 910 1118 842 1119 c 1,44,-1
 842 1153 l 1,45,-1
 1224 1153 l 1,46,-1
 1224 1119 l 1,0,1
EndSplineSet
EndChar

StartChar: Z
Encoding: 90 90 52
Width: 1063
Flags: W
LayerCount: 2
Fore
SplineSet
1040 306 m 1,0,-1
 998 0 l 1,1,-1
 15 0 l 1,2,-1
 15 26 l 1,3,-1
 776 1086 l 1,4,-1
 392 1086 l 2,5,6
 216 1086 216 1086 158 1011 c 0,7,8
 147 997 147 997 138.5 983 c 128,-1,9
 130 969 130 969 123.5 951 c 128,-1,10
 117 933 117 933 111 910 c 128,-1,11
 105 887 105 887 99 855 c 1,12,-1
 54 855 l 1,13,-1
 88 1153 l 1,14,-1
 1005 1153 l 1,15,-1
 1005 1126 l 1,16,-1
 252 66 l 1,17,-1
 700 66 l 2,18,19
 851 66 851 66 917 134 c 0,20,21
 930 149 930 149 940.5 164 c 128,-1,22
 951 179 951 179 960.5 198.5 c 128,-1,23
 970 218 970 218 979.5 244 c 128,-1,24
 989 270 989 270 1000 306 c 1,25,-1
 1040 306 l 1,0,-1
EndSplineSet
EndChar

StartChar: bracketleft
Encoding: 91 91 53
Width: 580
Flags: W
LayerCount: 2
Fore
SplineSet
520 -271 m 1,0,-1
 153 -271 l 1,1,-1
 153 1153 l 1,2,-1
 520 1153 l 1,3,-1
 520 1109 l 1,4,-1
 364 1109 l 2,5,6
 322 1109 322 1109 304 1091.5 c 128,-1,7
 286 1074 286 1074 286 1032 c 2,8,-1
 286 -138 l 2,9,10
 286 -228 286 -228 371 -228 c 2,11,-1
 520 -228 l 1,12,-1
 520 -271 l 1,0,-1
EndSplineSet
EndChar

StartChar: backslash
Encoding: 92 92 54
Width: 423
Flags: W
LayerCount: 2
Fore
SplineSet
110 1119 m 1,0,-1
 377 -93 l 1,1,-1
 308 -93 l 1,2,-1
 42 1119 l 1,3,-1
 110 1119 l 1,0,-1
EndSplineSet
EndChar

StartChar: bracketright
Encoding: 93 93 55
Width: 580
Flags: W
LayerCount: 2
Fore
SplineSet
216 -228 m 2,0,1
 256 -228 256 -228 275 -210.5 c 128,-1,2
 294 -193 294 -193 294 -151 c 2,3,-1
 294 1018 l 2,4,5
 294 1109 294 1109 209 1109 c 2,6,-1
 59 1109 l 1,7,-1
 59 1153 l 1,8,-1
 427 1153 l 1,9,-1
 427 -271 l 1,10,-1
 59 -271 l 1,11,-1
 59 -228 l 1,12,-1
 216 -228 l 2,0,1
EndSplineSet
EndChar

StartChar: asciicircum
Encoding: 94 94 56
Width: 817
Flags: W
LayerCount: 2
Fore
SplineSet
42 517 m 1,0,-1
 357 1153 l 1,1,-1
 462 1153 l 1,2,-1
 776 517 l 1,3,-1
 658 517 l 1,4,-1
 409 1020 l 1,5,-1
 160 517 l 1,6,-1
 42 517 l 1,0,-1
EndSplineSet
EndChar

StartChar: underscore
Encoding: 95 95 57
Width: 870
Flags: W
LayerCount: 2
Fore
SplineSet
0 -218 m 1,0,-1
 0 -131 l 1,1,-1
 870 -131 l 1,2,-1
 870 -218 l 1,3,-1
 0 -218 l 1,0,-1
EndSplineSet
EndChar

StartChar: grave
Encoding: 96 96 58
Width: 580
Flags: W
LayerCount: 2
Fore
SplineSet
352 882 m 1,0,-1
 83 1051 l 2,1,2
 60 1068 60 1068 46.5 1086.5 c 128,-1,3
 33 1105 33 1105 33 1126 c 0,4,5
 33 1151 33 1151 49 1166 c 128,-1,6
 65 1181 65 1181 93 1181 c 0,7,8
 111 1181 111 1181 126.5 1172 c 128,-1,9
 142 1163 142 1163 166 1140 c 2,10,-1
 422 882 l 1,11,-1
 352 882 l 1,0,-1
EndSplineSet
EndChar

StartChar: a
Encoding: 97 97 59
Width: 773
Flags: W
LayerCount: 2
Fore
SplineSet
769 70 m 1,0,1
 746 44 746 44 727 27.5 c 128,-1,2
 708 11 708 11 690.5 1 c 128,-1,3
 673 -9 673 -9 654.5 -13 c 128,-1,4
 636 -17 636 -17 613 -17 c 0,5,6
 559 -17 559 -17 533.5 12 c 128,-1,7
 508 41 508 41 501 110 c 1,8,9
 461 76 461 76 427.5 52 c 128,-1,10
 394 28 394 28 363.5 12.5 c 128,-1,11
 333 -3 333 -3 304.5 -10 c 128,-1,12
 276 -17 276 -17 247 -17 c 0,13,14
 207 -17 207 -17 173.5 -3.5 c 128,-1,15
 140 10 140 10 116 34.5 c 128,-1,16
 92 59 92 59 78.5 93.5 c 128,-1,17
 65 128 65 128 65 169 c 0,18,19
 65 212 65 212 81.5 253 c 128,-1,20
 98 294 98 294 127 320 c 0,21,22
 146 337 146 337 162 350 c 128,-1,23
 178 363 178 363 197 374.5 c 128,-1,24
 216 386 216 386 240.5 398.5 c 128,-1,25
 265 411 265 411 300.5 426 c 128,-1,26
 336 441 336 441 384.5 461 c 128,-1,27
 433 481 433 481 500 508 c 1,28,-1
 500 615 l 2,29,30
 500 687 500 687 465.5 723 c 128,-1,31
 431 759 431 759 367 759 c 0,32,33
 341 759 341 759 318 752.5 c 128,-1,34
 295 746 295 746 278 734.5 c 128,-1,35
 261 723 261 723 251.5 707.5 c 128,-1,36
 242 692 242 692 242 674 c 0,37,38
 242 659 242 659 246.5 637 c 128,-1,39
 251 615 251 615 251 604 c 0,40,41
 251 589 251 589 244.5 576 c 128,-1,42
 238 563 238 563 227.5 553 c 128,-1,43
 217 543 217 543 202.5 537 c 128,-1,44
 188 531 188 531 173 531 c 0,45,46
 143 531 143 531 120.5 553.5 c 128,-1,47
 98 576 98 576 98 606 c 0,48,49
 98 647 98 647 120.5 682.5 c 128,-1,50
 143 718 143 718 182.5 744.5 c 128,-1,51
 222 771 222 771 275 786 c 128,-1,52
 328 801 328 801 390 801 c 0,53,54
 547 801 547 801 606 705 c 0,55,56
 625 674 625 674 633 632 c 128,-1,57
 641 590 641 590 641 522 c 2,58,-1
 641 183 l 2,59,60
 641 125 641 125 652 103.5 c 128,-1,61
 663 82 663 82 693 82 c 0,62,63
 713 82 713 82 729.5 89 c 128,-1,64
 746 96 746 96 769 115 c 1,65,-1
 769 70 l 1,0,1
500 467 m 1,66,67
 421 438 421 438 367 411 c 128,-1,68
 313 384 313 384 280 355.5 c 128,-1,69
 247 327 247 327 232.5 295 c 128,-1,70
 218 263 218 263 218 224 c 2,71,-1
 218 218 l 2,72,73
 218 190 218 190 226.5 165.5 c 128,-1,74
 235 141 235 141 249.5 122.5 c 128,-1,75
 264 104 264 104 284 93.5 c 128,-1,76
 304 83 304 83 327 83 c 0,77,78
 353 83 353 83 388 93.5 c 128,-1,79
 423 104 423 104 455 123 c 0,80,81
 468 130 468 130 476.5 138 c 128,-1,82
 485 146 485 146 490 156 c 128,-1,83
 495 166 495 166 497.5 180 c 128,-1,84
 500 194 500 194 500 214 c 2,85,-1
 500 467 l 1,66,67
EndSplineSet
EndChar

StartChar: b
Encoding: 98 98 60
Width: 870
Flags: W
LayerCount: 2
Fore
SplineSet
266 653 m 1,0,1
 279 685 279 685 303.5 712 c 128,-1,2
 328 739 328 739 360.5 759 c 128,-1,3
 393 779 393 779 430.5 790 c 128,-1,4
 468 801 468 801 508 801 c 0,5,6
 574 801 574 801 630 772 c 128,-1,7
 686 743 686 743 727 692 c 128,-1,8
 768 641 768 641 791 572 c 128,-1,9
 814 503 814 503 814 423 c 0,10,11
 814 330 814 330 782.5 249.5 c 128,-1,12
 751 169 751 169 696.5 109.5 c 128,-1,13
 642 50 642 50 567.5 16.5 c 128,-1,14
 493 -17 493 -17 407 -17 c 0,15,16
 355 -17 355 -17 303.5 -7.5 c 128,-1,17
 252 2 252 2 211.5 18 c 128,-1,18
 171 34 171 34 145.5 54 c 128,-1,19
 120 74 120 74 120 94 c 2,20,-1
 120 998 l 2,21,22
 120 1025 120 1025 116.5 1042.5 c 128,-1,23
 113 1060 113 1060 103.5 1069.5 c 128,-1,24
 94 1079 94 1079 77.5 1082.5 c 128,-1,25
 61 1086 61 1086 35 1086 c 0,26,27
 26 1086 26 1086 19.5 1086 c 128,-1,28
 13 1086 13 1086 5 1085 c 1,29,-1
 5 1113 l 1,30,-1
 56 1126 l 2,31,32
 87 1135 87 1135 112 1142 c 128,-1,33
 137 1149 137 1149 160 1156 c 128,-1,34
 183 1163 183 1163 206.5 1171 c 128,-1,35
 230 1179 230 1179 258 1189 c 1,36,-1
 266 1186 l 1,37,-1
 266 653 l 1,0,1
266 122 m 2,38,39
 266 105 266 105 279.5 90 c 128,-1,40
 293 75 293 75 316.5 63.5 c 128,-1,41
 340 52 340 52 370.5 45 c 128,-1,42
 401 38 401 38 435 38 c 0,43,44
 544 38 544 38 602.5 116.5 c 128,-1,45
 661 195 661 195 661 343 c 0,46,47
 661 422 661 422 645.5 486.5 c 128,-1,48
 630 551 630 551 601 596.5 c 128,-1,49
 572 642 572 642 531 666.5 c 128,-1,50
 490 691 490 691 439 691 c 0,51,52
 404 691 404 691 373 680 c 128,-1,53
 342 669 342 669 318 651 c 128,-1,54
 294 633 294 633 280 609 c 128,-1,55
 266 585 266 585 266 560 c 2,56,-1
 266 122 l 2,38,39
EndSplineSet
EndChar

StartChar: c
Encoding: 99 99 61
Width: 773
Flags: W
LayerCount: 2
Fore
SplineSet
717 256 m 1,0,1
 697 218 697 218 681 189 c 128,-1,2
 665 160 665 160 649.5 137.5 c 128,-1,3
 634 115 634 115 618.5 97.5 c 128,-1,4
 603 80 603 80 585 65 c 0,5,6
 535 23 535 23 485 3 c 128,-1,7
 435 -17 435 -17 374 -17 c 0,8,9
 302 -17 302 -17 241 11.5 c 128,-1,10
 180 40 180 40 136 91.5 c 128,-1,11
 92 143 92 143 67.5 214 c 128,-1,12
 43 285 43 285 43 371 c 0,13,14
 43 474 43 474 78 559.5 c 128,-1,15
 113 645 113 645 179 703 c 0,16,17
 233 751 233 751 296 776 c 128,-1,18
 359 801 359 801 425 801 c 0,19,20
 480 801 480 801 528.5 786.5 c 128,-1,21
 577 772 577 772 613.5 747.5 c 128,-1,22
 650 723 650 723 671.5 690.5 c 128,-1,23
 693 658 693 658 693 621 c 0,24,25
 693 591 693 591 668 569.5 c 128,-1,26
 643 548 643 548 609 548 c 0,27,28
 583 548 583 548 561 570 c 128,-1,29
 539 592 539 592 528 628 c 2,30,-1
 517 666 l 2,31,32
 511 690 511 690 503 706.5 c 128,-1,33
 495 723 495 723 483 733 c 128,-1,34
 471 743 471 743 454.5 747 c 128,-1,35
 438 751 438 751 414 751 c 0,36,37
 361 751 361 751 318 728.5 c 128,-1,38
 275 706 275 706 243.5 666 c 128,-1,39
 212 626 212 626 195 570 c 128,-1,40
 178 514 178 514 178 447 c 0,41,42
 178 372 178 372 198 309.5 c 128,-1,43
 218 247 218 247 253.5 202.5 c 128,-1,44
 289 158 289 158 338.5 133 c 128,-1,45
 388 108 388 108 447 108 c 0,46,47
 485 108 485 108 516 116.5 c 128,-1,48
 547 125 547 125 575.5 144 c 128,-1,49
 604 163 604 163 632.5 194.5 c 128,-1,50
 661 226 661 226 693 271 c 1,51,-1
 717 256 l 1,0,1
EndSplineSet
EndChar

StartChar: d
Encoding: 100 100 62
Width: 870
Flags: W
LayerCount: 2
Fore
SplineSet
592 -12 m 1,0,-1
 592 99 l 1,1,2
 548 37 548 37 495 10 c 128,-1,3
 442 -17 442 -17 369 -17 c 0,4,5
 297 -17 297 -17 238 10 c 128,-1,6
 179 37 179 37 136.5 86.5 c 128,-1,7
 94 136 94 136 70.5 204.5 c 128,-1,8
 47 273 47 273 47 357 c 0,9,10
 47 450 47 450 75.5 531 c 128,-1,11
 104 612 104 612 153 672 c 128,-1,12
 202 732 202 732 268 766.5 c 128,-1,13
 334 801 334 801 409 801 c 0,14,15
 435 801 435 801 457.5 797 c 128,-1,16
 480 793 480 793 501.5 784.5 c 128,-1,17
 523 776 523 776 545 761.5 c 128,-1,18
 567 747 567 747 592 726 c 1,19,-1
 592 998 l 2,20,21
 592 1024 592 1024 588.5 1041 c 128,-1,22
 585 1058 585 1058 576 1068 c 128,-1,23
 567 1078 567 1078 551.5 1082 c 128,-1,24
 536 1086 536 1086 512 1086 c 0,25,26
 501 1086 501 1086 492.5 1086 c 128,-1,27
 484 1086 484 1086 473 1085 c 1,28,-1
 473 1113 l 1,29,30
 515 1124 515 1124 548.5 1133 c 128,-1,31
 582 1142 582 1142 612 1151 c 128,-1,32
 642 1160 642 1160 670 1169 c 128,-1,33
 698 1178 698 1178 729 1189 c 1,34,-1
 738 1186 l 1,35,-1
 738 198 l 2,36,37
 738 165 738 165 741.5 145 c 128,-1,38
 745 125 745 125 755.5 115 c 128,-1,39
 766 105 766 105 784 102 c 128,-1,40
 802 99 802 99 831 99 c 0,41,42
 835 99 835 99 840.5 99 c 128,-1,43
 846 99 846 99 855 101 c 1,44,-1
 855 73 l 1,45,-1
 599 -17 l 1,46,-1
 592 -12 l 1,0,-1
592 578 m 2,47,48
 592 612 592 612 577.5 643.5 c 128,-1,49
 563 675 563 675 538 699 c 128,-1,50
 513 723 513 723 481 737.5 c 128,-1,51
 449 752 449 752 414 752 c 0,52,53
 364 752 364 752 324 729 c 128,-1,54
 284 706 284 706 255.5 663 c 128,-1,55
 227 620 227 620 211.5 560 c 128,-1,56
 196 500 196 500 196 427 c 0,57,58
 196 346 196 346 213.5 281 c 128,-1,59
 231 216 231 216 262.5 169.5 c 128,-1,60
 294 123 294 123 338.5 98 c 128,-1,61
 383 73 383 73 437 73 c 0,62,63
 515 73 515 73 563 125 c 0,64,65
 576 139 576 139 584 154 c 128,-1,66
 592 169 592 169 592 178 c 2,67,-1
 592 578 l 2,47,48
EndSplineSet
EndChar

StartChar: e
Encoding: 101 101 63
Width: 773
Flags: W
LayerCount: 2
Fore
SplineSet
738 274 m 1,0,1
 683 129 683 129 589.5 56 c 128,-1,2
 496 -17 496 -17 369 -17 c 0,3,4
 294 -17 294 -17 233.5 10 c 128,-1,5
 173 37 173 37 131 87.5 c 128,-1,6
 89 138 89 138 66 210 c 128,-1,7
 43 282 43 282 43 372 c 0,8,9
 43 471 43 471 71.5 550.5 c 128,-1,10
 100 630 100 630 149 685.5 c 128,-1,11
 198 741 198 741 264.5 771 c 128,-1,12
 331 801 331 801 407 801 c 0,13,14
 476 801 476 801 533.5 775 c 128,-1,15
 591 749 591 749 630 701 c 0,16,17
 646 681 646 681 658 660 c 128,-1,18
 670 639 670 639 678.5 613.5 c 128,-1,19
 687 588 687 588 693.5 556 c 128,-1,20
 700 524 700 524 705 482 c 1,21,-1
 169 482 l 1,22,23
 172 387 172 387 193 315.5 c 128,-1,24
 214 244 214 244 249.5 197 c 128,-1,25
 285 150 285 150 333.5 126.5 c 128,-1,26
 382 103 382 103 440 103 c 0,27,28
 482 103 482 103 517.5 113 c 128,-1,29
 553 123 553 123 585.5 144.5 c 128,-1,30
 618 166 618 166 648.5 201 c 128,-1,31
 679 236 679 236 711 286 c 1,32,-1
 738 274 l 1,0,1
528 538 m 1,33,34
 519 595 519 595 506 633 c 128,-1,35
 493 671 493 671 473.5 694.5 c 128,-1,36
 454 718 454 718 425.5 728 c 128,-1,37
 397 738 397 738 357 738 c 0,38,39
 276 738 276 738 231.5 689.5 c 128,-1,40
 187 641 187 641 173 538 c 1,41,-1
 528 538 l 1,33,34
EndSplineSet
EndChar

StartChar: f
Encoding: 102 102 64
Width: 580
Flags: W
LayerCount: 2
Fore
SplineSet
538 728 m 1,0,-1
 326 728 l 1,1,-1
 326 181 l 2,2,3
 326 132 326 132 331 102.5 c 128,-1,4
 336 73 336 73 353 56.5 c 128,-1,5
 370 40 370 40 402 34 c 128,-1,6
 434 28 434 28 487 26 c 1,7,-1
 487 0 l 1,8,-1
 35 0 l 1,9,-1
 35 26 l 1,10,11
 82 29 82 29 110.5 35.5 c 128,-1,12
 139 42 139 42 154 58.5 c 128,-1,13
 169 75 169 75 174 104 c 128,-1,14
 179 133 179 133 179 181 c 2,15,-1
 179 728 l 1,16,-1
 37 728 l 1,17,-1
 37 784 l 1,18,-1
 179 784 l 1,19,20
 180 836 180 836 183.5 875 c 128,-1,21
 187 914 187 914 194 946 c 128,-1,22
 201 978 201 978 212.5 1005.5 c 128,-1,23
 224 1033 224 1033 241 1062 c 0,24,25
 276 1122 276 1122 339.5 1155.5 c 128,-1,26
 403 1189 403 1189 485 1189 c 0,27,28
 524 1189 524 1189 557.5 1181 c 128,-1,29
 591 1173 591 1173 615 1158.5 c 128,-1,30
 639 1144 639 1144 652.5 1124.5 c 128,-1,31
 666 1105 666 1105 666 1081 c 0,32,33
 666 1051 666 1051 644.5 1030.5 c 128,-1,34
 623 1010 623 1010 593 1010 c 0,35,36
 571 1010 571 1010 553.5 1024 c 128,-1,37
 536 1038 536 1038 515 1073 c 0,38,39
 492 1111 492 1111 471.5 1125.5 c 128,-1,40
 451 1140 451 1140 423 1140 c 0,41,42
 372 1140 372 1140 348 1100.5 c 128,-1,43
 324 1061 324 1061 324 985 c 2,44,-1
 324 784 l 1,45,-1
 538 784 l 1,46,-1
 538 728 l 1,0,-1
EndSplineSet
EndChar

StartChar: g
Encoding: 103 103 65
Width: 870
Flags: W
LayerCount: 2
Fore
SplineSet
674 676 m 1,0,1
 692 634 692 634 699 601 c 128,-1,2
 706 568 706 568 706 530 c 0,3,4
 706 464 706 464 687 417 c 128,-1,5
 668 370 668 370 623 332 c 0,6,7
 576 292 576 292 525 275.5 c 128,-1,8
 474 259 474 259 419 259 c 0,9,10
 406 259 406 259 385.5 260.5 c 128,-1,11
 365 262 365 262 336 268 c 1,12,13
 318 263 318 263 299.5 250 c 128,-1,14
 281 237 281 237 266 221 c 128,-1,15
 251 205 251 205 241 188 c 128,-1,16
 231 171 231 171 231 158 c 0,17,18
 231 117 231 117 367 111 c 2,19,-1
 592 101 l 2,20,21
 689 96 689 96 745.5 46 c 128,-1,22
 802 -4 802 -4 802 -85 c 0,23,24
 802 -136 802 -136 779.5 -177.5 c 128,-1,25
 757 -219 757 -219 706 -261 c 0,26,27
 671 -289 671 -289 629.5 -311 c 128,-1,28
 588 -333 588 -333 542.5 -348 c 128,-1,29
 497 -363 497 -363 448 -371 c 128,-1,30
 399 -379 399 -379 350 -379 c 0,31,32
 288 -379 288 -379 233 -365.5 c 128,-1,33
 178 -352 178 -352 137 -329.5 c 128,-1,34
 96 -307 96 -307 72 -276.5 c 128,-1,35
 48 -246 48 -246 48 -211 c 0,36,37
 48 -186 48 -186 57.5 -162.5 c 128,-1,38
 67 -139 67 -139 87.5 -114 c 128,-1,39
 108 -89 108 -89 140.5 -60.5 c 128,-1,40
 173 -32 173 -32 219 2 c 1,41,42
 166 28 166 28 146.5 47.5 c 128,-1,43
 127 67 127 67 127 94 c 0,44,45
 127 115 127 115 134.5 131 c 128,-1,46
 142 147 142 147 160 166.5 c 128,-1,47
 178 186 178 186 208 213 c 128,-1,48
 238 240 238 240 282 284 c 1,49,50
 195 327 195 327 157.5 381 c 128,-1,51
 120 435 120 435 120 517 c 0,52,53
 120 578 120 578 143 630 c 128,-1,54
 166 682 166 682 206 720 c 128,-1,55
 246 758 246 758 300 779.5 c 128,-1,56
 354 801 354 801 416 801 c 0,57,58
 448 801 448 801 481.5 793 c 128,-1,59
 515 785 515 785 550 774 c 2,60,-1
 588 761 l 2,61,62
 614 752 614 752 636 747.5 c 128,-1,63
 658 743 658 743 684 743 c 2,64,-1
 819 743 l 1,65,-1
 819 676 l 1,66,-1
 674 676 l 1,0,1
256 -3 m 1,67,68
 229 -36 229 -36 212.5 -58 c 128,-1,69
 196 -80 196 -80 186.5 -96 c 128,-1,70
 177 -112 177 -112 174 -125 c 128,-1,71
 171 -138 171 -138 171 -153 c 0,72,73
 171 -182 171 -182 189 -205.5 c 128,-1,74
 207 -229 207 -229 240 -246 c 128,-1,75
 273 -263 273 -263 320 -272 c 128,-1,76
 367 -281 367 -281 425 -281 c 0,77,78
 498 -281 498 -281 559 -269 c 128,-1,79
 620 -257 620 -257 663 -234.5 c 128,-1,80
 706 -212 706 -212 730 -180.5 c 128,-1,81
 754 -149 754 -149 754 -111 c 0,82,83
 754 -87 754 -87 742.5 -71 c 128,-1,84
 731 -55 731 -55 705.5 -45 c 128,-1,85
 680 -35 680 -35 638.5 -30.5 c 128,-1,86
 597 -26 597 -26 538 -26 c 0,87,88
 506 -26 506 -26 466 -24 c 128,-1,89
 426 -22 426 -22 386.5 -19 c 128,-1,90
 347 -16 347 -16 312.5 -12 c 128,-1,91
 278 -8 278 -8 256 -3 c 1,67,68
264 583 m 2,92,93
 264 520 264 520 277 468.5 c 128,-1,94
 290 417 290 417 313.5 380.5 c 128,-1,95
 337 344 337 344 370 323.5 c 128,-1,96
 403 303 403 303 442 303 c 0,97,98
 502 303 502 303 537.5 345 c 128,-1,99
 573 387 573 387 573 462 c 0,100,101
 573 513 573 513 558.5 568.5 c 128,-1,102
 544 624 544 624 520 670 c 0,103,104
 500 709 500 709 467 730.5 c 128,-1,105
 434 752 434 752 394 752 c 0,106,107
 334 752 334 752 299 709 c 128,-1,108
 264 666 264 666 264 588 c 2,109,-1
 264 583 l 2,92,93
EndSplineSet
EndChar

StartChar: h
Encoding: 104 104 66
Width: 870
Flags: W
LayerCount: 2
Fore
SplineSet
274 178 m 2,0,1
 274 133 274 133 278 105 c 128,-1,2
 282 77 282 77 295 61 c 128,-1,3
 308 45 308 45 331 37.5 c 128,-1,4
 354 30 354 30 392 26 c 1,5,-1
 392 0 l 1,6,-1
 15 0 l 1,7,-1
 15 26 l 1,8,9
 52 31 52 31 74.5 38 c 128,-1,10
 97 45 97 45 108.5 60.5 c 128,-1,11
 120 76 120 76 123.5 104 c 128,-1,12
 127 132 127 132 127 178 c 2,13,-1
 127 998 l 2,14,15
 127 1026 127 1026 123.5 1043.5 c 128,-1,16
 120 1061 120 1061 110.5 1070.5 c 128,-1,17
 101 1080 101 1080 83.5 1083 c 128,-1,18
 66 1086 66 1086 38 1086 c 0,19,20
 32 1086 32 1086 27.5 1086 c 128,-1,21
 23 1086 23 1086 17 1085 c 1,22,-1
 17 1113 l 1,23,-1
 65 1126 l 2,24,25
 101 1136 101 1136 128.5 1144 c 128,-1,26
 156 1152 156 1152 179 1159.5 c 128,-1,27
 202 1167 202 1167 222 1174 c 128,-1,28
 242 1181 242 1181 264 1189 c 1,29,-1
 274 1184 l 1,30,-1
 274 654 l 1,31,32
 304 693 304 693 333.5 721 c 128,-1,33
 363 749 363 749 393.5 767 c 128,-1,34
 424 785 424 785 457.5 793 c 128,-1,35
 491 801 491 801 530 801 c 0,36,37
 743 801 743 801 743 524 c 2,38,-1
 743 178 l 2,39,40
 743 133 743 133 746 106 c 128,-1,41
 749 79 749 79 760 63.5 c 128,-1,42
 771 48 771 48 791.5 40 c 128,-1,43
 812 32 812 32 847 26 c 1,44,-1
 847 0 l 1,45,-1
 479 0 l 1,46,-1
 479 26 l 1,47,48
 517 30 517 30 540 37.5 c 128,-1,49
 563 45 563 45 576 61.5 c 128,-1,50
 589 78 589 78 593 105.5 c 128,-1,51
 597 133 597 133 597 178 c 2,52,-1
 597 522 l 2,53,54
 597 706 597 706 467 706 c 0,55,56
 441 706 441 706 418 700 c 128,-1,57
 395 694 395 694 372 681.5 c 128,-1,58
 349 669 349 669 325 648 c 128,-1,59
 301 627 301 627 274 597 c 1,60,-1
 274 178 l 2,0,1
EndSplineSet
EndChar

StartChar: i
Encoding: 105 105 67
Width: 484
Flags: W
LayerCount: 2
Fore
SplineSet
312 796 m 1,0,-1
 312 178 l 2,1,2
 312 131 312 131 316 102.5 c 128,-1,3
 320 74 320 74 333.5 58 c 128,-1,4
 347 42 347 42 372 35.5 c 128,-1,5
 397 29 397 29 440 26 c 1,6,-1
 440 0 l 1,7,-1
 28 0 l 1,8,-1
 28 26 l 1,9,10
 73 29 73 29 100 35.5 c 128,-1,11
 127 42 127 42 142 57.5 c 128,-1,12
 157 73 157 73 161.5 101.5 c 128,-1,13
 166 130 166 130 166 178 c 2,14,-1
 166 581 l 2,15,16
 166 639 166 639 153 662.5 c 128,-1,17
 140 686 140 686 108 686 c 0,18,19
 97 685 97 685 81 684 c 128,-1,20
 65 683 65 683 48 681 c 2,21,-1
 35 679 l 1,22,-1
 35 705 l 1,23,-1
 304 801 l 1,24,-1
 312 796 l 1,0,-1
223 1189 m 0,25,26
 242 1189 242 1189 258.5 1182 c 128,-1,27
 275 1175 275 1175 287.5 1163 c 128,-1,28
 300 1151 300 1151 307 1134.5 c 128,-1,29
 314 1118 314 1118 314 1100 c 0,30,31
 314 1081 314 1081 307 1065 c 128,-1,32
 300 1049 300 1049 287.5 1037 c 128,-1,33
 275 1025 275 1025 258.5 1018 c 128,-1,34
 242 1011 242 1011 223 1011 c 0,35,36
 186 1011 186 1011 161 1037 c 128,-1,37
 136 1063 136 1063 136 1100 c 0,38,39
 136 1118 136 1118 143 1134.5 c 128,-1,40
 150 1151 150 1151 162 1163 c 128,-1,41
 174 1175 174 1175 189.5 1182 c 128,-1,42
 205 1189 205 1189 223 1189 c 0,25,26
EndSplineSet
EndChar

StartChar: j
Encoding: 106 106 68
Width: 484
Flags: W
LayerCount: 2
Fore
SplineSet
336 0 m 2,0,1
 336 -188 336 -188 262 -283.5 c 128,-1,2
 188 -379 188 -379 42 -379 c 0,3,4
 7 -379 7 -379 -23 -372 c 128,-1,5
 -53 -365 -53 -365 -75 -352 c 128,-1,6
 -97 -339 -97 -339 -109.5 -322 c 128,-1,7
 -122 -305 -122 -305 -122 -284 c 0,8,9
 -122 -255 -122 -255 -101 -235.5 c 128,-1,10
 -80 -216 -80 -216 -50 -216 c 0,11,12
 -29 -216 -29 -216 -10.5 -228.5 c 128,-1,13
 8 -241 8 -241 33 -271 c 0,14,15
 56 -299 56 -299 71 -309.5 c 128,-1,16
 86 -320 86 -320 106 -320 c 0,17,18
 123 -320 123 -320 140.5 -311 c 128,-1,19
 158 -302 158 -302 166 -289 c 0,20,21
 173 -276 173 -276 177.5 -260 c 128,-1,22
 182 -244 182 -244 185 -220 c 128,-1,23
 188 -196 188 -196 189 -162 c 128,-1,24
 190 -128 190 -128 190 -78 c 2,25,-1
 190 581 l 2,26,27
 190 638 190 638 177 662 c 128,-1,28
 164 686 164 686 134 686 c 0,29,30
 120 686 120 686 102 684.5 c 128,-1,31
 84 683 84 683 65 681 c 2,32,-1
 56 679 l 1,33,-1
 56 706 l 1,34,35
 94 718 94 718 127 728.5 c 128,-1,36
 160 739 160 739 191.5 750.5 c 128,-1,37
 223 762 223 762 255.5 774 c 128,-1,38
 288 786 288 786 327 801 c 1,39,-1
 336 796 l 1,40,-1
 336 0 l 2,0,1
247 1189 m 0,41,42
 266 1189 266 1189 282.5 1182 c 128,-1,43
 299 1175 299 1175 311 1163 c 128,-1,44
 323 1151 323 1151 330 1134.5 c 128,-1,45
 337 1118 337 1118 337 1100 c 0,46,47
 337 1062 337 1062 311 1036.5 c 128,-1,48
 285 1011 285 1011 247 1011 c 0,49,50
 210 1011 210 1011 185 1037 c 128,-1,51
 160 1063 160 1063 160 1100 c 0,52,53
 160 1118 160 1118 167 1134.5 c 128,-1,54
 174 1151 174 1151 186 1163 c 128,-1,55
 198 1175 198 1175 214 1182 c 128,-1,56
 230 1189 230 1189 247 1189 c 0,41,42
EndSplineSet
EndChar

StartChar: k
Encoding: 107 107 69
Width: 870
Flags: W
LayerCount: 2
Fore
SplineSet
12 1113 m 1,0,-1
 65 1126 l 2,1,2
 103 1135 103 1135 132.5 1143 c 128,-1,3
 162 1151 162 1151 187 1158.5 c 128,-1,4
 212 1166 212 1166 234.5 1173.5 c 128,-1,5
 257 1181 257 1181 282 1189 c 1,6,-1
 289 1186 l 1,7,-1
 289 455 l 1,8,-1
 528 666 l 2,9,10
 546 683 546 683 557 699 c 128,-1,11
 568 715 568 715 568 726 c 0,12,13
 568 745 568 745 549.5 751 c 128,-1,14
 531 757 531 757 480 759 c 1,15,-1
 480 784 l 1,16,-1
 836 784 l 1,17,-1
 836 757 l 1,18,-1
 822 757 l 2,19,20
 777 757 777 757 741 747 c 0,21,22
 721 741 721 741 692.5 724 c 128,-1,23
 664 707 664 707 628 680 c 128,-1,24
 592 653 592 653 549.5 617 c 128,-1,25
 507 581 507 581 460 538 c 2,26,-1
 409 491 l 1,27,-1
 676 153 l 2,28,29
 703 120 703 120 727.5 96.5 c 128,-1,30
 752 73 752 73 776 58 c 128,-1,31
 800 43 800 43 825 35.5 c 128,-1,32
 850 28 850 28 879 26 c 1,33,-1
 879 0 l 1,34,-1
 500 0 l 1,35,-1
 500 26 l 1,36,-1
 533 26 l 2,37,38
 548 26 548 26 558.5 33.5 c 128,-1,39
 569 41 569 41 569 52 c 0,40,41
 569 59 569 59 565 67 c 128,-1,42
 561 75 561 75 550 88 c 0,43,44
 540 98 540 98 538 105 c 2,45,-1
 289 437 l 1,46,-1
 289 116 l 2,47,48
 289 70 289 70 310 50.5 c 128,-1,49
 331 31 331 31 385 28 c 2,50,-1
 420 26 l 1,51,-1
 420 0 l 1,52,-1
 12 0 l 1,53,-1
 12 26 l 1,54,55
 59 34 59 34 85.5 40.5 c 128,-1,56
 112 47 112 47 124.5 58.5 c 128,-1,57
 137 70 137 70 140 89.5 c 128,-1,58
 143 109 143 109 143 143 c 2,59,-1
 143 982 l 2,60,61
 143 1013 143 1013 139.5 1033.5 c 128,-1,62
 136 1054 136 1054 127 1066 c 128,-1,63
 118 1078 118 1078 103.5 1083 c 128,-1,64
 89 1088 89 1088 68 1088 c 0,65,66
 54 1088 54 1088 41.5 1087 c 128,-1,67
 29 1086 29 1086 12 1085 c 1,68,-1
 12 1113 l 1,0,-1
EndSplineSet
EndChar

StartChar: l
Encoding: 108 108 70
Width: 484
Flags: W
LayerCount: 2
Fore
SplineSet
33 1113 m 1,0,1
 78 1124 78 1124 114 1133 c 128,-1,2
 150 1142 150 1142 182.5 1151 c 128,-1,3
 215 1160 215 1160 245.5 1169 c 128,-1,4
 276 1178 276 1178 310 1189 c 1,5,-1
 317 1186 l 1,6,-1
 317 146 l 2,7,8
 317 110 317 110 322 87.5 c 128,-1,9
 327 65 327 65 341 52.5 c 128,-1,10
 355 40 355 40 380.5 34.5 c 128,-1,11
 406 29 406 29 447 26 c 1,12,-1
 447 0 l 1,13,-1
 37 0 l 1,14,-1
 37 26 l 1,15,16
 78 29 78 29 104 36 c 128,-1,17
 130 43 130 43 145 57 c 128,-1,18
 160 71 160 71 165.5 93.5 c 128,-1,19
 171 116 171 116 171 151 c 2,20,-1
 171 982 l 2,21,22
 171 1043 171 1043 155 1065.5 c 128,-1,23
 139 1088 139 1088 98 1088 c 0,24,25
 87 1088 87 1088 72.5 1087 c 128,-1,26
 58 1086 58 1086 43 1085 c 2,27,-1
 33 1085 l 1,28,-1
 33 1113 l 1,0,1
EndSplineSet
EndChar

StartChar: m
Encoding: 109 109 71
Width: 1354
Flags: W
LayerCount: 2
Fore
SplineSet
33 722 m 1,0,1
 69 732 69 732 99 741 c 128,-1,2
 129 750 129 750 157.5 759.5 c 128,-1,3
 186 769 186 769 215 779 c 128,-1,4
 244 789 244 789 277 801 c 1,5,-1
 289 797 l 1,6,-1
 289 666 l 1,7,8
 343 707 343 707 381 733.5 c 128,-1,9
 419 760 419 760 449 775 c 128,-1,10
 479 790 479 790 504 795.5 c 128,-1,11
 529 801 529 801 558 801 c 0,12,13
 630 801 630 801 675 765 c 128,-1,14
 720 729 720 729 743 654 c 1,15,16
 814 731 814 731 882.5 766 c 128,-1,17
 951 801 951 801 1027 801 c 0,18,19
 1229 801 1229 801 1229 491 c 2,20,-1
 1229 133 l 2,21,22
 1229 80 1229 80 1247 56.5 c 128,-1,23
 1265 33 1265 33 1304 30 c 2,24,-1
 1349 26 l 1,25,-1
 1349 0 l 1,26,-1
 968 0 l 1,27,-1
 968 26 l 1,28,29
 1005 30 1005 30 1028 36.5 c 128,-1,30
 1051 43 1051 43 1063 56 c 128,-1,31
 1075 69 1075 69 1079 91.5 c 128,-1,32
 1083 114 1083 114 1083 151 c 2,33,-1
 1083 518 l 2,34,35
 1083 572 1083 572 1076.5 609 c 128,-1,36
 1070 646 1070 646 1054.5 668.5 c 128,-1,37
 1039 691 1039 691 1014 701 c 128,-1,38
 989 711 989 711 952 711 c 0,39,40
 892 711 892 711 846.5 686 c 128,-1,41
 801 661 801 661 762 604 c 1,42,-1
 762 166 l 2,43,44
 762 125 762 125 767.5 98.5 c 128,-1,45
 773 72 773 72 787.5 56 c 128,-1,46
 802 40 802 40 826 33.5 c 128,-1,47
 850 27 850 27 887 26 c 1,48,-1
 887 0 l 1,49,-1
 498 0 l 1,50,-1
 498 26 l 1,51,52
 535 29 535 29 558 34.5 c 128,-1,53
 581 40 581 40 594 53.5 c 128,-1,54
 607 67 607 67 611.5 89.5 c 128,-1,55
 616 112 616 112 616 150 c 2,56,-1
 616 528 l 2,57,58
 616 711 616 711 501 711 c 0,59,60
 478 711 478 711 453.5 705.5 c 128,-1,61
 429 700 429 700 405 691 c 128,-1,62
 381 682 381 682 359.5 669 c 128,-1,63
 338 656 338 656 322 641 c 0,64,65
 312 632 312 632 304 621 c 128,-1,66
 296 610 296 610 296 608 c 2,67,-1
 296 116 l 2,68,69
 296 91 296 91 301.5 74 c 128,-1,70
 307 57 307 57 320.5 47 c 128,-1,71
 334 37 334 37 356.5 32 c 128,-1,72
 379 27 379 27 414 26 c 1,73,-1
 414 0 l 1,74,-1
 28 0 l 1,75,-1
 28 26 l 1,76,77
 64 27 64 27 88 33 c 128,-1,78
 112 39 112 39 125.5 53 c 128,-1,79
 139 67 139 67 144.5 90 c 128,-1,80
 150 113 150 113 150 148 c 2,81,-1
 150 588 l 2,82,83
 150 651 150 651 136.5 675.5 c 128,-1,84
 123 700 123 700 88 700 c 0,85,86
 74 700 74 700 62 698.5 c 128,-1,87
 50 697 50 697 33 693 c 1,88,-1
 33 722 l 1,0,1
EndSplineSet
EndChar

StartChar: n
Encoding: 110 110 72
Width: 870
Flags: W
LayerCount: 2
Fore
SplineSet
28 722 m 1,0,1
 64 733 64 733 94 742 c 128,-1,2
 124 751 124 751 152 760 c 128,-1,3
 180 769 180 769 208 779 c 128,-1,4
 236 789 236 789 268 801 c 1,5,-1
 280 797 l 1,6,-1
 280 660 l 1,7,8
 325 702 325 702 358.5 729 c 128,-1,9
 392 756 392 756 420.5 772 c 128,-1,10
 449 788 449 788 476 794.5 c 128,-1,11
 503 801 503 801 533 801 c 0,12,13
 630 801 630 801 684 733 c 128,-1,14
 738 665 738 665 738 540 c 2,15,-1
 738 141 l 2,16,17
 738 109 738 109 742.5 88.5 c 128,-1,18
 747 68 747 68 759 55 c 128,-1,19
 771 42 771 42 791.5 35.5 c 128,-1,20
 812 29 812 29 844 26 c 1,21,-1
 844 0 l 1,22,-1
 482 0 l 1,23,-1
 482 26 l 1,24,25
 515 29 515 29 536 36.5 c 128,-1,26
 557 44 557 44 569.5 60.5 c 128,-1,27
 582 77 582 77 587 104 c 128,-1,28
 592 131 592 131 592 173 c 2,29,-1
 592 536 l 2,30,31
 592 624 592 624 560.5 664.5 c 128,-1,32
 529 705 529 705 465 705 c 0,33,34
 443 705 443 705 424 700.5 c 128,-1,35
 405 696 405 696 385 684.5 c 128,-1,36
 365 673 365 673 341 654 c 128,-1,37
 317 635 317 635 286 606 c 1,38,-1
 286 116 l 2,39,40
 286 93 286 93 291.5 77 c 128,-1,41
 297 61 297 61 310 50.5 c 128,-1,42
 323 40 323 40 345 34.5 c 128,-1,43
 367 29 367 29 400 26 c 1,44,-1
 400 0 l 1,45,-1
 31 0 l 1,46,-1
 31 26 l 1,47,48
 64 29 64 29 85 35.5 c 128,-1,49
 106 42 106 42 118 56.5 c 128,-1,50
 130 71 130 71 134.5 94.5 c 128,-1,51
 139 118 139 118 139 156 c 2,52,-1
 139 588 l 2,53,54
 139 652 139 652 125 676 c 128,-1,55
 111 700 111 700 75 700 c 0,56,57
 61 700 61 700 48.5 698.5 c 128,-1,58
 36 697 36 697 28 693 c 1,59,-1
 28 722 l 1,0,1
EndSplineSet
EndChar

StartChar: o
Encoding: 111 111 73
Width: 870
Flags: W
LayerCount: 2
Fore
SplineSet
435 801 m 0,0,1
 519 801 519 801 589.5 771.5 c 128,-1,2
 660 742 660 742 711 689.5 c 128,-1,3
 762 637 762 637 790.5 564.5 c 128,-1,4
 819 492 819 492 819 407 c 0,5,6
 819 317 819 317 789.5 239.5 c 128,-1,7
 760 162 760 162 708 105 c 128,-1,8
 656 48 656 48 585 15.5 c 128,-1,9
 514 -17 514 -17 432 -17 c 0,10,11
 349 -17 349 -17 279 14 c 128,-1,12
 209 45 209 45 158 100 c 128,-1,13
 107 155 107 155 78.5 230 c 128,-1,14
 50 305 50 305 50 394 c 0,15,16
 50 484 50 484 78.5 558.5 c 128,-1,17
 107 633 107 633 158 687 c 128,-1,18
 209 741 209 741 279.5 771 c 128,-1,19
 350 801 350 801 435 801 c 0,0,1
412 752 m 0,20,21
 365 752 365 752 327.5 732.5 c 128,-1,22
 290 713 290 713 263 677.5 c 128,-1,23
 236 642 236 642 221.5 591.5 c 128,-1,24
 207 541 207 541 207 479 c 0,25,26
 207 398 207 398 222 317.5 c 128,-1,27
 237 237 237 237 268 173.5 c 128,-1,28
 299 110 299 110 344.5 70.5 c 128,-1,29
 390 31 390 31 452 31 c 0,30,31
 501 31 501 31 540 52.5 c 128,-1,32
 579 74 579 74 606 115 c 128,-1,33
 633 156 633 156 647 214.5 c 128,-1,34
 661 273 661 273 661 347 c 0,35,36
 661 436 661 436 642.5 510.5 c 128,-1,37
 624 585 624 585 591 638.5 c 128,-1,38
 558 692 558 692 512.5 722 c 128,-1,39
 467 752 467 752 412 752 c 0,20,21
EndSplineSet
EndChar

StartChar: p
Encoding: 112 112 74
Width: 870
Flags: W
LayerCount: 2
Fore
SplineSet
15 712 m 1,0,1
 51 723 51 723 81.5 733 c 128,-1,2
 112 743 112 743 141.5 753.5 c 128,-1,3
 171 764 171 764 201 775.5 c 128,-1,4
 231 787 231 787 266 801 c 1,5,-1
 277 797 l 1,6,-1
 277 663 l 1,7,8
 335 735 335 735 394 768 c 128,-1,9
 453 801 453 801 528 801 c 0,10,11
 591 801 591 801 644.5 773.5 c 128,-1,12
 698 746 698 746 736.5 696.5 c 128,-1,13
 775 647 775 647 797 579 c 128,-1,14
 819 511 819 511 819 430 c 0,15,16
 819 335 819 335 790.5 253.5 c 128,-1,17
 762 172 762 172 712.5 112 c 128,-1,18
 663 52 663 52 596 17.5 c 128,-1,19
 529 -17 529 -17 452 -17 c 0,20,21
 425 -17 425 -17 402.5 -13.5 c 128,-1,22
 380 -10 380 -10 359.5 -1.5 c 128,-1,23
 339 7 339 7 319 21.5 c 128,-1,24
 299 36 299 36 277 58 c 1,25,-1
 277 -216 l 2,26,27
 277 -257 277 -257 282.5 -282.5 c 128,-1,28
 288 -308 288 -308 304.5 -322 c 128,-1,29
 321 -336 321 -336 351 -341 c 128,-1,30
 381 -346 381 -346 430 -347 c 1,31,-1
 430 -377 l 1,32,-1
 8 -377 l 1,33,-1
 8 -349 l 1,34,35
 47 -345 47 -345 71 -338 c 128,-1,36
 95 -331 95 -331 108.5 -318 c 128,-1,37
 122 -305 122 -305 126.5 -283.5 c 128,-1,38
 131 -262 131 -262 131 -228 c 2,39,-1
 131 586 l 2,40,41
 131 622 131 622 127 642 c 128,-1,42
 123 662 123 662 112.5 672 c 128,-1,43
 102 682 102 682 82 684 c 128,-1,44
 62 686 62 686 31 686 c 0,45,46
 27 686 27 686 23 686 c 128,-1,47
 19 686 19 686 15 684 c 1,48,-1
 15 712 l 1,0,1
277 153 m 2,49,50
 277 133 277 133 293.5 113 c 128,-1,51
 310 93 310 93 336.5 76 c 128,-1,52
 363 59 363 59 395 48.5 c 128,-1,53
 427 38 427 38 458 38 c 0,54,55
 505 38 505 38 543.5 61.5 c 128,-1,56
 582 85 582 85 610 127.5 c 128,-1,57
 638 170 638 170 653 230 c 128,-1,58
 668 290 668 290 668 362 c 0,59,60
 668 438 668 438 652.5 499.5 c 128,-1,61
 637 561 637 561 609.5 604.5 c 128,-1,62
 582 648 582 648 542.5 672 c 128,-1,63
 503 696 503 696 455 696 c 0,64,65
 425 696 425 696 393 685.5 c 128,-1,66
 361 675 361 675 335.5 658 c 128,-1,67
 310 641 310 641 293.5 620.5 c 128,-1,68
 277 600 277 600 277 581 c 2,69,-1
 277 153 l 2,49,50
EndSplineSet
EndChar

StartChar: q
Encoding: 113 113 75
Width: 870
Flags: W
LayerCount: 2
Fore
SplineSet
721 796 m 1,0,-1
 739 796 l 1,1,-1
 739 -246 l 2,2,3
 739 -273 739 -273 743 -290.5 c 128,-1,4
 747 -308 747 -308 758.5 -319.5 c 128,-1,5
 770 -331 770 -331 791.5 -338.5 c 128,-1,6
 813 -346 813 -346 849 -354 c 1,7,-1
 849 -377 l 1,8,-1
 439 -377 l 1,9,-1
 439 -349 l 1,10,11
 485 -345 485 -345 515 -337.5 c 128,-1,12
 545 -330 545 -330 562.5 -315.5 c 128,-1,13
 580 -301 580 -301 586.5 -277 c 128,-1,14
 593 -253 593 -253 593 -216 c 2,15,-1
 593 111 l 1,16,17
 536 48 536 48 467 15.5 c 128,-1,18
 398 -17 398 -17 320 -17 c 0,19,20
 258 -17 258 -17 207 10.5 c 128,-1,21
 156 38 156 38 119.5 87.5 c 128,-1,22
 83 137 83 137 62.5 205.5 c 128,-1,23
 42 274 42 274 42 357 c 0,24,25
 42 451 42 451 71.5 532.5 c 128,-1,26
 101 614 101 614 152.5 674 c 128,-1,27
 204 734 204 734 274.5 768 c 128,-1,28
 345 802 345 802 427 802 c 0,29,30
 452 802 452 802 475.5 799 c 128,-1,31
 499 796 499 796 522.5 788.5 c 128,-1,32
 546 781 546 781 571 769 c 128,-1,33
 596 757 596 757 626 739 c 1,34,-1
 721 796 l 1,0,-1
593 580 m 2,35,36
 593 754 593 754 432 754 c 0,37,38
 376 754 376 754 331.5 730.5 c 128,-1,39
 287 707 287 707 256 663.5 c 128,-1,40
 225 620 225 620 208 558 c 128,-1,41
 191 496 191 496 191 420 c 256,42,43
 191 344 191 344 207 283 c 128,-1,44
 223 222 223 222 253 178.5 c 128,-1,45
 283 135 283 135 325 111.5 c 128,-1,46
 367 88 367 88 420 88 c 0,47,48
 460 88 460 88 499 103 c 128,-1,49
 538 118 538 118 569 143 c 0,50,51
 582 153 582 153 587.5 170.5 c 128,-1,52
 593 188 593 188 593 221 c 2,53,-1
 593 580 l 2,35,36
EndSplineSet
EndChar

StartChar: r
Encoding: 114 114 76
Width: 580
Flags: W
LayerCount: 2
Fore
SplineSet
12 706 m 1,0,1
 51 718 51 718 83 728.5 c 128,-1,2
 115 739 115 739 145 750.5 c 128,-1,3
 175 762 175 762 205 774 c 128,-1,4
 235 786 235 786 269 801 c 1,5,-1
 279 797 l 1,6,-1
 279 637 l 1,7,8
 311 683 311 683 337.5 714.5 c 128,-1,9
 364 746 364 746 388 765 c 128,-1,10
 412 784 412 784 436 792.5 c 128,-1,11
 460 801 460 801 487 801 c 0,12,13
 532 801 532 801 557.5 776.5 c 128,-1,14
 583 752 583 752 583 709 c 0,15,16
 583 672 583 672 565 651 c 128,-1,17
 547 630 547 630 515 630 c 0,18,19
 498 630 498 630 481.5 638 c 128,-1,20
 465 646 465 646 445 665 c 0,21,22
 431 678 431 678 421 684.5 c 128,-1,23
 411 691 411 691 400 691 c 0,24,25
 383 691 383 691 362 676.5 c 128,-1,26
 341 662 341 662 322.5 640.5 c 128,-1,27
 304 619 304 619 291.5 594 c 128,-1,28
 279 569 279 569 279 548 c 2,29,-1
 279 156 l 2,30,31
 279 119 279 119 285.5 95 c 128,-1,32
 292 71 292 71 308.5 56 c 128,-1,33
 325 41 325 41 353.5 34.5 c 128,-1,34
 382 28 382 28 427 26 c 1,35,-1
 427 0 l 1,36,-1
 8 0 l 1,37,-1
 8 26 l 1,38,39
 50 34 50 34 75 41.5 c 128,-1,40
 100 49 100 49 112.5 61.5 c 128,-1,41
 125 74 125 74 129 93.5 c 128,-1,42
 133 113 133 113 133 146 c 2,43,-1
 133 581 l 2,44,45
 133 639 133 639 119 662.5 c 128,-1,46
 105 686 105 686 73 686 c 0,47,48
 57 686 57 686 44 684.5 c 128,-1,49
 31 683 31 683 12 679 c 1,50,-1
 12 706 l 1,0,1
EndSplineSet
EndChar

StartChar: s
Encoding: 115 115 77
Width: 677
Flags: W
LayerCount: 2
Fore
SplineSet
522 547 m 1,0,1
 507 605 507 605 489 645.5 c 128,-1,2
 471 686 471 686 448.5 711.5 c 128,-1,3
 426 737 426 737 397 749 c 128,-1,4
 368 761 368 761 331 761 c 0,5,6
 271 761 271 761 233.5 728 c 128,-1,7
 196 695 196 695 196 643 c 0,8,9
 196 607 196 607 215.5 576 c 128,-1,10
 235 545 235 545 271 524 c 2,11,-1
 460 412 l 2,12,13
 537 366 537 366 571.5 318 c 128,-1,14
 606 270 606 270 606 206 c 0,15,16
 606 160 606 160 586.5 119.5 c 128,-1,17
 567 79 567 79 533.5 48.5 c 128,-1,18
 500 18 500 18 455.5 0.5 c 128,-1,19
 411 -17 411 -17 360 -17 c 0,20,21
 341 -17 341 -17 310 -12 c 128,-1,22
 279 -7 279 -7 247.5 -1.5 c 128,-1,23
 216 4 216 4 189.5 9 c 128,-1,24
 163 14 163 14 153 14 c 0,25,26
 138 14 138 14 130 10 c 128,-1,27
 122 6 122 6 113 -7 c 1,28,-1
 90 -7 l 1,29,-1
 90 264 l 1,30,-1
 118 264 l 1,31,32
 127 227 127 227 134.5 200 c 128,-1,33
 142 173 142 173 150.5 152 c 128,-1,34
 159 131 159 131 169 114.5 c 128,-1,35
 179 98 179 98 193 82 c 0,36,37
 218 53 218 53 256 37 c 128,-1,38
 294 21 294 21 339 21 c 0,39,40
 406 21 406 21 445 55 c 128,-1,41
 484 89 484 89 484 146 c 0,42,43
 484 226 484 226 394 277 c 2,44,-1
 292 334 l 2,45,46
 236 365 236 365 197 394.5 c 128,-1,47
 158 424 158 424 134 454 c 128,-1,48
 110 484 110 484 99 516 c 128,-1,49
 88 548 88 548 88 585 c 0,50,51
 88 632 88 632 106 671.5 c 128,-1,52
 124 711 124 711 155.5 739.5 c 128,-1,53
 187 768 187 768 230.5 783.5 c 128,-1,54
 274 799 274 799 326 799 c 0,55,56
 359 799 359 799 388.5 794 c 128,-1,57
 418 789 418 789 447 778 c 0,58,59
 461 773 461 773 472.5 769.5 c 128,-1,60
 484 766 484 766 492 766 c 256,61,62
 500 766 500 766 502.5 767.5 c 128,-1,63
 505 769 505 769 518 780 c 2,64,-1
 522 784 l 1,65,-1
 541 784 l 1,66,-1
 541 547 l 1,67,-1
 522 547 l 1,0,1
EndSplineSet
EndChar

StartChar: t
Encoding: 116 116 78
Width: 484
Flags: W
LayerCount: 2
Fore
SplineSet
444 728 m 1,0,-1
 268 728 l 1,1,-1
 268 229 l 2,2,3
 268 147 268 147 289 110 c 128,-1,4
 310 73 310 73 359 73 c 0,5,6
 388 73 388 73 412 87 c 128,-1,7
 436 101 436 101 463 134 c 1,8,-1
 485 115 l 1,9,10
 442 46 442 46 391.5 14.5 c 128,-1,11
 341 -17 341 -17 277 -17 c 0,12,13
 122 -17 122 -17 122 204 c 2,14,-1
 122 728 l 1,15,-1
 30 728 l 1,16,17
 23 732 23 732 23 739 c 0,18,19
 23 755 23 755 52 773 c 0,20,21
 62 776 62 776 80.5 792 c 128,-1,22
 99 808 99 808 122 833 c 128,-1,23
 145 858 145 858 170.5 890.5 c 128,-1,24
 196 923 196 923 221 959 c 0,25,26
 231 973 231 973 238.5 984.5 c 128,-1,27
 246 996 246 996 256 1008 c 1,28,29
 264 1008 264 1008 266 1003.5 c 128,-1,30
 268 999 268 999 268 985 c 2,31,-1
 268 784 l 1,32,-1
 444 784 l 1,33,-1
 444 728 l 1,0,-1
EndSplineSet
EndChar

StartChar: u
Encoding: 117 117 79
Width: 870
Flags: W
LayerCount: 2
Fore
SplineSet
834 63 m 1,0,1
 801 54 801 54 771.5 45.5 c 128,-1,2
 742 37 742 37 714 28 c 128,-1,3
 686 19 686 19 657 8.5 c 128,-1,4
 628 -2 628 -2 595 -15 c 1,5,-1
 588 -12 l 1,6,-1
 588 133 l 1,7,-1
 513 58 l 2,8,9
 476 21 476 21 429.5 2 c 128,-1,10
 383 -17 383 -17 334 -17 c 0,11,12
 286 -17 286 -17 247.5 -1 c 128,-1,13
 209 15 209 15 181 44.5 c 128,-1,14
 153 74 153 74 138 115.5 c 128,-1,15
 123 157 123 157 123 209 c 2,16,-1
 123 648 l 2,17,18
 123 678 123 678 118 698.5 c 128,-1,19
 113 719 113 719 100.5 731.5 c 128,-1,20
 88 744 88 744 67 750.5 c 128,-1,21
 46 757 46 757 15 759 c 1,22,-1
 15 784 l 1,23,-1
 269 784 l 1,24,-1
 269 216 l 2,25,26
 269 189 269 189 279 164.5 c 128,-1,27
 289 140 289 140 306 122 c 128,-1,28
 323 104 323 104 345.5 93.5 c 128,-1,29
 368 83 368 83 394 83 c 0,30,31
 473 83 473 83 547 143 c 0,32,33
 565 157 565 157 572.5 177.5 c 128,-1,34
 580 198 580 198 580 235 c 2,35,-1
 580 644 l 2,36,37
 580 677 580 677 575 697.5 c 128,-1,38
 570 718 570 718 555.5 730 c 128,-1,39
 541 742 541 742 515.5 747 c 128,-1,40
 490 752 490 752 450 754 c 1,41,-1
 450 784 l 1,42,-1
 726 784 l 1,43,-1
 726 186 l 2,44,45
 726 156 726 156 730 137 c 128,-1,46
 734 118 734 118 745.5 106.5 c 128,-1,47
 757 95 757 95 776 91 c 128,-1,48
 795 87 795 87 825 87 c 2,49,-1
 834 87 l 1,50,-1
 834 63 l 1,0,1
EndSplineSet
EndChar

StartChar: v
Encoding: 118 118 80
Width: 870
Flags: W
LayerCount: 2
Fore
SplineSet
830 757 m 1,0,1
 811 755 811 755 798 750 c 128,-1,2
 785 745 785 745 773.5 731 c 128,-1,3
 762 717 762 717 749 691 c 128,-1,4
 736 665 736 665 717 621 c 2,5,-1
 495 63 l 2,6,7
 475 12 475 12 464 -6.5 c 128,-1,8
 453 -25 453 -25 445 -25 c 0,9,10
 434 -25 434 -25 424 -3 c 128,-1,11
 414 19 414 19 400 58 c 2,12,-1
 191 557 l 2,13,14
 161 624 161 624 142 663.5 c 128,-1,15
 123 703 123 703 107 723 c 128,-1,16
 91 743 91 743 74.5 749.5 c 128,-1,17
 58 756 58 756 33 757 c 1,18,-1
 33 784 l 1,19,-1
 374 784 l 1,20,-1
 374 757 l 1,21,22
 329 753 329 753 311.5 742.5 c 128,-1,23
 294 732 294 732 294 709 c 0,24,25
 294 697 294 697 298 679.5 c 128,-1,26
 302 662 302 662 310 644 c 2,27,-1
 487 198 l 1,28,-1
 660 649 l 2,29,30
 670 675 670 675 670 701 c 0,31,32
 670 750 670 750 588 757 c 1,33,-1
 588 784 l 1,34,-1
 830 784 l 1,35,-1
 830 757 l 1,0,1
EndSplineSet
EndChar

StartChar: w
Encoding: 119 119 81
Width: 1257
Flags: W
LayerCount: 2
Fore
SplineSet
1208 784 m 1,0,-1
 1208 757 l 1,1,2
 1195 752 1195 752 1186.5 747 c 128,-1,3
 1178 742 1178 742 1171 732.5 c 128,-1,4
 1164 723 1164 723 1156 707 c 128,-1,5
 1148 691 1148 691 1136 663 c 2,6,-1
 897 61 l 2,7,8
 886 35 886 35 879 18 c 128,-1,9
 872 1 872 1 866.5 -8.5 c 128,-1,10
 861 -18 861 -18 857 -21.5 c 128,-1,11
 853 -25 853 -25 847 -25 c 0,12,13
 842 -25 842 -25 838.5 -22.5 c 128,-1,14
 835 -20 835 -20 830.5 -11.5 c 128,-1,15
 826 -3 826 -3 820.5 11.5 c 128,-1,16
 815 26 815 26 806 50 c 2,17,-1
 648 462 l 1,18,-1
 452 43 l 2,19,20
 436 9 436 9 426.5 -8 c 128,-1,21
 417 -25 417 -25 409 -25 c 0,22,23
 394 -25 394 -25 364 52 c 2,24,-1
 129 648 l 2,25,26
 114 681 114 681 103.5 701.5 c 128,-1,27
 93 722 93 722 83 734 c 128,-1,28
 73 746 73 746 62.5 751 c 128,-1,29
 52 756 52 756 37 757 c 1,30,-1
 37 784 l 1,31,-1
 350 784 l 1,32,-1
 350 757 l 1,33,34
 302 751 302 751 285.5 738 c 128,-1,35
 269 725 269 725 269 695 c 0,36,37
 268 683 268 683 271.5 671.5 c 128,-1,38
 275 660 275 660 280 648 c 2,39,-1
 452 193 l 1,40,-1
 611 540 l 1,41,42
 588 606 588 606 572.5 647 c 128,-1,43
 557 688 557 688 541 711.5 c 128,-1,44
 525 735 525 735 505.5 744.5 c 128,-1,45
 486 754 486 754 456 757 c 1,46,-1
 456 784 l 1,47,-1
 809 784 l 1,48,-1
 809 757 l 1,49,50
 779 752 779 752 759.5 747.5 c 128,-1,51
 740 743 740 743 728.5 736 c 128,-1,52
 717 729 717 729 713 719 c 128,-1,53
 709 709 709 709 709 694 c 0,54,55
 709 686 709 686 709.5 680 c 128,-1,56
 710 674 710 674 712.5 664.5 c 128,-1,57
 715 655 715 655 721 638.5 c 128,-1,58
 727 622 727 622 738 592 c 2,59,-1
 884 202 l 1,60,-1
 1041 588 l 2,61,62
 1055 623 1055 623 1063 653 c 128,-1,63
 1071 683 1071 683 1071 703 c 0,64,65
 1071 726 1071 726 1055 737 c 128,-1,66
 1039 748 1039 748 994 757 c 1,67,-1
 994 784 l 1,68,-1
 1208 784 l 1,0,-1
EndSplineSet
EndChar

StartChar: x
Encoding: 120 120 82
Width: 870
Flags: W
LayerCount: 2
Fore
SplineSet
484 26 m 1,0,1
 526 28 526 28 539.5 36.5 c 128,-1,2
 553 45 553 45 553 68 c 0,3,4
 553 83 553 83 543 99 c 2,5,-1
 385 343 l 1,6,-1
 247 129 l 2,7,8
 212 76 212 76 212 58 c 0,9,10
 212 41 212 41 228.5 33.5 c 128,-1,11
 245 26 245 26 282 26 c 1,12,-1
 282 0 l 1,13,-1
 30 0 l 1,14,-1
 30 26 l 1,15,16
 52 28 52 28 67 32 c 128,-1,17
 82 36 82 36 95.5 45 c 128,-1,18
 109 54 109 54 123 71 c 128,-1,19
 137 88 137 88 156 115 c 2,20,-1
 355 402 l 1,21,-1
 191 653 l 2,22,23
 171 683 171 683 155 703 c 128,-1,24
 139 723 139 723 124 735 c 128,-1,25
 109 747 109 747 93 752 c 128,-1,26
 77 757 77 757 58 757 c 2,27,-1
 42 757 l 1,28,-1
 42 784 l 1,29,-1
 402 784 l 1,30,-1
 402 757 l 1,31,32
 363 756 363 756 345 746.5 c 128,-1,33
 327 737 327 737 327 719 c 0,34,35
 327 702 327 702 349 660.5 c 128,-1,36
 371 619 371 619 407 564 c 2,37,-1
 432 530 l 1,38,39
 462 576 462 576 484 606 c 128,-1,40
 506 636 506 636 520 656.5 c 128,-1,41
 534 677 534 677 541 691 c 128,-1,42
 548 705 548 705 548 719 c 0,43,44
 548 737 548 737 533 746 c 128,-1,45
 518 755 518 755 479 757 c 1,46,-1
 479 784 l 1,47,-1
 754 784 l 1,48,-1
 754 757 l 1,49,50
 712 756 712 756 675 736 c 128,-1,51
 638 716 638 716 613 681 c 2,52,-1
 468 472 l 1,53,-1
 691 131 l 2,54,55
 711 102 711 102 728 82 c 128,-1,56
 745 62 745 62 762 49.5 c 128,-1,57
 779 37 779 37 796.5 31.5 c 128,-1,58
 814 26 814 26 834 26 c 1,59,-1
 834 0 l 1,60,-1
 484 0 l 1,61,-1
 484 26 l 1,0,1
EndSplineSet
EndChar

StartChar: y
Encoding: 121 121 83
Width: 870
Flags: W
LayerCount: 2
Fore
SplineSet
827 757 m 1,0,1
 811 755 811 755 799.5 750.5 c 128,-1,2
 788 746 788 746 778.5 737 c 128,-1,3
 769 728 769 728 760.5 714 c 128,-1,4
 752 700 752 700 743 679 c 2,5,-1
 475 -31 l 2,6,7
 440 -125 440 -125 406 -191 c 128,-1,8
 372 -257 372 -257 336.5 -299 c 128,-1,9
 301 -341 301 -341 262.5 -360 c 128,-1,10
 224 -379 224 -379 181 -379 c 0,11,12
 154 -379 154 -379 130 -371.5 c 128,-1,13
 106 -364 106 -364 89 -350.5 c 128,-1,14
 72 -337 72 -337 62 -318.5 c 128,-1,15
 52 -300 52 -300 52 -279 c 0,16,17
 52 -247 52 -247 74.5 -224.5 c 128,-1,18
 97 -202 97 -202 127 -202 c 0,19,20
 148 -202 148 -202 171.5 -206.5 c 128,-1,21
 195 -211 195 -211 219 -221 c 0,22,23
 232 -226 232 -226 242 -229.5 c 128,-1,24
 252 -233 252 -233 260 -233 c 0,25,26
 278 -233 278 -233 304 -213 c 128,-1,27
 330 -193 330 -193 350 -155 c 0,28,29
 361 -137 361 -137 373 -108.5 c 128,-1,30
 385 -80 385 -80 395.5 -51.5 c 128,-1,31
 406 -23 406 -23 413 0.5 c 128,-1,32
 420 24 420 24 420 33 c 0,33,34
 420 53 420 53 400 98 c 128,-1,35
 380 143 380 143 343 209 c 2,36,-1
 317 261 l 1,37,-1
 312 275 l 1,38,-1
 113 703 l 2,39,40
 92 749 92 749 25 759 c 1,41,-1
 25 784 l 1,42,-1
 383 784 l 1,43,-1
 383 757 l 1,44,45
 326 755 326 755 304 744.5 c 128,-1,46
 282 734 282 734 282 711 c 0,47,48
 282 683 282 683 299 644 c 2,49,-1
 500 204 l 1,50,-1
 668 684 l 2,51,52
 671 693 671 693 673.5 700.5 c 128,-1,53
 676 708 676 708 676 714 c 0,54,55
 676 757 676 757 592 757 c 1,56,-1
 592 784 l 1,57,-1
 827 784 l 1,58,-1
 827 757 l 1,0,1
EndSplineSet
EndChar

StartChar: z
Encoding: 122 122 84
Width: 773
Flags: W
LayerCount: 2
Fore
SplineSet
703 0 m 1,0,-1
 47 0 l 1,1,-1
 47 26 l 1,2,-1
 510 731 l 1,3,-1
 269 731 l 2,4,5
 230 731 230 731 205 725 c 128,-1,6
 180 719 180 719 163.5 702 c 128,-1,7
 147 685 147 685 138 655.5 c 128,-1,8
 129 626 129 626 123 578 c 1,9,-1
 93 578 l 1,10,-1
 93 784 l 1,11,-1
 701 784 l 1,12,-1
 701 757 l 1,13,-1
 233 52 l 1,14,-1
 473 52 l 2,15,16
 540 52 540 52 584 63.5 c 128,-1,17
 628 75 628 75 646 98 c 0,18,19
 654 108 654 108 660.5 119.5 c 128,-1,20
 667 131 667 131 673 147.5 c 128,-1,21
 679 164 679 164 684.5 186.5 c 128,-1,22
 690 209 690 209 696 242 c 1,23,-1
 728 235 l 1,24,-1
 703 0 l 1,0,-1
EndSplineSet
EndChar

StartChar: braceleft
Encoding: 123 123 85
Width: 836
Flags: W
LayerCount: 2
Fore
SplineSet
609 -315 m 1,0,1
 566 -315 566 -315 534.5 -312.5 c 128,-1,2
 503 -310 503 -310 479 -305 c 128,-1,3
 455 -300 455 -300 436 -291.5 c 128,-1,4
 417 -283 417 -283 399 -271 c 0,5,6
 362 -247 362 -247 342 -196.5 c 128,-1,7
 322 -146 322 -146 322 -71 c 2,8,-1
 322 237 l 2,9,10
 322 282 322 282 315.5 313.5 c 128,-1,11
 309 345 309 345 292 367.5 c 128,-1,12
 275 390 275 390 246.5 405.5 c 128,-1,13
 218 421 218 421 174 435 c 1,14,15
 218 448 218 448 246.5 463.5 c 128,-1,16
 275 479 275 479 292 501 c 128,-1,17
 309 523 309 523 315.5 554.5 c 128,-1,18
 322 586 322 586 322 632 c 2,19,-1
 322 942 l 2,20,21
 322 1013 322 1013 336.5 1059 c 128,-1,22
 351 1105 351 1105 385 1132 c 128,-1,23
 419 1159 419 1159 474 1170.5 c 128,-1,24
 529 1182 529 1182 609 1184 c 1,25,-1
 609 1164 l 1,26,27
 564 1152 564 1152 533.5 1135.5 c 128,-1,28
 503 1119 503 1119 484.5 1094.5 c 128,-1,29
 466 1070 466 1070 458 1034.5 c 128,-1,30
 450 999 450 999 450 950 c 2,31,-1
 450 658 l 2,32,33
 450 604 450 604 443 567 c 128,-1,34
 436 530 436 530 417.5 504.5 c 128,-1,35
 399 479 399 479 367.5 462.5 c 128,-1,36
 336 446 336 446 287 433 c 1,37,38
 336 421 336 421 367.5 405 c 128,-1,39
 399 389 399 389 417.5 364 c 128,-1,40
 436 339 436 339 443 302 c 128,-1,41
 450 265 450 265 450 211 c 2,42,-1
 450 -82 l 2,43,44
 450 -131 450 -131 458 -166 c 128,-1,45
 466 -201 466 -201 484.5 -226 c 128,-1,46
 503 -251 503 -251 533.5 -267.5 c 128,-1,47
 564 -284 564 -284 609 -296 c 1,48,-1
 609 -315 l 1,0,1
EndSplineSet
EndChar

StartChar: bar
Encoding: 124 124 86
Width: 348
Flags: W
LayerCount: 2
Fore
SplineSet
116 1176 m 1,0,-1
 231 1176 l 1,1,-1
 231 -25 l 1,2,-1
 116 -25 l 1,3,-1
 116 1176 l 1,0,-1
EndSplineSet
EndChar

StartChar: asciitilde
Encoding: 126 126 87
Width: 942
Flags: W
LayerCount: 2
Fore
SplineSet
874 472 m 1,0,1
 844 430 844 430 818 401.5 c 128,-1,2
 792 373 792 373 766.5 356 c 128,-1,3
 741 339 741 339 715.5 331.5 c 128,-1,4
 690 324 690 324 660 324 c 256,5,6
 630 324 630 324 607 327 c 128,-1,7
 584 330 584 330 556 340 c 128,-1,8
 528 350 528 350 490.5 368.5 c 128,-1,9
 453 387 453 387 395 418 c 0,10,11
 372 430 372 430 345 436 c 128,-1,12
 318 442 318 442 292 442 c 0,13,14
 272 442 272 442 256 437.5 c 128,-1,15
 240 433 240 433 225 423 c 128,-1,16
 210 413 210 413 195.5 396 c 128,-1,17
 181 379 181 379 164 354 c 1,18,-1
 70 409 l 1,19,20
 100 451 100 451 125.5 479 c 128,-1,21
 151 507 151 507 176.5 524.5 c 128,-1,22
 202 542 202 542 228 549.5 c 128,-1,23
 254 557 254 557 284 557 c 0,24,25
 313 557 313 557 336 554 c 128,-1,26
 359 551 359 551 387 541 c 128,-1,27
 415 531 415 531 452.5 512.5 c 128,-1,28
 490 494 490 494 548 463 c 0,29,30
 571 450 571 450 597.5 444.5 c 128,-1,31
 624 439 624 439 651 439 c 0,32,33
 670 439 670 439 686.5 443 c 128,-1,34
 703 447 703 447 718 457.5 c 128,-1,35
 733 468 733 468 748 485 c 128,-1,36
 763 502 763 502 780 528 c 1,37,-1
 874 472 l 1,0,1
EndSplineSet
EndChar

StartChar: ccedilla
Encoding: 231 231 90
Width: 805
Flags: W
LayerCount: 2
Fore
SplineSet
775 198 m 1,0,-1
 764 142 l 1,1,2
 616 37 616 37 445 -9 c 1,3,-1
 408 -65 l 1,4,5
 481 -86 481 -86 481 -146 c 0,6,7
 481 -197 481 -197 424.5 -240.5 c 128,-1,8
 368 -284 368 -284 301 -284 c 0,9,10
 272 -284 272 -284 232 -277 c 1,11,-1
 287 -201 l 1,12,13
 322 -223 322 -223 348 -223 c 0,14,15
 412 -223 412 -223 412 -172 c 0,16,17
 412 -117 412 -117 311 -111 c 1,18,-1
 376 -19 l 1,19,20
 145 5 145 5 145 228 c 0,21,22
 145 445 145 445 302 622 c 128,-1,23
 459 799 459 799 652 799 c 0,24,25
 736 799 736 799 819 762 c 1,26,-1
 770 578 l 1,27,-1
 725 578 l 1,28,-1
 728 589 l 2,29,30
 735 622 735 622 735 638 c 0,31,32
 735 737 735 737 599 737 c 0,33,34
 475 737 475 737 382.5 595 c 128,-1,35
 290 453 290 453 290 263 c 0,36,37
 290 62 290 62 446 62 c 0,38,39
 563 62 563 62 775 198 c 1,0,-1
EndSplineSet
EndChar

StartChar: icircumflex
Encoding: 238 238 95
Width: 468
Flags: W
LayerCount: 2
Fore
SplineSet
328 0 m 1,0,-1
 140 0 l 1,1,-1
 140 1117 l 1,2,-1
 328 1117 l 1,3,-1
 328 0 l 1,0,-1
521 1297 m 1,4,-1
 370 1297 l 1,5,-1
 231 1560 l 1,6,-1
 93 1297 l 1,7,-1
 -54 1297 l 1,8,-1
 120 1676 l 1,9,-1
 347 1676 l 1,10,-1
 521 1297 l 1,4,-1
EndSplineSet
EndChar

StartChar: idieresis
Encoding: 239 239 96
Width: 468
Flags: W
LayerCount: 2
Fore
SplineSet
328 0 m 1,0,-1
 140 0 l 1,1,-1
 140 1117 l 1,2,-1
 328 1117 l 1,3,-1
 328 0 l 1,0,-1
506 1304 m 1,4,-1
 317 1304 l 1,5,-1
 317 1499 l 1,6,-1
 506 1499 l 1,7,-1
 506 1304 l 1,4,-1
151 1304 m 1,8,-1
 -38 1304 l 1,9,-1
 -38 1499 l 1,10,-1
 151 1499 l 1,11,-1
 151 1304 l 1,8,-1
EndSplineSet
EndChar

StartChar: dagger
Encoding: 8224 8224 101
Width: 932
Flags: W
LayerCount: 2
Fore
SplineSet
347 -231 m 1,0,-1
 567 622 l 1,1,-1
 248 592 l 1,2,-1
 297 700 l 1,3,-1
 576 668 l 1,4,-1
 607 1066 l 1,5,-1
 755 1093 l 1,6,-1
 621 668 l 1,7,-1
 941 700 l 1,8,-1
 895 592 l 1,9,-1
 612 622 l 1,10,-1
 496 -213 l 1,11,-1
 347 -231 l 1,0,-1
EndSplineSet
EndChar

StartChar: degree
Encoding: 176 176 102
Width: 409
Flags: W
LayerCount: 2
Fore
SplineSet
395 844 m 0,0,1
 344 844 344 844 307.5 880 c 128,-1,2
 271 916 271 916 271 968 c 0,3,4
 271 1021 271 1021 307.5 1057 c 128,-1,5
 344 1093 344 1093 395 1093 c 0,6,7
 447 1093 447 1093 483 1057 c 128,-1,8
 519 1021 519 1021 519 968 c 0,9,10
 519 916 519 916 483 880 c 128,-1,11
 447 844 447 844 395 844 c 0,0,1
395 888 m 256,12,13
 427 888 427 888 450.5 912 c 128,-1,14
 474 936 474 936 474 968 c 256,15,16
 474 1000 474 1000 450.5 1024 c 128,-1,17
 427 1048 427 1048 395 1048 c 256,18,19
 363 1048 363 1048 339 1024 c 128,-1,20
 315 1000 315 1000 315 968 c 256,21,22
 315 936 315 936 339 912 c 128,-1,23
 363 888 363 888 395 888 c 256,12,13
EndSplineSet
EndChar

StartChar: cent
Encoding: 162 162 103
Width: 693
Flags: W
LayerCount: 2
Fore
SplineSet
365 -18 m 1,0,-1
 404 176 l 1,1,2
 142 195 142 195 142 355 c 0,3,4
 142 459 142 459 242 534.5 c 128,-1,5
 342 610 342 610 492 622 c 1,6,-1
 527 799 l 1,7,-1
 572 799 l 1,8,-1
 537 622 l 1,9,10
 637 617 637 617 715 601 c 1,11,-1
 689 471 l 1,12,-1
 644 471 l 1,13,14
 644 477 644 477 645 488 c 0,15,16
 648 509 648 509 648 517 c 0,17,18
 648 572 648 572 528 578 c 1,19,-1
 459 229 l 1,20,21
 567 229 567 229 661 280 c 1,22,-1
 650 229 l 1,23,24
 544 176 544 176 448 176 c 1,25,-1
 409 -18 l 1,26,-1
 365 -18 l 1,0,-1
415 232 m 1,27,-1
 484 578 l 1,28,29
 272 547 272 547 272 383 c 0,30,31
 272 255 272 255 415 232 c 1,27,-1
EndSplineSet
EndChar

StartChar: sterling
Encoding: 163 163 104
Width: 874
Flags: W
LayerCount: 2
Fore
SplineSet
17 0 m 1,0,-1
 109 88 l 1,1,-1
 122 88 l 2,2,3
 229 88 229 88 272.5 136.5 c 128,-1,4
 316 185 316 185 347 343 c 2,5,-1
 356 391 l 1,6,-1
 196 391 l 1,7,-1
 205 436 l 1,8,-1
 365 436 l 1,9,-1
 378 499 l 2,10,11
 407 642 407 642 496.5 721 c 128,-1,12
 586 800 586 800 718 800 c 0,13,14
 797 800 797 800 892 765 c 1,15,-1
 858 586 l 1,16,-1
 808 586 l 1,17,-1
 810 598 l 2,18,19
 812 608 812 608 812 620 c 0,20,21
 812 746 812 746 679 746 c 0,22,23
 614 746 614 746 584.5 710 c 128,-1,24
 555 674 555 674 535 569 c 2,25,-1
 508 436 l 1,26,-1
 748 436 l 1,27,-1
 739 391 l 1,28,-1
 499 391 l 1,29,-1
 492 359 l 2,30,31
 473 265 473 265 427.5 208 c 128,-1,32
 382 151 382 151 275 88 c 1,33,-1
 480 88 l 2,34,35
 617 88 617 88 679 102.5 c 128,-1,36
 741 117 741 117 819 167 c 1,37,-1
 808 113 l 1,38,39
 735 35 735 35 665.5 7.5 c 128,-1,40
 596 -20 596 -20 470 -20 c 1,41,-1
 442 -19 l 1,42,-1
 17 0 l 1,0,-1
EndSplineSet
EndChar

StartChar: section
Encoding: 167 167 105
Width: 932
Flags: W
LayerCount: 2
Fore
SplineSet
107 -153 m 1,0,-1
 232 -80 l 1,1,2
 348 -178 348 -178 481 -178 c 0,3,4
 564 -178 564 -178 621.5 -127.5 c 128,-1,5
 679 -77 679 -77 679 -5 c 0,6,7
 679 48 679 48 645.5 80.5 c 128,-1,8
 612 113 612 113 513 160 c 2,9,-1
 440 193 l 2,10,11
 247 283 247 283 247 409 c 0,12,13
 247 528 247 528 409 652 c 1,14,15
 328 717 328 717 328 815 c 0,16,17
 328 938 328 938 440 1015.5 c 128,-1,18
 552 1093 552 1093 727 1093 c 0,19,20
 814 1093 814 1093 933 1060 c 1,21,-1
 897 879 l 1,22,-1
 853 879 l 1,23,24
 857 904 857 904 857 916 c 0,25,26
 857 1039 857 1039 652 1039 c 0,27,28
 560 1039 560 1039 500.5 987 c 128,-1,29
 441 935 441 935 441 853 c 0,30,31
 441 798 441 798 466 774.5 c 128,-1,32
 491 751 491 751 613 686 c 2,33,-1
 674 652 l 2,34,35
 854 553 854 553 854 444 c 0,36,37
 854 319 854 319 703 200 c 1,38,39
 801 136 801 136 801 40 c 0,40,41
 801 -75 801 -75 684.5 -153 c 128,-1,42
 568 -231 568 -231 397 -231 c 0,43,44
 244 -231 244 -231 107 -153 c 1,0,-1
667 229 m 1,45,46
 747 319 747 319 747 394 c 0,47,48
 747 470 747 470 628 527 c 2,49,-1
 558 562 l 2,50,51
 495 593 495 593 445 625 c 1,52,53
 355 545 355 545 355 456 c 0,54,55
 355 382 355 382 474 326 c 2,56,-1
 571 279 l 2,57,58
 607 263 607 263 667 229 c 1,45,46
EndSplineSet
EndChar

StartChar: bullet
Encoding: 8226 8226 106
Width: 931
Flags: W
LayerCount: 2
Fore
SplineSet
817 662 m 256,0,1
 817 517 817 517 713.5 414 c 128,-1,2
 610 311 610 311 465 311 c 256,3,4
 320 311 320 311 217 414 c 128,-1,5
 114 517 114 517 114 662 c 256,6,7
 114 807 114 807 217 910 c 128,-1,8
 320 1013 320 1013 465 1013 c 256,9,10
 610 1013 610 1013 713.5 910 c 128,-1,11
 817 807 817 807 817 662 c 256,0,1
EndSplineSet
EndChar

StartChar: paragraph
Encoding: 182 182 107
Width: 932
Flags: W
LayerCount: 2
Fore
SplineSet
365 -239 m 1,0,-1
 511 496 l 1,1,2
 241 542 241 542 241 747 c 0,3,4
 241 876 241 876 346.5 968 c 128,-1,5
 452 1060 452 1060 628 1085 c 1,6,-1
 660 1244 l 1,7,-1
 704 1244 l 1,8,-1
 673 1085 l 1,9,-1
 703 1086 l 2,10,11
 744 1086 744 1086 796 1080 c 1,12,-1
 828 1244 l 1,13,-1
 873 1244 l 1,14,-1
 839 1071 l 1,15,16
 891 1057 891 1057 948 1036 c 1,17,-1
 938 988 l 1,18,19
 898 1005 898 1005 830 1024 c 1,20,-1
 742 586 l 1,21,22
 794 603 794 603 869 643 c 1,23,-1
 859 586 l 1,24,25
 794 549 794 549 732 530 c 1,26,-1
 578 -239 l 1,27,-1
 534 -239 l 1,28,-1
 684 514 l 1,29,30
 597 496 597 496 556 496 c 1,31,-1
 409 -239 l 1,32,-1
 365 -239 l 1,0,-1
695 568 m 1,33,-1
 787 1031 l 1,34,35
 738 1040 738 1040 704 1040 c 0,36,37
 691 1040 691 1040 664 1039 c 1,38,-1
 567 553 l 1,39,40
 625 553 625 553 695 568 c 1,33,-1
EndSplineSet
EndChar

StartChar: registered
Encoding: 174 174 108
Width: 897
Flags: W
LayerCount: 2
Fore
SplineSet
580 445 m 0,0,1
 448 445 448 445 354.5 538.5 c 128,-1,2
 261 632 261 632 261 764 c 256,3,4
 261 896 261 896 354.5 990 c 128,-1,5
 448 1084 448 1084 580 1084 c 0,6,7
 714 1084 714 1084 807 990 c 128,-1,8
 900 896 900 896 900 764 c 256,9,10
 900 632 900 632 806.5 538.5 c 128,-1,11
 713 445 713 445 580 445 c 0,0,1
580 484 m 0,12,13
 695 484 695 484 777.5 567 c 128,-1,14
 860 650 860 650 860 764 c 256,15,16
 860 878 860 878 777.5 961 c 128,-1,17
 695 1044 695 1044 580 1044 c 0,18,19
 466 1044 466 1044 383.5 961 c 128,-1,20
 301 878 301 878 301 764 c 256,21,22
 301 650 301 650 383.5 567 c 128,-1,23
 466 484 466 484 580 484 c 0,12,13
529 737 m 1,24,-1
 501 596 l 1,25,-1
 394 596 l 1,26,-1
 403 639 l 1,27,-1
 456 639 l 1,28,-1
 511 915 l 1,29,-1
 458 915 l 1,30,-1
 466 959 l 1,31,-1
 598 959 l 2,32,33
 751 959 751 959 751 875 c 0,34,35
 751 800 751 800 650 750 c 1,36,-1
 685 639 l 1,37,-1
 747 639 l 1,38,-1
 738 596 l 1,39,-1
 641 596 l 1,40,-1
 591 737 l 1,41,-1
 529 737 l 1,24,-1
538 782 m 1,42,-1
 574 782 l 2,43,44
 697 782 697 782 697 866 c 0,45,46
 697 915 697 915 607 915 c 2,47,-1
 564 915 l 1,48,-1
 538 782 l 1,42,-1
EndSplineSet
EndChar

StartChar: copyright
Encoding: 169 169 109
Width: 1244
Flags: W
LayerCount: 2
Fore
SplineSet
725 -27 m 0,0,1
 495 -27 495 -27 330.5 137 c 128,-1,2
 166 301 166 301 166 533 c 256,3,4
 166 765 166 765 330.5 929 c 128,-1,5
 495 1093 495 1093 725 1093 c 0,6,7
 958 1093 958 1093 1122 929 c 128,-1,8
 1286 765 1286 765 1286 533 c 256,9,10
 1286 301 1286 301 1122 137 c 128,-1,11
 958 -27 958 -27 725 -27 c 0,0,1
725 18 m 0,12,13
 939 18 939 18 1090 169 c 128,-1,14
 1241 320 1241 320 1241 533 c 256,15,16
 1241 746 1241 746 1090 897 c 128,-1,17
 939 1048 939 1048 725 1048 c 0,18,19
 513 1048 513 1048 362 897 c 128,-1,20
 211 746 211 746 211 533 c 256,21,22
 211 320 211 320 362 169 c 128,-1,23
 513 18 513 18 725 18 c 0,12,13
890 246 m 1,24,25
 785 213 785 213 704 213 c 0,26,27
 580 213 580 213 508 279.5 c 128,-1,28
 436 346 436 346 436 462 c 0,29,30
 436 625 436 625 541 734.5 c 128,-1,31
 646 844 646 844 805 844 c 0,32,33
 896 844 896 844 1003 814 c 1,34,-1
 967 675 l 1,35,-1
 915 684 l 1,36,-1
 923 766 l 1,37,38
 854 798 854 798 792 798 c 0,39,40
 688 798 688 798 616 700 c 128,-1,41
 544 602 544 602 544 462 c 0,42,43
 544 271 544 271 722 271 c 0,44,45
 823 271 823 271 902 307 c 1,46,-1
 890 246 l 1,24,25
EndSplineSet
EndChar

StartChar: trademark
Encoding: 8482 8482 110
Width: 1333
Flags: W
LayerCount: 2
Fore
SplineSet
440 1021 m 1,0,-1
 307 1021 l 1,1,-1
 288 923 l 1,2,-1
 225 923 l 1,3,-1
 254 1066 l 1,4,-1
 751 1066 l 1,5,-1
 723 923 l 1,6,-1
 661 923 l 1,7,-1
 679 1021 l 1,8,-1
 546 1021 l 1,9,-1
 456 569 l 1,10,-1
 554 569 l 1,11,-1
 545 524 l 1,12,-1
 243 524 l 1,13,-1
 253 569 l 1,14,-1
 350 569 l 1,15,-1
 440 1021 l 1,0,-1
1011 569 m 1,16,-1
 942 956 l 1,17,-1
 857 524 l 1,18,-1
 688 524 l 1,19,-1
 697 569 l 1,20,-1
 794 569 l 1,21,-1
 884 1021 l 1,22,-1
 787 1021 l 1,23,-1
 796 1066 l 1,24,-1
 1036 1066 l 1,25,-1
 1092 747 l 1,26,-1
 1265 1066 l 1,27,-1
 1481 1066 l 1,28,-1
 1473 1021 l 1,29,-1
 1375 1021 l 1,30,-1
 1285 569 l 1,31,-1
 1383 569 l 1,32,-1
 1373 524 l 1,33,-1
 1178 524 l 1,34,-1
 1270 985 l 1,35,-1
 1041 569 l 1,36,-1
 1011 569 l 1,16,-1
EndSplineSet
EndChar

StartChar: acute
Encoding: 180 180 111
Width: 256
Flags: W
LayerCount: 2
Fore
SplineSet
118 999 m 1,0,1
 195 1083 195 1083 192 1046 c 1,2,3
 183 1014 183 1014 135.5 924 c 128,-1,4
 88 834 88 834 66 802 c 1,5,6
 55 796 55 796 62 848 c 1,7,8
 83 919 83 919 118 999 c 1,0,1
EndSplineSet
EndChar

StartChar: dieresis
Encoding: 168 168 112
Width: 862
Flags: W
LayerCount: 2
Fore
SplineSet
495 923 m 1,0,-1
 408 1033 l 1,1,-1
 520 1119 l 1,2,-1
 607 1003 l 1,3,-1
 495 923 l 1,0,-1
841 923 m 1,4,-1
 752 1035 l 1,5,-1
 866 1119 l 1,6,-1
 951 1004 l 1,7,-1
 841 923 l 1,4,-1
EndSplineSet
EndChar

StartChar: plusminus
Encoding: 177 177 113
Width: 932
Flags: W
LayerCount: 2
Fore
SplineSet
76 0 m 1,0,-1
 92 80 l 1,1,-1
 873 80 l 1,2,-1
 858 0 l 1,3,-1
 76 0 l 1,0,-1
469 213 m 1,4,-1
 525 493 l 1,5,-1
 174 493 l 1,6,-1
 189 573 l 1,7,-1
 541 573 l 1,8,-1
 596 852 l 1,9,-1
 676 852 l 1,10,-1
 621 573 l 1,11,-1
 971 573 l 1,12,-1
 956 493 l 1,13,-1
 605 493 l 1,14,-1
 549 213 l 1,15,-1
 469 213 l 1,4,-1
EndSplineSet
EndChar

StartChar: yen
Encoding: 165 165 114
Width: 965
Flags: W
LayerCount: 2
Fore
SplineSet
156 0 m 1,0,-1
 247 99 l 1,1,2
 269 97 269 97 279 97 c 0,3,4
 415 97 415 97 477 257 c 1,5,-1
 272 257 l 1,6,-1
 280 301 l 1,7,-1
 489 301 l 1,8,9
 495 346 495 346 499 409 c 1,10,-1
 301 409 l 1,11,-1
 310 453 l 1,12,-1
 499 453 l 1,13,14
 499 465 499 465 499 470 c 0,15,16
 499 567 499 567 463.5 631 c 128,-1,17
 428 695 428 695 375 695 c 256,18,19
 322 695 322 695 250 638 c 128,-1,20
 178 581 178 581 139 509 c 1,21,-1
 106 534 l 1,22,23
 172 650 172 650 268.5 724.5 c 128,-1,24
 365 799 365 799 452 799 c 0,25,26
 612 799 612 799 612 518 c 1,27,-1
 611 472 l 1,28,29
 736 799 736 799 971 799 c 0,30,31
 1045 799 1045 799 1100 765 c 1,32,-1
 1016 653 l 1,33,34
 967 684 967 684 915 684 c 0,35,36
 742 684 742 684 651 453 c 1,37,-1
 835 453 l 1,38,-1
 826 409 l 1,39,-1
 643 409 l 1,40,-1
 634 369 l 2,41,42
 627 335 627 335 609 301 c 1,43,-1
 805 301 l 1,44,-1
 796 257 l 1,45,-1
 585 257 l 1,46,47
 519 138 519 138 389 91 c 1,48,-1
 624 77 l 1,49,-1
 534 -18 l 1,50,-1
 156 0 l 1,0,-1
EndSplineSet
EndChar

StartChar: mu1
Encoding: 181 181 115
Width: 992
Flags: W
LayerCount: 2
Fore
SplineSet
100 -302 m 1,0,-1
 155 -76 l 1,1,-1
 270 500 l 2,2,3
 282 560 282 560 282 611 c 0,4,5
 282 693 282 693 206 782 c 1,6,-1
 368 790 l 1,7,8
 427 740 427 740 427 623 c 0,9,10
 427 576 427 576 409 481 c 2,11,-1
 355 213 l 2,12,13
 347 176 347 176 347 161 c 0,14,15
 347 106 347 106 391 106 c 0,16,17
 446 106 446 106 553.5 229 c 128,-1,18
 661 352 661 352 753 519 c 1,19,-1
 805 782 l 1,20,-1
 958 790 l 1,21,-1
 905 569 l 1,22,-1
 834 213 l 2,23,24
 818 132 818 132 818 106 c 0,25,26
 818 53 818 53 861 53 c 0,27,28
 931 53 931 53 1075 218 c 1,29,-1
 1062 151 l 1,30,31
 905 -18 905 -18 779 -18 c 0,32,33
 675 -18 675 -18 675 91 c 0,34,35
 675 128 675 128 692 213 c 2,36,-1
 727 391 l 1,37,-1
 717 391 l 1,38,39
 517 0 517 0 312 0 c 1,40,-1
 255 -284 l 1,41,-1
 100 -302 l 1,0,-1
EndSplineSet
EndChar

StartChar: logicalnot
Encoding: 172 172 116
Width: 932
Flags: W
LayerCount: 2
Fore
SplineSet
177 510 m 1,0,-1
 193 590 l 1,1,-1
 975 590 l 1,2,-1
 906 248 l 1,3,-1
 814 248 l 1,4,-1
 866 510 l 1,5,-1
 177 510 l 1,0,-1
EndSplineSet
EndChar

StartChar: florin
Encoding: 402 402 117
Width: 679
Flags: W
LayerCount: 2
Fore
SplineSet
158 -231 m 1,0,-1
 210 -18 l 1,1,-1
 286 364 l 1,2,-1
 108 364 l 1,3,-1
 117 409 l 1,4,-1
 294 409 l 1,5,-1
 298 427 l 2,6,7
 330 586 330 586 463 692.5 c 128,-1,8
 596 799 596 799 761 799 c 0,9,10
 818 799 818 799 860 784 c 1,11,-1
 764 678 l 1,12,13
 712 729 712 729 643 729 c 0,14,15
 500 729 500 729 457 512 c 2,16,-1
 436 409 l 1,17,-1
 623 409 l 1,18,-1
 614 364 l 1,19,-1
 427 364 l 1,20,-1
 313 -213 l 1,21,-1
 158 -231 l 1,0,-1
EndSplineSet
EndChar

StartChar: ellipsis
Encoding: 8230 8230 118
Width: 1474
Flags: W
LayerCount: 2
Fore
SplineSet
178 0 m 1,0,-1
 206 142 l 1,1,-1
 348 142 l 1,2,-1
 319 0 l 1,3,-1
 178 0 l 1,0,-1
667 0 m 1,4,-1
 695 142 l 1,5,-1
 837 142 l 1,6,-1
 808 0 l 1,7,-1
 667 0 l 1,4,-1
1155 0 m 1,8,-1
 1183 142 l 1,9,-1
 1326 142 l 1,10,-1
 1297 0 l 1,11,-1
 1155 0 l 1,8,-1
EndSplineSet
EndChar

StartChar: OE
Encoding: 338 338 119
Width: 1477
Flags: W
LayerCount: 2
Fore
SplineSet
816 0 m 1,0,-1
 831 70 l 1,1,2
 711 -27 711 -27 549 -27 c 0,3,4
 371 -27 371 -27 269 81 c 128,-1,5
 167 189 167 189 167 378 c 0,6,7
 167 661 167 661 358 877 c 128,-1,8
 549 1093 549 1093 799 1093 c 0,9,10
 931 1093 931 1093 1017 1007 c 1,11,-1
 1029 1066 l 1,12,-1
 1593 1066 l 1,13,-1
 1529 862 l 1,14,-1
 1484 862 l 1,15,16
 1490 891 1490 891 1490 913 c 0,17,18
 1490 969 1490 969 1424.5 990.5 c 128,-1,19
 1359 1012 1359 1012 1187 1012 c 2,20,-1
 1165 1012 l 1,21,-1
 1082 586 l 1,22,-1
 1402 586 l 1,23,-1
 1329 512 l 1,24,25
 1165 533 1165 533 1107 533 c 2,26,-1
 1071 533 l 1,27,-1
 1012 218 l 2,28,29
 1002 167 1002 167 1002 156 c 0,30,31
 1002 80 1002 80 1228 80 c 0,32,33
 1348 80 1348 80 1453 160 c 1,34,-1
 1442 103 l 1,35,36
 1318 -23 1318 -23 1203 -23 c 0,37,38
 1183 -23 1183 -23 1161 -21 c 2,39,-1
 816 0 l 1,0,-1
888 361 m 2,40,-1
 961 723 l 2,41,42
 974 786 974 786 974 841 c 0,43,44
 974 933 974 933 916.5 990.5 c 128,-1,45
 859 1048 859 1048 769 1048 c 0,46,47
 604 1048 604 1048 466.5 844 c 128,-1,48
 329 640 329 640 329 395 c 0,49,50
 329 218 329 218 396.5 117.5 c 128,-1,51
 464 17 464 17 585 17 c 0,52,53
 818 17 818 17 888 361 c 2,40,-1
EndSplineSet
EndChar

StartChar: oe
Encoding: 339 339 120
Width: 1350
Flags: W
LayerCount: 2
Fore
SplineSet
706 145 m 1,0,1
 535 -18 535 -18 370 -18 c 0,2,3
 273 -18 273 -18 209 55 c 128,-1,4
 145 128 145 128 145 237 c 0,5,6
 145 448 145 448 302.5 623.5 c 128,-1,7
 460 799 460 799 650 799 c 0,8,9
 794 799 794 799 859 630 c 1,10,11
 1025 799 1025 799 1183 799 c 0,12,13
 1246 799 1246 799 1286.5 758 c 128,-1,14
 1327 717 1327 717 1327 651 c 0,15,16
 1327 508 1327 508 1192.5 414 c 128,-1,17
 1058 320 1058 320 841 311 c 1,18,-1
 840 278 l 1,19,20
 840 66 840 66 998 66 c 0,21,22
 1113 66 1113 66 1327 200 c 1,23,-1
 1316 146 l 1,24,25
 1083 -18 1083 -18 917 -18 c 0,26,27
 758 -18 758 -18 706 145 c 1,0,1
431 35 m 0,28,29
 544 35 544 35 636 178.5 c 128,-1,30
 728 322 728 322 728 499 c 0,31,32
 728 607 728 607 689 672 c 128,-1,33
 650 737 650 737 584 737 c 0,34,35
 472 737 472 737 382 594 c 128,-1,36
 292 451 292 451 292 272 c 0,37,38
 292 35 292 35 431 35 c 0,28,29
844 355 m 1,39,40
 1004 368 1004 368 1097.5 438.5 c 128,-1,41
 1191 509 1191 509 1191 620 c 0,42,43
 1191 733 1191 733 1110 733 c 0,44,45
 1024 733 1024 733 941.5 616 c 128,-1,46
 859 499 859 499 844 355 c 1,39,40
EndSplineSet
EndChar

StartChar: endash
Encoding: 8211 8211 121
Width: 434
Flags: W
LayerCount: 2
Fore
SplineSet
434 154 m 1,0,-1
 0 154 l 1,1,-1
 0 234 l 1,2,-1
 434 234 l 1,3,-1
 434 154 l 1,0,-1
EndSplineSet
EndChar

StartChar: emdash
Encoding: 8212 8212 122
Width: 1862
Flags: W
LayerCount: 2
Fore
SplineSet
1866 572 m 1,0,-1
 -4 572 l 1,1,-1
 -4 732 l 1,2,-1
 1866 732 l 1,3,-1
 1866 572 l 1,0,-1
EndSplineSet
EndChar

StartChar: quotedblleft
Encoding: 8220 8220 123
Width: 662
Flags: W
LayerCount: 2
Fore
SplineSet
535 861 m 1,0,-1
 374 861 l 1,1,-1
 374 989 l 2,2,3
 374 1185 374 1185 511 1254 c 1,4,-1
 529 1214 l 1,5,6
 435 1162 435 1162 435 1029 c 1,7,-1
 535 1029 l 1,8,-1
 535 861 l 1,0,-1
307 861 m 1,9,-1
 146 861 l 1,10,-1
 146 989 l 2,11,12
 146 1185 146 1185 283 1254 c 1,13,-1
 301 1214 l 1,14,15
 207 1162 207 1162 207 1029 c 1,16,-1
 307 1029 l 1,17,-1
 307 861 l 1,9,-1
EndSplineSet
EndChar

StartChar: quotedblright
Encoding: 8221 8221 124
Width: 662
Flags: W
LayerCount: 2
Fore
SplineSet
146 1254 m 1,0,-1
 307 1254 l 1,1,-1
 307 1126 l 2,2,3
 307 930 307 930 170 861 c 1,4,-1
 152 901 l 1,5,6
 246 953 246 953 246 1086 c 1,7,-1
 146 1086 l 1,8,-1
 146 1254 l 1,0,-1
374 1254 m 1,9,-1
 535 1254 l 1,10,-1
 535 1126 l 2,11,12
 535 930 535 930 398 861 c 1,13,-1
 380 901 l 1,14,15
 474 953 474 953 474 1086 c 1,16,-1
 374 1086 l 1,17,-1
 374 1254 l 1,9,-1
EndSplineSet
EndChar

StartChar: divide
Encoding: 247 247 125
Width: 1093
Flags: W
LayerCount: 2
Fore
SplineSet
624 674 m 1,0,-1
 466 674 l 1,1,-1
 466 855 l 1,2,-1
 624 855 l 1,3,-1
 624 674 l 1,0,-1
933 383 m 1,4,-1
 157 383 l 1,5,-1
 157 489 l 1,6,-1
 933 489 l 1,7,-1
 933 383 l 1,4,-1
624 17 m 1,8,-1
 466 17 l 1,9,-1
 466 198 l 1,10,-1
 624 198 l 1,11,-1
 624 17 l 1,8,-1
EndSplineSet
EndChar

StartChar: lozenge
Encoding: 9674 9674 126
Width: 1118
Flags: W
LayerCount: 2
Fore
SplineSet
1003 699 m 1,0,-1
 560 197 l 1,1,-1
 117 699 l 1,2,-1
 560 1202 l 1,3,-1
 1003 699 l 1,0,-1
848 699 m 1,4,-1
 560 1036 l 1,5,-1
 271 699 l 1,6,-1
 560 364 l 1,7,-1
 848 699 l 1,4,-1
EndSplineSet
EndChar

StartChar: Euro
Encoding: 8364 8364 128
Width: 812
Flags: W
LayerCount: 2
Fore
SplineSet
210 464 m 1,0,1
 252 596 252 596 371.5 697.5 c 128,-1,2
 491 799 491 799 674 799 c 0,3,4
 773 799 773 799 885 769 c 1,5,-1
 845 624 l 1,6,-1
 795 624 l 1,7,8
 801 653 801 653 801 665 c 0,9,10
 801 701 801 701 757 726 c 128,-1,11
 713 751 713 751 649 751 c 0,12,13
 445 751 445 751 349 464 c 1,14,-1
 686 464 l 1,15,-1
 677 420 l 1,16,-1
 337 420 l 2,17,18
 335 418 335 418 332 404 c 2,19,-1
 325 365 l 1,20,-1
 325 360 l 1,21,-1
 665 360 l 1,22,-1
 656 315 l 1,23,-1
 319 315 l 1,24,-1
 319 289 l 2,25,26
 319 178 319 178 370 115.5 c 128,-1,27
 421 53 421 53 512 53 c 0,28,29
 636 53 636 53 765 135 c 1,30,-1
 755 72 l 1,31,32
 604 -18 604 -18 459 -18 c 0,33,34
 324 -18 324 -18 249.5 59 c 128,-1,35
 175 136 175 136 175 274 c 0,36,37
 175 300 175 300 175 315 c 1,38,-1
 111 315 l 1,39,-1
 120 360 l 1,40,-1
 182 360 l 1,41,-1
 182 364 l 1,42,43
 189 401 189 401 194 420 c 1,44,-1
 118 420 l 1,45,-1
 127 464 l 1,46,-1
 210 464 l 1,0,1
EndSplineSet
EndChar

StartChar: guilsinglleft
Encoding: 8249 8249 129
Width: 560
Flags: W
LayerCount: 2
Fore
SplineSet
375 71 m 1,0,1
 304 237 304 237 167 391 c 1,2,3
 358 507 358 507 437 653 c 1,4,-1
 587 711 l 1,5,6
 536 589 536 589 315 441 c 1,7,8
 423 310 423 310 499 138 c 1,9,-1
 375 71 l 1,0,1
EndSplineSet
EndChar

StartChar: guilsinglright
Encoding: 8250 8250 130
Width: 560
Flags: W
LayerCount: 2
Fore
SplineSet
339 711 m 1,0,1
 410 545 410 545 546 391 c 1,2,3
 356 275 356 275 276 128 c 1,4,-1
 128 71 l 1,5,6
 178 193 178 193 400 341 c 1,7,8
 293 470 293 470 215 643 c 1,9,-1
 339 711 l 1,0,1
EndSplineSet
EndChar

StartChar: daggerdbl
Encoding: 8225 8225 133
Width: 932
Flags: W
LayerCount: 2
Fore
SplineSet
349 -231 m 1,0,-1
 481 185 l 1,1,-1
 161 154 l 1,2,-1
 211 261 l 1,3,-1
 490 229 l 1,4,-1
 567 616 l 1,5,-1
 247 586 l 1,6,-1
 297 693 l 1,7,-1
 575 661 l 1,8,-1
 608 1066 l 1,9,-1
 758 1093 l 1,10,-1
 620 661 l 1,11,-1
 940 693 l 1,12,-1
 889 586 l 1,13,-1
 611 616 l 1,14,-1
 535 229 l 1,15,-1
 855 261 l 1,16,-1
 804 154 l 1,17,-1
 525 185 l 1,18,-1
 499 -213 l 1,19,-1
 349 -231 l 1,0,-1
EndSplineSet
EndChar

StartChar: middot.001
Encoding: 8729 8729 134
Width: 620
Flags: W
LayerCount: 2
Fore
SplineSet
429 516 m 1,0,-1
 190 516 l 1,1,-1
 190 789 l 1,2,-1
 429 789 l 1,3,-1
 429 516 l 1,0,-1
EndSplineSet
EndChar

StartChar: quotesinglbase
Encoding: 8218 8218 135
Width: 418
Flags: W
LayerCount: 2
Fore
SplineSet
103 128 m 1,0,-1
 247 231 l 1,1,-1
 353 90 l 1,2,3
 345 -56 345 -56 262.5 -134.5 c 128,-1,4
 180 -213 180 -213 36 -213 c 1,5,-1
 76 -168 l 1,6,7
 189 -158 189 -158 211 -18 c 1,8,-1
 103 128 l 1,0,-1
EndSplineSet
EndChar

StartChar: quotedblbase
Encoding: 8222 8222 136
Width: 684
Flags: W
LayerCount: 2
Fore
SplineSet
91 92 m 1,0,-1
 204 178 l 1,1,-1
 292 64 l 1,2,3
 270 -213 270 -213 31 -213 c 1,4,-1
 60 -168 l 1,5,6
 166 -148 166 -148 179 -16 c 1,7,-1
 91 92 l 1,0,-1
401 92 m 1,8,-1
 516 178 l 1,9,-1
 602 64 l 1,10,11
 581 -213 581 -213 341 -213 c 1,12,-1
 372 -168 l 1,13,14
 476 -148 476 -148 490 -16 c 1,15,-1
 401 92 l 1,8,-1
EndSplineSet
EndChar

StartChar: perthousand
Encoding: 8240 8240 137
Width: 1571
Flags: W
LayerCount: 2
Fore
SplineSet
385 533 m 0,0,1
 304 533 304 533 254.5 584.5 c 128,-1,2
 205 636 205 636 205 722 c 0,3,4
 205 865 205 865 286.5 965.5 c 128,-1,5
 368 1066 368 1066 483 1066 c 0,6,7
 567 1066 567 1066 617.5 1014.5 c 128,-1,8
 668 963 668 963 668 877 c 0,9,10
 668 733 668 733 585.5 633 c 128,-1,11
 503 533 503 533 385 533 c 0,0,1
311 715 m 0,12,13
 311 578 311 578 398 578 c 0,14,15
 463 578 463 578 517 671.5 c 128,-1,16
 571 765 571 765 571 881 c 0,17,18
 571 1022 571 1022 483 1022 c 0,19,20
 416 1022 416 1022 363.5 928 c 128,-1,21
 311 834 311 834 311 715 c 0,12,13
850 0 m 0,22,23
 769 0 769 0 719.5 51.5 c 128,-1,24
 670 103 670 103 670 189 c 0,25,26
 670 331 670 331 751 432 c 128,-1,27
 832 533 832 533 947 533 c 0,28,29
 1031 533 1031 533 1081.5 481.5 c 128,-1,30
 1132 430 1132 430 1132 344 c 0,31,32
 1132 200 1132 200 1049.5 100 c 128,-1,33
 967 0 967 0 850 0 c 0,22,23
776 182 m 0,34,35
 776 44 776 44 862 44 c 0,36,37
 929 44 929 44 982 138 c 128,-1,38
 1035 232 1035 232 1035 348 c 0,39,40
 1035 490 1035 490 948 490 c 0,41,42
 880 490 880 490 828 395.5 c 128,-1,43
 776 301 776 301 776 182 c 0,34,35
131 -27 m 1,44,-1
 1111 1093 l 1,45,-1
 1206 1093 l 1,46,-1
 225 -27 l 1,47,-1
 131 -27 l 1,44,-1
1376 0 m 0,48,49
 1294 0 1294 0 1244.5 51.5 c 128,-1,50
 1195 103 1195 103 1195 189 c 0,51,52
 1195 331 1195 331 1276.5 432 c 128,-1,53
 1358 533 1358 533 1473 533 c 0,54,55
 1557 533 1557 533 1607.5 481.5 c 128,-1,56
 1658 430 1658 430 1658 344 c 0,57,58
 1658 200 1658 200 1575.5 100 c 128,-1,59
 1493 0 1493 0 1376 0 c 0,48,49
1301 183 m 0,60,61
 1301 44 1301 44 1389 44 c 0,62,63
 1453 44 1453 44 1507 138 c 128,-1,64
 1561 232 1561 232 1561 347 c 0,65,66
 1561 490 1561 490 1473 490 c 0,67,68
 1406 490 1406 490 1353.5 395.5 c 128,-1,69
 1301 301 1301 301 1301 183 c 0,60,61
EndSplineSet
EndChar

StartChar: circumflex
Encoding: 710 710 139
Width: 862
Flags: W
LayerCount: 2
Fore
SplineSet
870 976 m 1,0,-1
 783 923 l 1,1,2
 729 984 729 984 693 1082 c 1,3,4
 652 1032 652 1032 574 953 c 0,5,6
 571 949 571 949 553 931 c 1,7,-1
 452 923 l 1,8,9
 607 1037 607 1037 674 1120 c 1,10,-1
 772 1182 l 1,11,12
 805 1069 805 1069 870 976 c 1,0,-1
EndSplineSet
EndChar

StartChar: cedilla
Encoding: 184 184 140
Width: 862
Flags: W
LayerCount: 2
Fore
SplineSet
456 0 m 1,0,-1
 414 -64 l 1,1,2
 485 -86 485 -86 485 -147 c 0,3,4
 485 -198 485 -198 428.5 -241 c 128,-1,5
 372 -284 372 -284 303 -284 c 0,6,7
 272 -284 272 -284 237 -277 c 1,8,-1
 292 -201 l 1,9,10
 326 -223 326 -223 352 -223 c 0,11,12
 416 -223 416 -223 416 -171 c 0,13,14
 416 -112 416 -112 318 -112 c 1,15,-1
 394 0 l 1,16,-1
 456 0 l 1,0,-1
EndSplineSet
EndChar

StartChar: brokenbar
Encoding: 166 166 141
Width: 355
Flags: W
LayerCount: 2
Fore
SplineSet
86 -213 m 1,0,-1
 203 373 l 1,1,-1
 301 373 l 1,2,-1
 184 -213 l 1,3,-1
 86 -213 l 1,0,-1
238 551 m 1,4,-1
 355 1137 l 1,5,-1
 453 1137 l 1,6,-1
 337 551 l 1,7,-1
 238 551 l 1,4,-1
EndSplineSet
EndChar

StartChar: minus
Encoding: 8722 8722 142
Width: 1490
Flags: W
LayerCount: 2
Fore
SplineSet
1308 572 m 1,0,-1
 182 572 l 1,1,-1
 182 732 l 1,2,-1
 1308 732 l 1,3,-1
 1308 572 l 1,0,-1
EndSplineSet
EndChar

StartChar: multiply
Encoding: 215 215 143
Width: 820
Flags: W
LayerCount: 2
Fore
SplineSet
330 397 m 1,0,-1
 146 581 l 1,1,-1
 240 675 l 1,2,-1
 424 491 l 1,3,-1
 611 678 l 1,4,-1
 705 584 l 1,5,-1
 518 397 l 1,6,-1
 711 204 l 1,7,-1
 617 110 l 1,8,-1
 424 303 l 1,9,-1
 238 117 l 1,10,-1
 144 211 l 1,11,-1
 330 397 l 1,0,-1
EndSplineSet
EndChar

StartChar: onesuperior
Encoding: 185 185 144
Width: 596
Flags: W
LayerCount: 2
Fore
SplineSet
573 1093 m 1,0,-1
 487 657 l 2,1,2
 476 607 476 607 476 589 c 0,3,4
 476 570 476 570 532 563 c 1,5,-1
 591 560 l 1,6,-1
 582 516 l 1,7,-1
 210 516 l 1,8,-1
 218 560 l 1,9,-1
 279 563 l 2,10,11
 328 567 328 567 337.5 578 c 128,-1,12
 347 589 347 589 362 657 c 2,13,-1
 418 938 l 2,14,15
 423 960 423 960 423 978 c 0,16,17
 423 1004 423 1004 355 1013 c 2,18,-1
 310 1021 l 1,19,-1
 319 1066 l 1,20,-1
 573 1093 l 1,0,-1
EndSplineSet
EndChar

StartChar: twosuperior
Encoding: 178 178 145
Width: 596
Flags: W
LayerCount: 2
Fore
SplineSet
187 516 m 1,0,-1
 207 617 l 1,1,2
 362 712 362 712 454.5 803.5 c 128,-1,3
 547 895 547 895 547 952 c 0,4,5
 547 1046 547 1046 463 1046 c 0,6,7
 352 1046 352 1046 331 928 c 1,8,-1
 278 928 l 1,9,-1
 304 1059 l 1,10,11
 400 1093 400 1093 484 1093 c 0,12,13
 674 1093 674 1093 674 959 c 0,14,15
 674 887 674 887 624.5 842 c 128,-1,16
 575 797 575 797 297 617 c 1,17,-1
 607 617 l 1,18,-1
 587 516 l 1,19,-1
 187 516 l 1,0,-1
EndSplineSet
EndChar

StartChar: threesuperior
Encoding: 179 179 146
Width: 596
Flags: W
LayerCount: 2
Fore
SplineSet
185 545 m 1,0,-1
 257 620 l 1,1,2
 337 556 337 556 418 556 c 0,3,4
 460 556 460 556 490.5 587 c 128,-1,5
 521 618 521 618 521 661 c 0,6,7
 521 776 521 776 345 776 c 0,8,9
 323 776 323 776 301 773 c 1,10,-1
 331 859 l 1,11,12
 350 860 350 860 365 860 c 0,13,14
 412 860 412 860 466 849 c 1,15,16
 547 886 547 886 547 961 c 0,17,18
 547 1046 547 1046 454 1046 c 0,19,20
 365 1046 365 1046 342 941 c 1,21,-1
 289 941 l 1,22,-1
 311 1057 l 1,23,24
 398 1093 398 1093 484 1093 c 0,25,26
 662 1093 662 1093 662 984 c 0,27,28
 662 893 662 893 520 829 c 1,29,30
 625 790 625 790 625 693 c 0,31,32
 625 616 625 616 554.5 563 c 128,-1,33
 484 510 484 510 378 510 c 0,34,35
 289 510 289 510 185 545 c 1,0,-1
EndSplineSet
EndChar

StartChar: onehalf
Encoding: 189 189 147
Width: 1262
Flags: W
LayerCount: 2
Fore
SplineSet
528 1093 m 1,0,-1
 442 657 l 2,1,2
 432 606 432 606 432 589 c 0,3,4
 432 570 432 570 488 563 c 1,5,-1
 547 560 l 1,6,-1
 538 516 l 1,7,-1
 165 516 l 1,8,-1
 174 560 l 1,9,-1
 235 563 l 2,10,11
 283 567 283 567 293 578 c 128,-1,12
 303 589 303 589 318 657 c 2,13,-1
 373 938 l 2,14,15
 378 960 378 960 378 978 c 0,16,17
 378 1004 378 1004 310 1013 c 2,18,-1
 265 1021 l 1,19,-1
 274 1066 l 1,20,-1
 528 1093 l 1,0,-1
160 -27 m 1,21,-1
 1180 1093 l 1,22,-1
 1280 1093 l 1,23,-1
 257 -27 l 1,24,-1
 160 -27 l 1,21,-1
778 0 m 1,25,-1
 797 103 l 1,26,27
 952 197 952 197 1045 288 c 128,-1,28
 1138 379 1138 379 1138 436 c 0,29,30
 1138 530 1138 530 1053 530 c 0,31,32
 942 530 942 530 922 413 c 1,33,-1
 868 413 l 1,34,-1
 895 544 l 1,35,36
 989 578 989 578 1075 578 c 0,37,38
 1264 578 1264 578 1264 445 c 0,39,40
 1264 373 1264 373 1214.5 328 c 128,-1,41
 1165 283 1165 283 887 103 c 1,42,-1
 1197 103 l 1,43,-1
 1177 0 l 1,44,-1
 778 0 l 1,25,-1
EndSplineSet
EndChar

StartChar: onequarter
Encoding: 188 188 148
Width: 1262
Flags: W
LayerCount: 2
Fore
SplineSet
546 1093 m 1,0,-1
 460 657 l 2,1,2
 450 606 450 606 450 589 c 0,3,4
 450 570 450 570 506 563 c 1,5,-1
 565 560 l 1,6,-1
 556 516 l 1,7,-1
 183 516 l 1,8,-1
 192 560 l 1,9,-1
 253 563 l 2,10,11
 301 567 301 567 311 578 c 128,-1,12
 321 589 321 589 336 657 c 2,13,-1
 391 938 l 2,14,15
 396 960 396 960 396 978 c 0,16,17
 396 1004 396 1004 328 1013 c 2,18,-1
 283 1021 l 1,19,-1
 292 1066 l 1,20,-1
 546 1093 l 1,0,-1
178 -27 m 1,21,-1
 1198 1093 l 1,22,-1
 1298 1093 l 1,23,-1
 275 -27 l 1,24,-1
 178 -27 l 1,21,-1
981 164 m 1,25,-1
 732 182 l 1,26,-1
 747 261 l 1,27,-1
 1102 578 l 1,28,-1
 1170 578 l 1,29,-1
 1102 236 l 1,30,-1
 1212 229 l 1,31,-1
 1168 149 l 1,32,-1
 1086 157 l 1,33,34
 1076 102 1076 102 1076 74 c 0,35,36
 1076 52 1076 52 1129 49 c 2,37,-1
 1189 45 l 1,38,-1
 1180 0 l 1,39,-1
 820 0 l 1,40,-1
 829 45 l 1,41,-1
 886 49 l 2,42,43
 937 52 937 52 952 64 c 128,-1,44
 967 76 967 76 973 117 c 0,45,46
 976 134 976 134 981 164 c 1,25,-1
997 244 m 1,47,-1
 1038 446 l 1,48,-1
 823 255 l 1,49,-1
 997 244 l 1,47,-1
EndSplineSet
EndChar

StartChar: threequarters
Encoding: 190 190 149
Width: 1262
Flags: W
LayerCount: 2
Fore
SplineSet
174 545 m 1,0,-1
 247 620 l 1,1,2
 326 556 326 556 407 556 c 0,3,4
 448 556 448 556 478.5 587 c 128,-1,5
 509 618 509 618 509 661 c 0,6,7
 509 776 509 776 333 776 c 0,8,9
 311 776 311 776 289 773 c 1,10,-1
 319 859 l 1,11,12
 338 860 338 860 355 860 c 0,13,14
 401 860 401 860 455 849 c 1,15,16
 535 886 535 886 535 961 c 0,17,18
 535 1046 535 1046 442 1046 c 0,19,20
 354 1046 354 1046 330 941 c 1,21,-1
 277 941 l 1,22,-1
 301 1057 l 1,23,24
 387 1093 387 1093 472 1093 c 0,25,26
 651 1093 651 1093 651 984 c 0,27,28
 651 893 651 893 508 829 c 1,29,30
 614 790 614 790 614 693 c 0,31,32
 614 616 614 616 543 563 c 128,-1,33
 472 510 472 510 366 510 c 0,34,35
 277 510 277 510 174 545 c 1,0,-1
178 -27 m 1,36,-1
 1198 1093 l 1,37,-1
 1298 1093 l 1,38,-1
 275 -27 l 1,39,-1
 178 -27 l 1,36,-1
981 164 m 1,40,-1
 732 182 l 1,41,-1
 747 261 l 1,42,-1
 1102 578 l 1,43,-1
 1170 578 l 1,44,-1
 1102 236 l 1,45,-1
 1212 229 l 1,46,-1
 1168 149 l 1,47,-1
 1086 157 l 1,48,49
 1076 102 1076 102 1076 74 c 0,50,51
 1076 52 1076 52 1129 49 c 2,52,-1
 1189 45 l 1,53,-1
 1180 0 l 1,54,-1
 820 0 l 1,55,-1
 829 45 l 1,56,-1
 886 49 l 2,57,58
 938 52 938 52 952.5 64 c 128,-1,59
 967 76 967 76 973 117 c 0,60,61
 976 134 976 134 981 164 c 1,40,-1
997 244 m 1,62,-1
 1038 446 l 1,63,-1
 823 255 l 1,64,-1
 997 244 l 1,62,-1
EndSplineSet
EndChar

StartChar: macron
Encoding: 175 175 150
Width: 1118
Flags: W
LayerCount: 2
Fore
SplineSet
1134 1659 m 1,0,-1
 -16 1659 l 1,1,-1
 -16 1789 l 1,2,-1
 1134 1789 l 1,3,-1
 1134 1659 l 1,0,-1
EndSplineSet
EndChar

StartChar: periodcentered
Encoding: 183 183 151
Width: 724
Flags: W
LayerCount: 2
Fore
SplineSet
482 832 m 1,0,-1
 243 832 l 1,1,-1
 243 1117 l 1,2,-1
 482 1117 l 1,3,-1
 482 832 l 1,0,-1
EndSplineSet
EndChar

StartChar: H22073
Encoding: 9633 9633 152
Width: 1237
Flags: W
LayerCount: 2
Fore
SplineSet
146 944 m 1,0,-1
 1090 944 l 1,1,-1
 1090 0 l 1,2,-1
 146 0 l 1,3,-1
 146 944 l 1,0,-1
222 868 m 1,4,-1
 222 76 l 1,5,-1
 1014 76 l 1,6,-1
 1014 868 l 1,7,-1
 222 868 l 1,4,-1
EndSplineSet
EndChar

StartChar: H18543
Encoding: 9642 9642 153
Width: 1089
Flags: W
LayerCount: 2
Fore
SplineSet
886 994 m 1,0,-1
 886 300 l 1,1,-1
 192 300 l 1,2,-1
 192 994 l 1,3,-1
 886 994 l 1,0,-1
EndSplineSet
EndChar

StartChar: H18551
Encoding: 9643 9643 154
Width: 1089
Flags: W
LayerCount: 2
Fore
SplineSet
888 996 m 1,0,-1
 888 301 l 1,1,-1
 193 301 l 1,2,-1
 193 996 l 1,3,-1
 888 996 l 1,0,-1
774 882 m 1,4,-1
 307 882 l 1,5,-1
 307 415 l 1,6,-1
 774 415 l 1,7,-1
 774 882 l 1,4,-1
EndSplineSet
EndChar

StartChar: H18533
Encoding: 9679 9679 155
Width: 1339
Flags: W
LayerCount: 2
Fore
SplineSet
204 719 m 0,0,1
 204 920 204 920 345 1061 c 128,-1,2
 486 1202 486 1202 685 1202 c 0,3,4
 885 1202 885 1202 1026 1061 c 128,-1,5
 1167 920 1167 920 1167 719 c 0,6,7
 1167 521 1167 521 1026 380 c 128,-1,8
 885 239 885 239 685 239 c 0,9,10
 486 239 486 239 345 380 c 128,-1,11
 204 521 204 521 204 719 c 0,0,1
EndSplineSet
EndChar

StartChar: openbullet
Encoding: 9702 9702 156
Width: 1089
Flags: W
LayerCount: 2
Fore
SplineSet
544 1171 m 0,0,1
 700 1171 700 1171 810.5 1060.5 c 128,-1,2
 921 950 921 950 921 794 c 256,3,4
 921 638 921 638 810.5 528 c 128,-1,5
 700 418 700 418 544 418 c 256,6,7
 388 418 388 418 278 528 c 128,-1,8
 168 638 168 638 168 794 c 256,9,10
 168 950 168 950 277.5 1060.5 c 128,-1,11
 387 1171 387 1171 544 1171 c 0,0,1
544 1057 m 0,12,13
 435 1057 435 1057 358.5 979.5 c 128,-1,14
 282 902 282 902 282 794 c 0,15,16
 282 685 282 685 359 608.5 c 128,-1,17
 436 532 436 532 544 532 c 256,18,19
 652 532 652 532 729.5 608.5 c 128,-1,20
 807 685 807 685 807 794 c 0,21,22
 807 902 807 902 730.5 979.5 c 128,-1,23
 654 1057 654 1057 544 1057 c 0,12,13
EndSplineSet
EndChar

StartChar: currency
Encoding: 164 164 157
Width: 932
Flags: W
LayerCount: 2
Fore
SplineSet
769 322 m 1,0,-1
 879 184 l 1,1,-1
 841 153 l 1,2,-1
 732 292 l 1,3,4
 616 214 616 214 504 214 c 0,5,6
 394 214 394 214 310 292 c 1,7,-1
 145 153 l 1,8,-1
 120 184 l 1,9,-1
 286 322 l 1,10,11
 243 397 243 397 243 470 c 0,12,13
 243 613 243 613 369 743 c 1,14,-1
 259 882 l 1,15,-1
 297 913 l 1,16,-1
 407 775 l 1,17,18
 521 852 521 852 634 852 c 0,19,20
 744 852 744 852 828 775 c 1,21,-1
 994 913 l 1,22,-1
 1019 882 l 1,23,-1
 852 743 l 1,24,25
 895 668 895 668 895 596 c 0,26,27
 895 455 895 455 769 322 c 1,0,-1
818 579 m 0,28,29
 818 666 818 666 762 721.5 c 128,-1,30
 706 777 706 777 620 777 c 0,31,32
 502 777 502 777 411 688 c 128,-1,33
 320 599 320 599 320 485 c 0,34,35
 320 400 320 400 376.5 344.5 c 128,-1,36
 433 289 433 289 519 289 c 0,37,38
 635 289 635 289 726.5 377.5 c 128,-1,39
 818 466 818 466 818 579 c 0,28,29
EndSplineSet
EndChar

StartChar: uniFFFC
Encoding: 65532 65532 158
Width: 2048
Flags: W
LayerCount: 2
Fore
SplineSet
2048 1150 m 1,0,-1
 1948 1150 l 1,1,-1
 1948 1373 l 1,2,-1
 1725 1373 l 1,3,-1
 1725 1473 l 1,4,-1
 2048 1473 l 1,5,-1
 2048 1150 l 1,0,-1
1473 1373 m 1,6,-1
 1150 1373 l 1,7,-1
 1150 1473 l 1,8,-1
 1473 1473 l 1,9,-1
 1473 1373 l 1,6,-1
2048 575 m 1,10,-1
 1948 575 l 1,11,-1
 1948 898 l 1,12,-1
 2048 898 l 1,13,-1
 2048 575 l 1,10,-1
1782 611 m 2,14,15
 1782 370 1782 370 1571 370 c 0,16,17
 1485 370 1485 370 1433 415 c 1,18,-1
 1506 494 l 1,19,20
 1531 468 1531 468 1571 468 c 0,21,22
 1666 468 1666 468 1666 606 c 2,23,-1
 1666 1090 l 1,24,-1
 1782 1090 l 1,25,-1
 1782 611 l 2,14,15
898 1373 m 1,26,-1
 575 1373 l 1,27,-1
 575 1473 l 1,28,-1
 898 1473 l 1,29,-1
 898 1373 l 1,26,-1
2048 0 m 1,30,-1
 1725 0 l 1,31,-1
 1725 100 l 1,32,-1
 1948 100 l 1,33,-1
 1948 323 l 1,34,-1
 2048 323 l 1,35,-1
 2048 0 l 1,30,-1
1423 591 m 0,36,37
 1423 382 1423 382 1149 382 c 2,38,-1
 909 382 l 1,39,-1
 909 1090 l 1,40,-1
 1144 1090 l 2,41,42
 1393 1090 1393 1090 1393 904 c 0,43,44
 1393 813 1393 813 1304 759 c 1,45,46
 1423 713 1423 713 1423 591 c 0,36,37
323 1373 m 1,47,-1
 100 1373 l 1,48,-1
 100 1150 l 1,49,-1
 0 1150 l 1,50,-1
 0 1473 l 1,51,-1
 323 1473 l 1,52,-1
 323 1373 l 1,47,-1
1473 0 m 1,53,-1
 1150 0 l 1,54,-1
 1150 100 l 1,55,-1
 1473 100 l 1,56,-1
 1473 0 l 1,53,-1
854 735 m 0,57,58
 854 562 854 562 772 466 c 128,-1,59
 690 370 690 370 537 370 c 256,60,61
 384 370 384 370 303.5 466 c 128,-1,62
 223 562 223 562 223 735 c 0,63,64
 223 910 223 910 303.5 1006 c 128,-1,65
 384 1102 384 1102 537 1102 c 256,66,67
 690 1102 690 1102 772 1006 c 128,-1,68
 854 910 854 910 854 735 c 0,57,58
100 575 m 1,69,-1
 0 575 l 1,70,-1
 0 898 l 1,71,-1
 100 898 l 1,72,-1
 100 575 l 1,69,-1
898 0 m 1,73,-1
 575 0 l 1,74,-1
 575 100 l 1,75,-1
 898 100 l 1,76,-1
 898 0 l 1,73,-1
323 0 m 1,77,-1
 0 0 l 1,78,-1
 0 323 l 1,79,-1
 100 323 l 1,80,-1
 100 100 l 1,81,-1
 323 100 l 1,82,-1
 323 0 l 1,77,-1
1277 893 m 0,83,84
 1277 992 1277 992 1114 992 c 2,85,-1
 1025 992 l 1,86,-1
 1025 798 l 1,87,-1
 1126 798 l 2,88,89
 1277 798 1277 798 1277 893 c 0,83,84
1307 591 m 0,90,91
 1307 700 1307 700 1136 700 c 2,92,-1
 1025 700 l 1,93,-1
 1025 480 l 1,94,-1
 1149 480 l 2,95,96
 1307 480 1307 480 1307 591 c 0,90,91
738 735 m 0,97,98
 738 1004 738 1004 537 1004 c 0,99,100
 339 1004 339 1004 339 735 c 0,101,102
 339 468 339 468 537 468 c 0,103,104
 738 468 738 468 738 735 c 0,97,98
EndSplineSet
EndChar

StartChar: dotbelowcomb
Encoding: 65538 -1 160
Width: 0
Flags: W
LayerCount: 2
Fore
SplineSet
666 -382 m 1,0,-1
 452 -382 l 1,1,-1
 452 -187 l 1,2,-1
 666 -187 l 1,3,-1
 666 -382 l 1,0,-1
EndSplineSet
EndChar

StartChar: zerowidthnonjoiner
Encoding: 8204 8204 175
Width: 0
GlyphClass: 2
Flags: W
LayerCount: 2
Fore
SplineSet
36 1289 m 1,0,-1
 36 -275 l 1,1,-1
 -36 -275 l 1,2,-1
 -36 1289 l 1,3,-1
 36 1289 l 1,0,-1
EndSplineSet
EndChar

StartChar: zerowidthjoiner
Encoding: 8205 8205 176
Width: 0
GlyphClass: 2
Flags: W
LayerCount: 2
Fore
SplineSet
36 -275 m 1,0,-1
 -36 -275 l 1,1,-1
 -36 1114 l 1,2,-1
 -170 978 l 1,3,-1
 -219 1027 l 1,4,-1
 -48 1196 l 1,5,-1
 -219 1364 l 1,6,-1
 -170 1413 l 1,7,-1
 0 1242 l 1,8,-1
 170 1413 l 1,9,-1
 219 1364 l 1,10,-1
 48 1196 l 1,11,-1
 219 1027 l 1,12,-1
 170 978 l 1,13,-1
 36 1114 l 1,14,-1
 36 -275 l 1,0,-1
EndSplineSet
EndChar

StartChar: lefttorightmark
Encoding: 8206 8206 177
Width: 0
GlyphClass: 2
Flags: W
LayerCount: 2
Fore
SplineSet
430 1198 m 1,0,-1
 213 984 l 1,1,-1
 164 1033 l 1,2,-1
 301 1163 l 1,3,-1
 35 1163 l 1,4,-1
 35 -275 l 1,5,-1
 -36 -275 l 1,6,-1
 -36 1234 l 1,7,-1
 301 1234 l 1,8,-1
 164 1364 l 1,9,-1
 213 1413 l 1,10,-1
 430 1198 l 1,0,-1
EndSplineSet
EndChar

StartChar: righttoleftmark
Encoding: 8207 8207 178
Width: 0
GlyphClass: 2
Flags: W
LayerCount: 2
Fore
SplineSet
35 -275 m 1,0,-1
 -36 -275 l 1,1,-1
 -36 1163 l 1,2,-1
 -302 1163 l 1,3,-1
 -165 1033 l 1,4,-1
 -214 984 l 1,5,-1
 -431 1198 l 1,6,-1
 -214 1413 l 1,7,-1
 -165 1364 l 1,8,-1
 -302 1234 l 1,9,-1
 35 1234 l 1,10,-1
 35 -275 l 1,0,-1
EndSplineSet
EndChar

StartChar: afii57388.001
Encoding: 1644 1644 179
Width: 353
GlyphClass: 2
Flags: W
LayerCount: 2
Fore
SplineSet
210 654 m 0,0,1
 200 627 200 627 185 603 c 0,2,3
 180 597 180 597 173.5 593.5 c 128,-1,4
 167 590 167 590 162 590 c 128,-1,5
 157 590 157 590 154.5 593 c 128,-1,6
 152 596 152 596 155 603 c 0,7,8
 187 660 187 660 202.5 713.5 c 128,-1,9
 218 767 218 767 218 800 c 1,10,11
 194 806 194 806 179 816 c 128,-1,12
 164 826 164 826 155 837.5 c 128,-1,13
 146 849 146 849 143 859 c 128,-1,14
 140 869 140 869 140 874 c 0,15,16
 140 890 140 890 145.5 907 c 128,-1,17
 151 924 151 924 160.5 937.5 c 128,-1,18
 170 951 170 951 183.5 959.5 c 128,-1,19
 197 968 197 968 213 968 c 0,20,21
 272 968 272 968 272 874 c 0,22,23
 272 859 272 859 268 835 c 128,-1,24
 264 811 264 811 256 781.5 c 128,-1,25
 248 752 248 752 236.5 719.5 c 128,-1,26
 225 687 225 687 210 654 c 0,0,1
EndSplineSet
EndChar

StartChar: afii57409
Encoding: 1569 1569 180
Width: 891
GlyphClass: 2
Flags: W
AnchorPoint: "Anchor-1" 495 -255 basechar 0
AnchorPoint: "Anchor-0" 480 780 basechar 0
LayerCount: 2
Fore
SplineSet
806 153 m 1,0,-1
 194 -5 l 1,1,-1
 194 98 l 1,2,-1
 353 162 l 1,3,4
 286 227 286 227 286 327 c 0,5,6
 286 417 286 417 351.5 486.5 c 128,-1,7
 417 556 417 556 507 556 c 0,8,9
 639 556 639 556 708 477 c 1,10,-1
 668 379 l 1,11,12
 576 430 576 430 511 430 c 0,13,14
 470 430 470 430 431 408 c 0,15,16
 385 382 385 382 385 344 c 0,17,18
 385 284 385 284 454 253 c 0,19,20
 506 229 506 229 574 229 c 0,21,22
 604 229 604 229 806 285 c 1,23,-1
 806 153 l 1,0,-1
EndSplineSet
EndChar

StartChar: afii57440
Encoding: 1600 1600 181
Width: 701
GlyphClass: 2
Flags: W
LayerCount: 2
Fore
SplineSet
732 0 m 1,0,-1
 -32 0 l 1,1,-1
 -32 150 l 1,2,-1
 732 150 l 1,3,-1
 732 0 l 1,0,-1
EndSplineSet
EndChar

StartChar: afii57453
Encoding: 1613 1613 182
Width: 0
GlyphClass: 4
Flags: W
AnchorPoint: "Anchor-3" 0 0 mark 0
AnchorPoint: "Anchor-1" 0 0 mark 0
LayerCount: 2
Fore
SplineSet
226 -50 m 1,0,-1
 -234 -173 l 1,1,-1
 -252 -98 l 1,2,-1
 208 29 l 1,3,-1
 226 -50 l 1,0,-1
226 118 m 1,4,-1
 -234 -5 l 1,5,-1
 -252 70 l 1,6,-1
 208 197 l 1,7,-1
 226 118 l 1,4,-1
EndSplineSet
EndChar

StartChar: afii57455.001
Encoding: 65539 -1 183
Width: 596
GlyphClass: 4
Flags: W
LayerCount: 2
Fore
SplineSet
521 1690 m 0,0,1
 521 1581 521 1581 418 1497 c 1,2,-1
 484 1451 l 1,3,-1
 435 1398 l 1,4,5
 403 1417 403 1417 365 1460 c 1,6,7
 228 1364 228 1364 56 1328 c 1,8,-1
 25 1394 l 1,9,10
 214 1455 214 1455 292 1520 c 1,11,12
 250 1580 250 1580 250 1613 c 0,13,14
 250 1672 250 1672 299 1733.5 c 128,-1,15
 348 1795 348 1795 405 1795 c 0,16,17
 451 1795 451 1795 486 1765 c 128,-1,18
 521 1735 521 1735 521 1690 c 0,0,1
446 1659 m 0,19,20
 446 1715 446 1715 381 1715 c 0,21,22
 355 1715 355 1715 330 1685 c 128,-1,23
 305 1655 305 1655 305 1628 c 0,24,25
 305 1581 305 1581 366 1552 c 1,26,27
 446 1608 446 1608 446 1659 c 0,19,20
EndSplineSet
EndChar

StartChar: afii57458.001
Encoding: 65540 -1 184
Width: 465
GlyphClass: 4
Flags: W
LayerCount: 2
Fore
SplineSet
365 629 m 0,0,1
 365 561 365 561 323 512 c 0,2,3
 278 461 278 461 211 461 c 0,4,5
 153 461 153 461 115 498 c 128,-1,6
 77 535 77 535 77 592 c 0,7,8
 77 689 77 689 124 746 c 0,9,10
 161 793 161 793 206 793 c 0,11,12
 256 793 256 793 307 751 c 0,13,14
 365 701 365 701 365 629 c 0,0,1
301 621 m 0,15,16
 301 662 301 662 268 688 c 0,17,18
 238 712 238 712 195 712 c 0,19,20
 174 712 174 712 154 680.5 c 128,-1,21
 134 649 134 649 134 626 c 0,22,23
 134 553 134 553 213 553 c 0,24,25
 246 553 246 553 272 570 c 0,26,27
 301 589 301 589 301 621 c 0,15,16
EndSplineSet
EndChar

StartChar: afii57381
Encoding: 1642 1642 185
Width: 939
GlyphClass: 2
Flags: W
LayerCount: 2
Fore
SplineSet
317 1036 m 1,0,-1
 204 921 l 1,1,-1
 87 1037 l 1,2,-1
 204 1150 l 1,3,-1
 317 1036 l 1,0,-1
696 1157 m 1,4,-1
 239 -102 l 1,5,-1
 176 -80 l 1,6,-1
 625 1179 l 1,7,-1
 696 1157 l 1,4,-1
840 85 m 1,8,-1
 727 -32 l 1,9,-1
 610 85 l 1,10,-1
 727 198 l 1,11,-1
 840 85 l 1,8,-1
EndSplineSet
EndChar

StartChar: afii57461
Encoding: 1643 1643 186
Width: 985
GlyphClass: 2
Flags: W
LayerCount: 2
Fore
SplineSet
118 -521 m 1,0,-1
 771 502 l 1,1,-1
 885 502 l 1,2,-1
 232 -521 l 1,3,-1
 118 -521 l 1,0,-1
EndSplineSet
EndChar

StartChar: afii63167
Encoding: 1645 1645 187
Width: 1118
GlyphClass: 2
Flags: W
LayerCount: 2
Fore
SplineSet
694 729 m 1,0,-1
 1057 733 l 1,1,-1
 1057 610 l 1,2,-1
 702 612 l 1,3,-1
 971 352 l 1,4,-1
 883 264 l 1,5,-1
 616 539 l 1,6,-1
 623 168 l 1,7,-1
 498 168 l 1,8,-1
 502 539 l 1,9,-1
 236 264 l 1,10,-1
 147 352 l 1,11,-1
 422 614 l 1,12,-1
 63 610 l 1,13,-1
 63 733 l 1,14,-1
 420 729 l 1,15,-1
 170 975 l 1,16,-1
 258 1065 l 1,17,-1
 502 817 l 1,18,-1
 498 1176 l 1,19,-1
 623 1176 l 1,20,-1
 616 813 l 1,21,-1
 860 1065 l 1,22,-1
 948 975 l 1,23,-1
 694 729 l 1,0,-1
EndSplineSet
EndChar

StartChar: afii57459
Encoding: 65541 -1 188
Width: 538
GlyphClass: 2
Flags: W
LayerCount: 2
Fore
SplineSet
500 350 m 0,0,1
 500 1 500 1 141 0 c 2,2,-1
 -70 0 l 1,3,-1
 -70 150 l 1,4,-1
 124 150 l 2,5,6
 225 150 225 150 308 187 c 0,7,8
 384 221 384 221 384 250 c 2,9,-1
 384 315 l 1,10,11
 319 276 319 276 236 276 c 0,12,13
 148 276 148 276 107 334 c 0,14,15
 78 375 78 375 78 432 c 0,16,17
 78 516 78 516 130 625 c 0,18,19
 195 762 195 762 286 762 c 0,20,21
 385 762 385 762 449 598 c 0,22,23
 500 467 500 467 500 350 c 0,0,1
359 443 m 1,24,25
 329 612 329 612 262 612 c 0,26,27
 233 612 233 612 203 563 c 0,28,29
 176 518 176 518 176 486 c 0,30,31
 176 409 176 409 256 409 c 0,32,33
 320 409 320 409 359 443 c 1,24,25
EndSplineSet
EndChar

StartChar: afii57543
Encoding: 65542 -1 189
Width: 548
Flags: W
LayerCount: 2
Fore
SplineSet
548 1 m 1,0,-1
 494 1 l 2,1,2
 319 1 319 1 264 123 c 1,3,4
 237 68 237 68 177.5 34.5 c 128,-1,5
 118 1 118 1 54 1 c 2,6,-1
 -70 1 l 1,7,-1
 -70 150 l 1,8,-1
 45 150 l 2,9,10
 119 150 119 150 170 184 c 0,11,12
 228 223 228 223 228 294 c 2,13,-1
 228 357 l 1,14,-1
 330 384 l 1,15,16
 331 239 331 239 382 189 c 0,17,18
 421 150 421 150 518 150 c 2,19,-1
 548 150 l 1,20,-1
 548 1 l 1,0,-1
EndSplineSet
EndChar

StartChar: afii57534
Encoding: 1749 1749 190
Width: 639
GlyphClass: 2
Flags: W
LayerCount: 2
Fore
SplineSet
586 231 m 0,0,1
 586 123 586 123 525 53 c 0,2,3
 461 -21 461 -21 355 -21 c 0,4,5
 269 -21 269 -21 217 36.5 c 128,-1,6
 165 94 165 94 165 181 c 0,7,8
 165 259 165 259 191 322 c 0,9,10
 202 350 202 350 270 471 c 1,11,-1
 247 490 l 1,12,-1
 318 625 l 1,13,14
 586 415 586 415 586 231 c 0,0,1
479 230 m 0,15,16
 479 282 479 282 425 346 c 0,17,18
 384 395 384 395 336 427 c 1,19,20
 260 283 260 283 260 242 c 0,21,22
 260 126 260 126 365 126 c 0,23,24
 411 126 411 126 445 155.5 c 128,-1,25
 479 185 479 185 479 230 c 0,15,16
EndSplineSet
EndChar

StartChar: afii64240
Encoding: 65543 -1 191
Width: 382
Flags: W
LayerCount: 2
Fore
SplineSet
306 131 m 1,0,-1
 209 3 l 1,1,-1
 78 90 l 1,2,-1
 174 221 l 1,3,-1
 306 131 l 1,0,-1
EndSplineSet
EndChar

StartChar: afii64241
Encoding: 65544 -1 192
Width: 544
Flags: W
LayerCount: 2
Fore
SplineSet
456 125 m 1,0,-1
 369 14 l 1,1,-1
 256 98 l 1,2,-1
 175 -2 l 1,3,-1
 54 84 l 1,4,-1
 146 197 l 1,5,-1
 255 115 l 1,6,-1
 334 211 l 1,7,-1
 456 125 l 1,0,-1
EndSplineSet
EndChar

StartChar: afii63954
Encoding: 65545 -1 193
Width: 506
Flags: W
LayerCount: 2
Fore
SplineSet
345 309 m 1,0,-1
 260 197 l 1,1,-1
 136 285 l 1,2,-1
 224 394 l 1,3,-1
 345 309 l 1,0,-1
477 134 m 1,4,-1
 391 21 l 1,5,-1
 266 111 l 1,6,-1
 183 5 l 1,7,-1
 61 92 l 1,8,-1
 150 205 l 1,9,-1
 270 117 l 1,10,-1
 352 221 l 1,11,-1
 477 134 l 1,4,-1
EndSplineSet
EndChar

StartChar: afii57382
Encoding: 65546 -1 194
Width: 484
Flags: W
LayerCount: 2
Fore
SplineSet
198 -312 m 1,0,-1
 273 -210 l 1,1,-1
 387 -294 l 1,2,-1
 309 -393 l 1,3,-1
 198 -312 l 1,0,-1
63 -125 m 1,4,-1
 143 -20 l 1,5,-1
 259 -104 l 1,6,-1
 337 -6 l 1,7,-1
 452 -87 l 1,8,-1
 368 -192 l 1,9,-1
 257 -110 l 1,10,-1
 179 -206 l 1,11,-1
 63 -125 l 1,4,-1
EndSplineSet
EndChar

StartChar: afii64242
Encoding: 65547 -1 195
Width: 417
Flags: W
LayerCount: 2
Fore
SplineSet
370 258 m 0,0,1
 370 1 370 1 71 0 c 2,2,-1
 -52 0 l 1,3,-1
 -52 150 l 1,4,-1
 79 150 l 2,5,6
 252 150 252 150 252 243 c 0,7,8
 252 293 252 293 201 359 c 2,9,-1
 167 403 l 1,10,-1
 270 516 l 1,11,12
 370 404 370 404 370 258 c 0,0,1
EndSplineSet
EndChar

StartChar: afii62881
Encoding: 59416 59416 196
Width: 0
GlyphClass: 4
Flags: W
AnchorPoint: "Anchor-2" 0 0 mark 0
AnchorPoint: "Anchor-0" 0 0 mark 0
LayerCount: 2
Fore
SplineSet
228 422 m 1,0,-1
 -232 299 l 1,1,-1
 -250 374 l 1,2,-1
 210 501 l 1,3,-1
 228 422 l 1,0,-1
228 590 m 1,4,-1
 -232 467 l 1,5,-1
 -250 542 l 1,6,-1
 210 669 l 1,7,-1
 228 590 l 1,4,-1
199 302 m 1,8,9
 218 239 218 239 218 183 c 0,10,11
 218 25 218 25 93 25 c 0,12,13
 37 25 37 25 -1 112 c 1,14,15
 -68 -14 -68 -14 -149 -14 c 256,16,17
 -230 -14 -230 -14 -230 83 c 0,18,19
 -230 147 -230 147 -191 217 c 1,20,-1
 -147 217 l 1,21,22
 -162 164 -162 164 -162 136 c 0,23,24
 -162 89 -162 89 -113 89 c 0,25,26
 -40 89 -40 89 -18 244 c 1,27,-1
 37 265 l 1,28,29
 41 197 41 197 45 176 c 0,30,31
 59 125 59 125 104 125 c 0,32,33
 157 125 157 125 157 195 c 0,34,35
 157 231 157 231 142 283 c 1,36,-1
 199 302 l 1,8,9
EndSplineSet
Ligature2: "'ccmp' Glyph Composition/Decomposition in Arabic lookup 4 subtable" afii57457 afii57451
EndChar

StartChar: afii57373
Encoding: 65548 -1 200
Width: 484
Flags: W
LayerCount: 2
Fore
SplineSet
423 424 m 1,0,-1
 39 326 l 1,1,-1
 39 393 l 1,2,-1
 138 434 l 1,3,4
 88 483 88 483 88 531 c 0,5,6
 88 587 88 587 134.5 633.5 c 128,-1,7
 181 680 181 680 237 680 c 0,8,9
 304 680 304 680 353 642 c 1,10,-1
 329 585 l 1,11,12
 285 600 285 600 234 600 c 0,13,14
 209 600 209 600 182 586 c 0,15,16
 150 569 150 569 150 546 c 0,17,18
 150 477 150 477 269 477 c 0,19,20
 285 477 285 477 423 519 c 1,21,-1
 423 424 l 1,0,-1
EndSplineSet
EndChar

StartChar: afii57374
Encoding: 65549 -1 201
Width: 574
GlyphClass: 2
Flags: W
LayerCount: 2
Fore
SplineSet
574 1 m 1,0,-1
 555 1 l 2,1,2
 380 1 380 1 271 91 c 1,3,4
 130 0 130 0 11 0 c 2,5,-1
 -70 0 l 1,6,-1
 -70 150 l 1,7,-1
 27 150 l 2,8,9
 105 150 105 150 160 187 c 1,10,11
 99 249 99 249 99 363 c 0,12,13
 99 457 99 457 188 547 c 0,14,15
 272 632 272 632 347 632 c 256,16,17
 422 632 422 632 474 550 c 0,18,19
 519 478 519 478 519 399 c 0,20,21
 519 257 519 257 399 176 c 1,22,23
 459 150 459 150 559 150 c 2,24,-1
 574 150 l 1,25,-1
 574 1 l 1,0,-1
410 359 m 0,26,27
 410 396 410 396 385 437 c 0,28,29
 358 483 358 483 323 483 c 0,30,31
 287 483 287 483 245 444.5 c 128,-1,32
 203 406 203 406 203 370 c 0,33,34
 203 337 203 337 232 294 c 0,35,36
 263 248 263 248 294 248 c 0,37,38
 322 248 322 248 366 289.5 c 128,-1,39
 410 331 410 331 410 359 c 0,26,27
EndSplineSet
EndChar

StartChar: afii57375
Encoding: 1619 1619 202
Width: 772
GlyphClass: 2
Flags: W
LayerCount: 2
Fore
SplineSet
692 1258 m 1,0,1
 657 1202 657 1202 598 1165 c 0,2,3
 535 1125 535 1125 472 1125 c 0,4,5
 434 1125 434 1125 359.5 1138 c 128,-1,6
 285 1151 285 1151 248 1151 c 0,7,8
 184 1151 184 1151 122 1104 c 1,9,-1
 61 1176 l 1,10,11
 139 1260 139 1260 228 1260 c 0,12,13
 264 1260 264 1260 336 1248.5 c 128,-1,14
 408 1237 408 1237 445 1237 c 0,15,16
 557 1237 557 1237 653 1325 c 1,17,-1
 692 1258 l 1,0,1
EndSplineSet
EndChar

StartChar: afii57471
Encoding: 65550 -1 203
Width: 1673
Flags: W
LayerCount: 2
Fore
SplineSet
1673 0 m 1,0,-1
 1642 0 l 2,1,2
 1466 1 1466 1 1436 151 c 1,3,4
 1273 -41 1273 -41 662 -41 c 0,5,6
 385 -41 385 -41 264 20 c 0,7,8
 128 89 128 89 128 256 c 0,9,10
 128 361 128 361 190 445 c 1,11,-1
 284 416 l 1,12,13
 246 347 246 347 246 286 c 0,14,15
 246 166 246 166 398 128 c 0,16,17
 471 110 471 110 644 110 c 2,18,-1
 693 110 l 2,19,20
 905 110 905 110 1091 140 c 0,21,22
 1397 189 1397 189 1417 302 c 2,23,-1
 1427 358 l 1,24,-1
 1509 385 l 1,25,26
 1509 272 1509 272 1533 223 c 0,27,28
 1567 150 1567 150 1666 150 c 2,29,-1
 1673 150 l 1,30,-1
 1673 0 l 1,0,-1
EndSplineSet
EndChar

StartChar: afii52258
Encoding: 65551 -1 204
Width: 1742
GlyphClass: 2
Flags: W
LayerCount: 2
Fore
SplineSet
1742 0 m 1,0,-1
 1670 0 l 2,1,2
 1484 1 1484 1 1378 97 c 1,3,4
 1252 29 1252 29 1042 -9 c 0,5,6
 863 -41 863 -41 688 -41 c 0,7,8
 411 -41 411 -41 290 20 c 0,9,10
 154 89 154 89 154 256 c 0,11,12
 154 361 154 361 216 445 c 1,13,-1
 310 416 l 1,14,15
 272 347 272 347 272 286 c 0,16,17
 272 171 272 171 397 132 c 0,18,19
 468 110 468 110 617 110 c 2,20,-1
 719 110 l 2,21,22
 1109 110 1109 110 1264 187 c 1,23,24
 1204 240 1204 240 1204 363 c 0,25,26
 1204 456 1204 456 1293 547 c 0,27,28
 1377 632 1377 632 1451 632 c 0,29,30
 1528 632 1528 632 1580 546 c 0,31,32
 1624 471 1624 471 1624 389 c 0,33,34
 1624 333 1624 333 1586 264 c 128,-1,35
 1548 195 1548 195 1500 170 c 1,36,37
 1541 150 1541 150 1674 150 c 2,38,-1
 1742 150 l 1,39,-1
 1742 0 l 1,0,-1
1514 370 m 0,40,41
 1514 409 1514 409 1491 444 c 0,42,43
 1465 483 1465 483 1428 483 c 0,44,45
 1389 483 1389 483 1348 445.5 c 128,-1,46
 1307 408 1307 408 1307 370 c 0,47,48
 1307 337 1307 337 1337 295 c 0,49,50
 1368 250 1368 250 1399 250 c 0,51,52
 1434 250 1434 250 1474 292 c 128,-1,53
 1514 334 1514 334 1514 370 c 0,40,41
EndSplineSet
EndChar

StartChar: afii62889
Encoding: 65552 -1 210
Width: 1199
Flags: W
LayerCount: 2
Fore
SplineSet
1199 0 m 1,0,-1
 1155 0 l 1,1,2
 1130 -221 1130 -221 987 -362 c 0,3,4
 838 -509 838 -509 618 -509 c 0,5,6
 367 -509 367 -509 245 -358 c 0,7,8
 151 -241 151 -241 151 -68 c 0,9,10
 151 85 151 85 234 213 c 1,11,-1
 333 172 l 1,12,13
 273 56 273 56 273 -81 c 0,14,15
 273 -220 273 -220 392 -296 c 0,16,17
 494 -361 494 -361 641 -361 c 0,18,19
 808 -361 808 -361 917 -256 c 0,20,21
 1022 -155 1022 -155 1043 0 c 1,22,-1
 958 0 l 1,23,24
 726 6 726 6 726 186 c 0,25,26
 726 285 726 285 774 375 c 0,27,28
 830 480 830 480 916 480 c 0,29,30
 1014 480 1014 480 1082 355 c 0,31,32
 1136 257 1136 257 1148 150 c 1,33,-1
 1199 150 l 1,34,-1
 1199 0 l 1,0,-1
1024 150 m 1,35,36
 1020 200 1020 200 993 260 c 0,37,38
 959 337 959 337 913 337 c 0,39,40
 880 337 880 337 853 300 c 0,41,42
 829 267 829 267 829 232 c 0,43,44
 829 144 829 144 953 150 c 1,45,-1
 1024 150 l 1,35,36
EndSplineSet
EndChar

StartChar: afii62887
Encoding: 65553 -1 211
Width: 1610
Flags: W
LayerCount: 2
Fore
SplineSet
1567 280 m 0,0,1
 1567 103 1567 103 1247 20 c 0,2,3
 1012 -41 1012 -41 678 -41 c 0,4,5
 401 -41 401 -41 280 20 c 0,6,7
 144 89 144 89 144 256 c 0,8,9
 144 361 144 361 206 445 c 1,10,-1
 300 416 l 1,11,12
 262 347 262 347 262 286 c 0,13,14
 262 167 262 167 414 129 c 0,15,16
 489 110 489 110 660 110 c 2,17,-1
 709 110 l 2,18,19
 887 110 887 110 1120 142 c 0,20,21
 1461 189 1461 189 1461 272 c 0,22,23
 1461 344 1461 344 1372 445 c 1,24,-1
 1464 562 l 1,25,26
 1567 429 1567 429 1567 280 c 0,0,1
EndSplineSet
EndChar

StartChar: afii62888
Encoding: 1697 1697 212
Width: 1593
GlyphClass: 2
Flags: W
LayerCount: 2
Fore
SplineSet
1540 377 m 0,0,1
 1540 218 1540 218 1433 129 c 0,2,3
 1350 60 1350 60 1177 19 c 0,4,5
 924 -41 924 -41 657 -41 c 0,6,7
 380 -41 380 -41 259 20 c 0,8,9
 123 89 123 89 123 256 c 0,10,11
 123 361 123 361 185 445 c 1,12,-1
 279 416 l 1,13,14
 241 347 241 347 241 286 c 0,15,16
 241 171 241 171 366 132 c 0,17,18
 437 110 437 110 586 110 c 2,19,-1
 688 110 l 2,20,21
 1016 110 1016 110 1226 174 c 0,22,23
 1377 220 1377 220 1410 271 c 0,24,25
 1425 294 1425 294 1425 342 c 1,26,27
 1359 304 1359 304 1276 304 c 0,28,29
 1205 304 1205 304 1161.5 346 c 128,-1,30
 1118 388 1118 388 1118 459 c 0,31,32
 1118 542 1118 542 1171 653 c 0,33,34
 1236 790 1236 790 1326 790 c 0,35,36
 1425 790 1425 790 1489 625 c 0,37,38
 1540 495 1540 495 1540 377 c 0,0,1
1399 471 m 1,39,40
 1369 640 1369 640 1302 640 c 0,41,42
 1272 640 1272 640 1243 591 c 0,43,44
 1217 547 1217 547 1217 514 c 0,45,46
 1217 436 1217 436 1296 436 c 0,47,48
 1360 436 1360 436 1399 471 c 1,39,40
EndSplineSet
Substitution2: "'fina' Terminal Forms in Arabic lookup 3 subtable" afii52258
Substitution2: "'medi' Medial Forms in Arabic lookup 2 subtable" afii57374
Substitution2: "'init' Initial Forms in Arabic lookup 0 subtable" afii57459
EndChar

StartChar: afii57567
Encoding: 1705 1705 219
Width: 1721
GlyphClass: 2
Flags: W
AnchorPoint: "Anchor-1" 690 -525 basechar 0
AnchorPoint: "Anchor-0" 570 1005 basechar 0
LayerCount: 2
Fore
SplineSet
1741 1227 m 1,0,-1
 1721 1072 l 1,1,2
 1299 898 1299 898 1075 740 c 1,3,4
 1365 505 1365 505 1365 311 c 0,5,6
 1365 211 1365 211 1296 142 c 0,7,8
 1113 -41 1113 -41 669 -41 c 0,9,10
 433 -41 433 -41 322 -1 c 0,11,12
 136 65 136 65 136 256 c 0,13,14
 136 361 136 361 198 445 c 1,15,-1
 291 416 l 1,16,17
 253 347 253 347 253 286 c 0,18,19
 253 202 253 202 314 162 c 0,20,21
 394 110 394 110 599 110 c 2,22,-1
 627 110 l 2,23,24
 1247 110 1247 110 1247 297 c 0,25,26
 1247 378 1247 378 1155 476 c 0,27,28
 1139 493 1139 493 946 669 c 1,29,30
 952 801 952 801 980 822 c 0,31,32
 1281 1046 1281 1046 1741 1227 c 1,0,-1
EndSplineSet
Substitution2: "'fina' Terminal Forms in Arabic lookup 3 subtable" afii62964
Substitution2: "'medi' Medial Forms in Arabic lookup 2 subtable" afii52306
Substitution2: "'init' Initial Forms in Arabic lookup 0 subtable" afii52305
EndChar

StartChar: afii62964
Encoding: 64399 64399 220
Width: 1807
GlyphClass: 2
Flags: W
AnchorPoint: "Anchor-1" 585 -525 basechar 0
AnchorPoint: "Anchor-0" 585 1065 basechar 0
LayerCount: 2
Fore
SplineSet
1807 0 m 1,0,-1
 1776 0 l 2,1,2
 1518 1 1518 1 1313 342 c 1,3,4
 1317 319 1317 319 1317 297 c 0,5,6
 1317 104 1317 104 1039 16 c 0,7,8
 859 -41 859 -41 645 -41 c 0,9,10
 368 -41 368 -41 247 20 c 0,11,12
 111 89 111 89 111 256 c 0,13,14
 111 361 111 361 173 445 c 1,15,-1
 267 416 l 1,16,17
 229 347 229 347 229 286 c 0,18,19
 229 110 229 110 574 110 c 2,20,-1
 603 110 l 2,21,22
 783 110 783 110 957 145 c 0,23,24
 1228 199 1228 199 1228 313 c 0,25,26
 1228 403 1228 403 1153 475 c 0,27,28
 1135 492 1135 492 955 654 c 1,29,30
 958 798 958 798 975 810 c 0,31,32
 1103 900 1103 900 1369 1042 c 0,33,34
 1627 1179 1627 1179 1777 1240 c 1,35,-1
 1757 1086 l 1,36,37
 1596 1019 1596 1019 1376 907 c 0,38,39
 1138 786 1138 786 1068 731 c 1,40,-1
 1221 604 l 2,41,42
 1300 534 1300 534 1354 471 c 0,43,44
 1628 150 1628 150 1769 150 c 2,45,-1
 1807 150 l 1,46,-1
 1807 0 l 1,0,-1
EndSplineSet
EndChar

StartChar: afii52305
Encoding: 64400 64400 221
Width: 756
GlyphClass: 2
Flags: W
AnchorPoint: "Anchor-1" 210 -525 basechar 0
AnchorPoint: "Anchor-0" 195 1200 basechar 0
LayerCount: 2
Fore
SplineSet
774 1230 m 1,0,-1
 754 1075 l 1,1,2
 339 904 339 904 108 744 c 1,3,4
 398 508 398 508 398 314 c 0,5,6
 398 222 398 222 336 137 c 0,7,8
 236 1 236 1 -3 0 c 2,9,-1
 -70 0 l 1,10,-1
 -70 150 l 1,11,-1
 64 150 l 2,12,13
 280 150 280 150 280 297 c 0,14,15
 280 379 280 379 189 478 c 0,16,17
 170 498 170 498 -21 672 c 1,18,19
 -14 807 -14 807 14 826 c 0,20,21
 310 1031 310 1031 774 1230 c 1,0,-1
EndSplineSet
EndChar

StartChar: afii52306
Encoding: 64401 64401 222
Width: 851
GlyphClass: 2
Flags: W
AnchorPoint: "Anchor-1" 450 -495 basechar 0
AnchorPoint: "Anchor-0" 225 1185 basechar 0
LayerCount: 2
Fore
SplineSet
851 0 m 1,0,-1
 820 0 l 2,1,2
 573 1 573 1 365 336 c 1,3,4
 370 306 370 306 370 278 c 0,5,6
 370 133 370 133 261 61 c 0,7,8
 169 1 169 1 16 0 c 2,9,-1
 -70 0 l 1,10,-1
 -70 150 l 1,11,-1
 7 150 l 2,12,13
 281 150 281 150 281 313 c 0,14,15
 281 392 281 392 207 466 c 0,16,17
 142 527 142 527 11 651 c 1,18,19
 14 796 14 796 30 807 c 0,20,21
 155 895 155 895 425 1039 c 0,22,23
 683 1176 683 1176 833 1237 c 1,24,-1
 813 1083 l 1,25,26
 654 1017 654 1017 432 904 c 0,27,28
 192 782 192 782 124 728 c 1,29,30
 175 686 175 686 276 601 c 0,31,32
 348 540 348 540 407 471 c 0,33,34
 541 315 541 315 610 254 c 0,35,36
 728 150 728 150 818 150 c 2,37,-1
 851 150 l 1,38,-1
 851 0 l 1,0,-1
EndSplineSet
EndChar

StartChar: afii57509
Encoding: 1711 1711 223
Width: 1703
GlyphClass: 2
Flags: W
AnchorPoint: "Anchor-1" 675 -570 basechar 0
AnchorPoint: "Anchor-0" 525 975 basechar 0
LayerCount: 2
Fore
SplineSet
1710 1387 m 1,0,-1
 1701 1284 l 1,1,2
 1573 1231 1573 1231 1351 1114 c 2,3,-1
 995 924 l 1,4,-1
 1005 1012 l 1,5,6
 1429 1252 1429 1252 1710 1387 c 1,0,-1
1717 1179 m 1,7,-1
 1697 1022 l 1,8,9
 1524 956 1524 956 1331 862 c 0,10,11
 1153 775 1153 775 1088 728 c 1,12,13
 1204 633 1204 633 1253 575 c 0,14,15
 1362 445 1362 445 1362 314 c 0,16,17
 1362 204 1362 204 1294 142 c 0,18,19
 1092 -41 1092 -41 667 -41 c 0,20,21
 390 -41 390 -41 269 20 c 0,22,23
 133 89 133 89 133 256 c 0,24,25
 133 361 133 361 195 445 c 1,26,-1
 289 416 l 1,27,28
 251 347 251 347 251 286 c 0,29,30
 251 171 251 171 376 132 c 0,31,32
 447 110 447 110 596 110 c 2,33,-1
 625 110 l 2,34,35
 1244 110 1244 110 1250 292 c 0,36,37
 1252 359 1252 359 1182 444 c 0,38,39
 1119 520 1119 520 962 651 c 1,40,41
 968 774 968 774 997 794 c 0,42,43
 1304 1011 1304 1011 1717 1179 c 1,7,-1
EndSplineSet
Substitution2: "'fina' Terminal Forms in Arabic lookup 3 subtable" afii62967
Substitution2: "'medi' Medial Forms in Arabic lookup 2 subtable" afii62966
Substitution2: "'init' Initial Forms in Arabic lookup 0 subtable" afii62965
EndChar

StartChar: afii62967
Encoding: 64403 64403 224
Width: 1820
GlyphClass: 2
Flags: W
AnchorPoint: "Anchor-1" 585 -540 basechar 0
AnchorPoint: "Anchor-0" 600 1080 basechar 0
LayerCount: 2
Fore
SplineSet
1776 1387 m 1,0,-1
 1756 1281 l 1,1,2
 1636 1234 1636 1234 1386 1109 c 2,3,-1
 999 914 l 1,4,-1
 1010 999 l 1,5,6
 1545 1289 1545 1289 1776 1387 c 1,0,-1
1820 0 m 1,7,-1
 1789 0 l 2,8,9
 1531 1 1531 1 1326 342 c 1,10,11
 1330 319 1330 319 1330 297 c 0,12,13
 1330 104 1330 104 1052 16 c 0,14,15
 872 -41 872 -41 658 -41 c 0,16,17
 381 -41 381 -41 260 20 c 0,18,19
 124 89 124 89 124 256 c 0,20,21
 124 361 124 361 186 445 c 1,22,-1
 280 416 l 1,23,24
 242 347 242 347 242 286 c 0,25,26
 242 110 242 110 587 110 c 2,27,-1
 616 110 l 2,28,29
 796 110 796 110 970 145 c 0,30,31
 1241 199 1241 199 1241 313 c 0,32,33
 1241 403 1241 403 1156 474 c 0,34,35
 1093 524 1093 524 967 624 c 1,36,37
 970 774 970 774 991 789 c 0,38,39
 1115 877 1115 877 1377 1008 c 0,40,41
 1616 1128 1616 1128 1772 1188 c 1,42,-1
 1752 1033 l 1,43,44
 1613 988 1613 988 1406 891 c 0,45,46
 1176 783 1176 783 1084 710 c 1,47,48
 1158 654 1158 654 1232 598 c 0,49,50
 1318 530 1318 530 1367 471 c 0,51,52
 1637 150 1637 150 1782 150 c 2,53,-1
 1820 150 l 1,54,-1
 1820 0 l 1,7,-1
EndSplineSet
EndChar

StartChar: afii62965
Encoding: 64404 64404 225
Width: 731
GlyphClass: 2
Flags: W
AnchorPoint: "Anchor-1" 300 -480 basechar 0
AnchorPoint: "Anchor-0" 240 1380 basechar 0
LayerCount: 2
Fore
SplineSet
741 1384 m 1,0,-1
 733 1281 l 1,1,2
 604 1229 604 1229 382 1111 c 2,3,-1
 26 921 l 1,4,-1
 37 1009 l 1,5,6
 460 1249 460 1249 741 1384 c 1,0,-1
749 1176 m 1,7,-1
 729 1019 l 1,8,9
 557 954 557 954 363 859 c 0,10,11
 184 771 184 771 120 725 c 1,12,13
 233 633 233 633 284 572 c 0,14,15
 394 441 394 441 394 311 c 0,16,17
 394 1 394 1 16 0 c 2,18,-1
 -70 0 l 1,19,-1
 -70 150 l 1,20,-1
 64 150 l 2,21,22
 281 150 281 150 281 289 c 0,23,24
 281 407 281 407 -6 648 c 1,25,26
 0 771 0 771 28 791 c 0,27,28
 334 1007 334 1007 749 1176 c 1,7,-1
EndSplineSet
EndChar

StartChar: afii62966
Encoding: 64405 64405 226
Width: 851
GlyphClass: 2
Flags: W
AnchorPoint: "Anchor-1" 420 -495 basechar 0
AnchorPoint: "Anchor-0" 270 1335 basechar 0
LayerCount: 2
Fore
SplineSet
816 1384 m 1,0,-1
 796 1278 l 1,1,2
 685 1235 685 1235 426 1105 c 2,3,-1
 39 911 l 1,4,-1
 49 996 l 1,5,6
 585 1286 585 1286 816 1384 c 1,0,-1
851 0 m 1,7,-1
 820 0 l 2,8,9
 573 1 573 1 365 336 c 1,10,11
 370 306 370 306 370 278 c 0,12,13
 370 133 370 133 261 61 c 0,14,15
 169 1 169 1 16 0 c 2,16,-1
 -70 0 l 1,17,-1
 -70 150 l 1,18,-1
 7 150 l 2,19,20
 281 150 281 150 281 313 c 0,21,22
 281 371 281 371 196 455 c 0,23,24
 191 460 191 460 6 621 c 1,25,26
 10 772 10 772 30 786 c 0,27,28
 154 874 154 874 416 1005 c 0,29,30
 652 1123 652 1123 812 1185 c 1,31,-1
 792 1030 l 1,32,33
 653 985 653 985 446 888 c 0,34,35
 216 780 216 780 124 707 c 1,36,37
 142 692 142 692 276 590 c 0,38,39
 358 527 358 527 407 471 c 0,40,41
 541 315 541 315 610 254 c 0,42,43
 728 150 728 150 818 150 c 2,44,-1
 851 150 l 1,45,-1
 851 0 l 1,7,-1
EndSplineSet
EndChar

StartChar: afii57555
Encoding: 1740 1740 227
Width: 1330
GlyphClass: 2
Flags: W
AnchorPoint: "Anchor-1" 600 -765 basechar 0
AnchorPoint: "Anchor-0" 510 810 basechar 0
LayerCount: 2
Fore
SplineSet
1291 660 m 1,0,-1
 1242 528 l 1,1,2
 1194 549 1194 549 1129 549 c 0,3,4
 1033 549 1033 549 930 483 c 0,5,6
 821 413 821 413 799 325 c 0,7,8
 797 317 797 317 797 306 c 0,9,10
 797 260 797 260 859 253.5 c 128,-1,11
 921 247 921 247 1068 232 c 0,12,13
 1249 211 1249 211 1249 63 c 0,14,15
 1249 -88 1249 -88 1025 -220 c 0,16,17
 811 -346 811 -346 597 -346 c 0,18,19
 388 -346 388 -346 268 -252 c 0,20,21
 136 -149 136 -149 136 53 c 0,22,23
 136 227 136 227 227 372 c 1,24,-1
 325 329 l 1,25,26
 256 207 256 207 256 96 c 0,27,28
 256 -196 256 -196 619 -196 c 0,29,30
 741 -196 741 -196 877 -150 c 0,31,32
 1018 -102 1018 -102 1108 -27 c 0,33,34
 1152 10 1152 10 1152 38 c 0,35,36
 1152 75 1152 75 1087 83 c 0,37,38
 817 115 817 115 778 129 c 0,39,40
 694 160 694 160 694 274 c 0,41,42
 694 430 694 430 848 568 c 0,43,44
 998 701 998 701 1156 701 c 0,45,46
 1234 701 1234 701 1291 660 c 1,0,-1
EndSplineSet
Substitution2: "'fina' Terminal Forms in Arabic lookup 3 subtable" afii52364
Substitution2: "'medi' Medial Forms in Arabic lookup 2 subtable" afii62832
Substitution2: "'init' Initial Forms in Arabic lookup 0 subtable" uniFBFE
EndChar

StartChar: afii52364
Encoding: 64509 64509 228
Width: 1129
GlyphClass: 2
Flags: W
AnchorPoint: "Anchor-1" 525 -945 basechar 0
AnchorPoint: "Anchor-0" 525 540 basechar 0
LayerCount: 2
Fore
SplineSet
1129 0 m 1,0,-1
 930 0 l 2,1,2
 782 1 782 1 782 -32 c 0,3,4
 782 -57 782 -57 896 -76 c 0,5,6
 1014 -95 1014 -95 1049 -113 c 0,7,8
 1122 -149 1122 -149 1122 -237 c 0,9,10
 1122 -374 1122 -374 904 -469 c 0,11,12
 726 -548 726 -548 569 -548 c 0,13,14
 360 -548 360 -548 243 -450 c 0,15,16
 117 -344 117 -344 117 -138 c 0,17,18
 117 11 117 11 203 174 c 1,19,-1
 312 137 l 1,20,21
 248 5 248 5 248 -105 c 0,22,23
 248 -253 248 -253 345 -329 c 0,24,25
 433 -397 433 -397 585 -397 c 0,26,27
 846 -397 846 -397 1003 -278 c 0,28,29
 1018 -267 1018 -267 1018 -256 c 0,30,31
 1018 -241 1018 -241 996 -238 c 0,32,33
 799 -208 799 -208 730 -177 c 0,34,35
 707 -166 707 -166 691 -133 c 128,-1,36
 675 -100 675 -100 675 -72 c 0,37,38
 675 150 675 150 1065 150 c 2,39,-1
 1129 150 l 1,40,-1
 1129 0 l 1,0,-1
EndSplineSet
EndChar

StartChar: afii62882
Encoding: 64606 64606 229
Width: 0
GlyphClass: 4
Flags: W
AnchorPoint: "Anchor-2" 0 0 mark 0
AnchorPoint: "Anchor-0" 0 0 mark 0
LayerCount: 2
Fore
SplineSet
262 709 m 0,0,1
 262 603 262 603 162 518 c 1,2,-1
 228 473 l 1,3,-1
 177 416 l 1,4,5
 128 445 128 445 101 473 c 1,6,7
 -37 383 -37 383 -202 345 c 1,8,-1
 -235 412 l 1,9,10
 -224 416 -224 416 -207 424 c 1,11,12
 -141 481 -141 481 -141 532 c 0,13,14
 -141 561 -141 561 -177 561 c 0,15,16
 -201 561 -201 561 -238 536 c 1,17,-1
 -258 581 l 1,18,19
 -222 623 -222 623 -156 623 c 0,20,21
 -75 623 -75 623 -75 558 c 0,22,23
 -75 500 -75 500 -124 452 c 0,24,25
 -125 448 -125 448 -119 446 c 0,26,27
 -8 481 -8 481 40 524 c 1,28,29
 -7 581 -7 581 -7 629 c 0,30,31
 -7 687 -7 687 40 747 c 0,32,33
 90 811 90 811 147 811 c 0,34,35
 192 811 192 811 227 782 c 128,-1,36
 262 753 262 753 262 709 c 0,0,1
190 678 m 0,37,38
 190 734 190 734 125 734 c 0,39,40
 102 734 102 734 78.5 706 c 128,-1,41
 55 678 55 678 55 655 c 0,42,43
 55 600 55 600 106 573 c 1,44,45
 190 614 190 614 190 678 c 0,37,38
216 313 m 1,46,47
 235 250 235 250 235 194 c 0,48,49
 235 36 235 36 110 36 c 0,50,51
 54 36 54 36 16 123 c 1,52,53
 -51 -3 -51 -3 -132 -3 c 256,54,55
 -213 -3 -213 -3 -213 94 c 0,56,57
 -213 158 -213 158 -174 228 c 1,58,-1
 -130 228 l 1,59,60
 -145 175 -145 175 -145 147 c 0,61,62
 -145 100 -145 100 -96 100 c 0,63,64
 -23 100 -23 100 -1 255 c 1,65,-1
 54 276 l 1,66,67
 58 208 58 208 62 187 c 0,68,69
 76 136 76 136 121 136 c 0,70,71
 174 136 174 136 174 206 c 0,72,73
 174 242 174 242 159 294 c 1,74,-1
 216 313 l 1,46,47
EndSplineSet
Ligature2: "'ccmp' Glyph Composition/Decomposition in Arabic lookup 4 subtable" afii57457 afii57452
EndChar

StartChar: afii62883
Encoding: 64607 64607 230
Width: 0
GlyphClass: 4
Flags: W
AnchorPoint: "Anchor-2" 0 0 mark 0
AnchorPoint: "Anchor-0" 0 0 mark 0
LayerCount: 2
Fore
SplineSet
258 129 m 1,0,-1
 -202 6 l 1,1,-1
 -220 81 l 1,2,-1
 240 208 l 1,3,-1
 258 129 l 1,0,-1
258 297 m 1,4,-1
 -202 174 l 1,5,-1
 -220 249 l 1,6,-1
 240 376 l 1,7,-1
 258 297 l 1,4,-1
218 727 m 1,8,9
 237 664 237 664 237 608 c 0,10,11
 237 450 237 450 112 450 c 0,12,13
 56 450 56 450 18 537 c 1,14,15
 -49 411 -49 411 -130 411 c 256,16,17
 -211 411 -211 411 -211 508 c 0,18,19
 -211 572 -211 572 -172 642 c 1,20,-1
 -128 642 l 1,21,22
 -143 589 -143 589 -143 561 c 0,23,24
 -143 514 -143 514 -94 514 c 0,25,26
 -21 514 -21 514 1 669 c 1,27,-1
 56 690 l 1,28,29
 60 622 60 622 64 601 c 0,30,31
 78 550 78 550 123 550 c 0,32,33
 176 550 176 550 176 620 c 0,34,35
 176 656 176 656 161 708 c 1,36,-1
 218 727 l 1,8,9
EndSplineSet
Ligature2: "'ccmp' Glyph Composition/Decomposition in Arabic lookup 4 subtable" afii57457 afii57453
EndChar

StartChar: afii62884
Encoding: 64608 64608 231
Width: 0
GlyphClass: 4
Flags: W
AnchorPoint: "Anchor-2" 0 0 mark 0
AnchorPoint: "Anchor-0" 0 0 mark 0
LayerCount: 2
Fore
SplineSet
252 461 m 1,0,-1
 -208 339 l 1,1,-1
 -226 413 l 1,2,-1
 234 540 l 1,3,-1
 252 461 l 1,0,-1
216 313 m 1,4,5
 235 250 235 250 235 194 c 0,6,7
 235 36 235 36 110 36 c 0,8,9
 54 36 54 36 16 123 c 1,10,11
 -51 -3 -51 -3 -132 -3 c 256,12,13
 -213 -3 -213 -3 -213 94 c 0,14,15
 -213 158 -213 158 -174 228 c 1,16,-1
 -130 228 l 1,17,18
 -145 175 -145 175 -145 147 c 0,19,20
 -145 100 -145 100 -96 100 c 0,21,22
 -23 100 -23 100 -1 255 c 1,23,-1
 54 276 l 1,24,25
 58 208 58 208 62 187 c 0,26,27
 76 136 76 136 121 136 c 0,28,29
 174 136 174 136 174 206 c 0,30,31
 174 242 174 242 159 294 c 1,32,-1
 216 313 l 1,4,5
EndSplineSet
Ligature2: "'ccmp' Glyph Composition/Decomposition in Arabic lookup 4 subtable" afii57457 afii57454
EndChar

StartChar: afii62885
Encoding: 64609 64609 232
Width: 0
GlyphClass: 4
Flags: W
AnchorPoint: "Anchor-2" 0 0 mark 0
AnchorPoint: "Anchor-0" 0 0 mark 0
LayerCount: 2
Fore
SplineSet
215 702 m 0,0,1
 215 593 215 593 112 509 c 1,2,-1
 178 463 l 1,3,-1
 129 410 l 1,4,5
 97 429 97 429 59 472 c 1,6,7
 -78 376 -78 376 -250 340 c 1,8,-1
 -281 406 l 1,9,10
 -109 454 -109 454 5 524 c 1,11,12
 -56 592 -56 592 -56 625 c 0,13,14
 -56 684 -56 684 -7 745.5 c 128,-1,15
 42 807 42 807 99 807 c 0,16,17
 145 807 145 807 180 777 c 128,-1,18
 215 747 215 747 215 702 c 0,0,1
140 671 m 0,19,20
 140 728 140 728 75 728 c 0,21,22
 49 728 49 728 24 697.5 c 128,-1,23
 -1 667 -1 667 -1 640 c 0,24,25
 -1 593 -1 593 60 564 c 1,26,27
 140 620 140 620 140 671 c 0,19,20
216 313 m 1,28,29
 235 250 235 250 235 194 c 0,30,31
 235 36 235 36 110 36 c 0,32,33
 54 36 54 36 16 123 c 1,34,35
 -51 -3 -51 -3 -132 -3 c 256,36,37
 -213 -3 -213 -3 -213 94 c 0,38,39
 -213 158 -213 158 -174 228 c 1,40,-1
 -130 228 l 1,41,42
 -145 175 -145 175 -145 147 c 0,43,44
 -145 100 -145 100 -96 100 c 0,45,46
 -23 100 -23 100 -1 255 c 1,47,-1
 54 276 l 1,48,49
 58 208 58 208 62 187 c 0,50,51
 76 136 76 136 121 136 c 0,52,53
 174 136 174 136 174 206 c 0,54,55
 174 242 174 242 159 294 c 1,56,-1
 216 313 l 1,28,29
EndSplineSet
Ligature2: "'ccmp' Glyph Composition/Decomposition in Arabic lookup 4 subtable" afii57457 afii57455
EndChar

StartChar: afii62886
Encoding: 64610 64610 233
Width: 0
GlyphClass: 4
Flags: W
AnchorPoint: "Anchor-2" 0 0 mark 0
AnchorPoint: "Anchor-0" 0 0 mark 0
LayerCount: 2
Fore
SplineSet
251 126 m 1,0,-1
 -209 3 l 1,1,-1
 -227 78 l 1,2,-1
 233 205 l 1,3,-1
 251 126 l 1,0,-1
216 543 m 1,4,5
 235 480 235 480 235 424 c 0,6,7
 235 266 235 266 110 266 c 0,8,9
 54 266 54 266 16 353 c 1,10,11
 -51 227 -51 227 -132 227 c 256,12,13
 -213 227 -213 227 -213 324 c 0,14,15
 -213 388 -213 388 -174 458 c 1,16,-1
 -130 458 l 1,17,18
 -145 405 -145 405 -145 377 c 0,19,20
 -145 330 -145 330 -96 330 c 0,21,22
 -23 330 -23 330 -1 485 c 1,23,-1
 54 506 l 1,24,25
 58 438 58 438 62 417 c 0,26,27
 76 366 76 366 121 366 c 0,28,29
 174 366 174 366 174 436 c 0,30,31
 174 472 174 472 159 524 c 1,32,-1
 216 543 l 1,4,5
EndSplineSet
Ligature2: "'ccmp' Glyph Composition/Decomposition in Arabic lookup 4 subtable" afii57457 afii57456
EndChar

StartChar: afii62945
Encoding: 65554 -1 234
Width: 1423
GlyphClass: 3
Flags: W
LayerCount: 2
Fore
SplineSet
1363 318 m 0,0,1
 1363 171 1363 171 1289 84 c 0,2,3
 1227 11 1227 11 1151 11 c 0,4,5
 1000 11 1000 11 942 156 c 1,6,7
 870 -15 870 -15 716 -15 c 0,8,9
 497 -15 497 -15 492 267 c 1,10,11
 409 198 409 198 283 198 c 0,12,13
 264 198 264 198 243 200 c 0,14,15
 99 212 99 212 99 325 c 0,16,17
 99 510 99 510 484 653 c 1,18,-1
 485 795 l 1,19,-1
 580 841 l 1,20,-1
 580 472 l 2,21,22
 580 297 580 297 588 260 c 0,23,24
 614 140 614 140 723 140 c 0,25,26
 816 140 816 140 848 234 c 0,27,28
 866 288 866 288 866 406 c 2,29,-1
 866 868 l 1,30,-1
 973 908 l 1,31,-1
 973 560 l 2,32,33
 973 383 973 383 992 310 c 0,34,35
 1031 160 1031 160 1156 160 c 0,36,37
 1251 160 1251 160 1251 343 c 0,38,39
 1251 597 1251 597 1207 939 c 1,40,-1
 1330 997 l 1,41,42
 1363 570 1363 570 1363 318 c 0,0,1
483 374 m 1,43,-1
 477 547 l 1,44,45
 413 537 413 537 327 487 c 0,46,47
 226 428 226 428 226 375 c 0,48,49
 226 340 226 340 333 340 c 0,50,51
 433 340 433 340 483 374 c 1,43,-1
EndSplineSet
EndChar

StartChar: afii64184
Encoding: 65010 65010 235
Width: 1443
GlyphClass: 3
Flags: W
AnchorPoint: "Anchor-3" 1395 -345 baselig 0
AnchorPoint: "Anchor-2" 1305 1140 baselig 0
AnchorPoint: "Anchor-3" 1035 -375 baselig 1
AnchorPoint: "Anchor-2" 945 960 baselig 1
AnchorPoint: "Anchor-3" 585 -420 baselig 2
AnchorPoint: "Anchor-2" 240 840 baselig 2
LayerCount: 2
Fore
SplineSet
1359 318 m 0,0,1
 1359 171 1359 171 1285 84 c 0,2,3
 1223 11 1223 11 1147 11 c 0,4,5
 996 11 996 11 938 156 c 1,6,7
 866 -15 866 -15 712 -15 c 0,8,9
 493 -15 493 -15 488 267 c 1,10,11
 405 198 405 198 279 198 c 0,12,13
 260 198 260 198 239 200 c 0,14,15
 95 212 95 212 95 325 c 0,16,17
 95 510 95 510 480 653 c 1,18,-1
 481 795 l 1,19,-1
 576 841 l 1,20,-1
 576 472 l 2,21,22
 576 297 576 297 584 260 c 0,23,24
 610 140 610 140 719 140 c 0,25,26
 812 140 812 140 844 234 c 0,27,28
 862 288 862 288 862 406 c 2,29,-1
 862 868 l 1,30,-1
 969 908 l 1,31,-1
 969 560 l 2,32,33
 969 383 969 383 988 310 c 0,34,35
 1027 160 1027 160 1152 160 c 0,36,37
 1247 160 1247 160 1247 343 c 0,38,39
 1247 597 1247 597 1203 939 c 1,40,-1
 1326 997 l 1,41,42
 1359 570 1359 570 1359 318 c 0,0,1
479 374 m 1,43,-1
 473 547 l 1,44,45
 409 537 409 537 323 487 c 0,46,47
 222 428 222 428 222 375 c 0,48,49
 222 340 222 340 329 340 c 0,50,51
 429 340 429 340 479 374 c 1,43,-1
952 1241 m 1,52,-1
 913 1222 l 1,53,-1
 876 1409 l 1,54,-1
 952 1445 l 1,55,-1
 952 1241 l 1,52,-1
1093 1208 m 1,56,57
 1108 1157 1108 1157 1108 1112 c 0,58,59
 1108 985 1108 985 1007 985 c 0,60,61
 960 985 960 985 930 1056 c 1,62,63
 875 954 875 954 809 954 c 0,64,65
 742 954 742 954 742 1032 c 0,66,67
 742 1083 742 1083 775 1140 c 1,68,-1
 812 1140 l 1,69,70
 798 1098 798 1098 798 1075 c 0,71,72
 798 1037 798 1037 839 1037 c 0,73,74
 898 1037 898 1037 917 1162 c 1,75,-1
 961 1178 l 1,76,77
 966 1066 966 1066 1015 1066 c 0,78,79
 1059 1066 1059 1066 1059 1122 c 0,80,81
 1059 1151 1059 1151 1046 1192 c 1,82,-1
 1093 1208 l 1,56,57
EndSplineSet
Ligature2: "'rlig' Required Ligatures in Arabic lookup 5 subtable" afii62817 afii62818 uniFC63 afii62828
Ligature2: "'rlig' Required Ligatures in Arabic lookup 5 subtable" afii62817 afii62818 afii57457 uni0670 afii62828
EndChar

StartChar: afii57415.001
Encoding: 1575 1575 249
Width: 350
GlyphClass: 2
Flags: W
AnchorPoint: "Anchor-1" 225 -390 basechar 0
AnchorPoint: "Anchor-0" 225 1365 basechar 0
LayerCount: 2
Fore
SplineSet
263 29 m 1,0,-1
 162 1 l 1,1,-1
 130 1218 l 1,2,-1
 263 1269 l 1,3,-1
 263 29 l 1,0,-1
EndSplineSet
Substitution2: "'fina' Terminal Forms in Arabic lookup 3 subtable" afii62760
EndChar

StartChar: afii62760.001
Encoding: 65555 -1 250
Width: 473
GlyphClass: 2
Flags: W
LayerCount: 2
Fore
SplineSet
473 0 m 1,0,-1
 443 0 l 2,1,2
 287 1 287 1 222 135 c 0,3,4
 178 227 178 227 170 411 c 0,5,6
 167 479 167 479 163 775 c 0,7,8
 160 983 160 983 141 1201 c 1,9,-1
 274 1269 l 1,10,11
 281 795 281 795 291 438 c 0,12,13
 294 309 294 309 319 248 c 0,14,15
 359 150 359 150 464 150 c 2,16,-1
 473 150 l 1,17,-1
 473 0 l 1,0,-1
EndSplineSet
EndChar

StartChar: afii57421
Encoding: 1581 1581 269
Width: 1146
GlyphClass: 2
Flags: W
AnchorPoint: "Anchor-1" 615 -1125 basechar 0
AnchorPoint: "Anchor-0" 585 900 basechar 0
LayerCount: 2
Fore
SplineSet
1173 -702 m 1,0,1
 954 -771 954 -771 760 -771 c 0,2,3
 483 -771 483 -771 321 -669 c 0,4,5
 125 -545 125 -545 125 -284 c 0,6,7
 125 -67 125 -67 300 109 c 0,8,9
 439 248 439 248 661 340 c 1,10,11
 419 411 419 411 382 411 c 0,12,13
 316 411 316 411 259 316 c 1,14,-1
 163 358 l 1,15,16
 249 561 249 561 367 561 c 0,17,18
 454 561 454 561 655 501 c 128,-1,19
 856 441 856 441 972 441 c 0,20,21
 1024 441 1024 441 1078 446 c 1,22,-1
 1040 296 l 1,23,24
 876 294 876 294 749 248 c 0,25,26
 548 175 548 175 418 58 c 0,27,28
 254 -91 254 -91 254 -273 c 0,29,30
 254 -623 254 -623 800 -623 c 0,31,32
 984 -623 984 -623 1134 -576 c 1,33,-1
 1173 -702 l 1,0,1
EndSplineSet
Substitution2: "'fina' Terminal Forms in Arabic lookup 3 subtable" afii62776
Substitution2: "'medi' Medial Forms in Arabic lookup 2 subtable" afii62775
Substitution2: "'init' Initial Forms in Arabic lookup 0 subtable" afii62774
EndChar

StartChar: afii62776
Encoding: 65186 65186 270
Width: 1134
GlyphClass: 2
Flags: W
AnchorPoint: "Anchor-1" 585 -1140 basechar 0
AnchorPoint: "Anchor-0" 585 870 basechar 0
LayerCount: 2
Fore
SplineSet
1173 -702 m 1,0,1
 971 -771 971 -771 760 -771 c 0,2,3
 483 -771 483 -771 321 -669 c 0,4,5
 125 -545 125 -545 125 -284 c 0,6,7
 125 -67 125 -67 305 113 c 0,8,9
 449 257 449 257 662 339 c 1,10,11
 419 411 419 411 382 411 c 0,12,13
 316 411 316 411 259 316 c 1,14,-1
 163 358 l 1,15,16
 249 561 249 561 367 561 c 0,17,18
 438 561 438 561 642 501 c 128,-1,19
 846 441 846 441 971 441 c 0,20,21
 1024 441 1024 441 1078 446 c 1,22,-1
 1040 296 l 1,23,24
 903 294 903 294 839 269 c 1,25,26
 850 193 850 193 910 168 c 0,27,28
 954 150 954 150 1064 150 c 2,29,-1
 1134 150 l 1,30,-1
 1134 0 l 1,31,-1
 1025 0 l 2,32,33
 917 1 917 1 845 72 c 128,-1,34
 773 143 773 143 764 251 c 1,35,36
 536 174 536 174 398 36 c 0,37,38
 256 -107 256 -107 256 -273 c 0,39,40
 256 -623 256 -623 800 -623 c 0,41,42
 1002 -623 1002 -623 1134 -576 c 1,43,-1
 1173 -702 l 1,0,1
EndSplineSet
EndChar

StartChar: afii62774
Encoding: 65187 65187 271
Width: 954
GlyphClass: 2
Flags: W
AnchorPoint: "Anchor-1" 480 -495 basechar 0
AnchorPoint: "Anchor-0" 525 870 basechar 0
LayerCount: 2
Fore
SplineSet
954 419 m 1,0,-1
 920 276 l 1,1,2
 748 275 748 275 620 203 c 0,3,4
 548 158 548 158 402 72 c 1,5,6
 273 1 273 1 81 0 c 2,7,-1
 -70 0 l 1,8,-1
 -70 150 l 1,9,-1
 87 150 l 2,10,11
 222 150 222 150 314 180 c 0,12,13
 373 199 373 199 475 256 c 0,14,15
 582 316 582 316 636 336 c 1,16,17
 580 350 580 350 460 405 c 0,18,19
 352 455 352 455 319 455 c 0,20,21
 268 455 268 455 185 372 c 1,22,-1
 100 421 l 1,23,24
 135 481 135 481 192 535 c 0,25,26
 260 599 260 599 308 599 c 0,27,28
 378 599 378 599 483 550 c 0,29,30
 651 472 651 472 681 461 c 0,31,32
 811 415 811 415 954 419 c 1,0,-1
EndSplineSet
EndChar

StartChar: afii62775
Encoding: 65188 65188 272
Width: 1100
GlyphClass: 2
Flags: W
AnchorPoint: "Anchor-1" 465 -510 basechar 0
AnchorPoint: "Anchor-0" 450 945 basechar 0
LayerCount: 2
Fore
SplineSet
1100 0 m 1,0,-1
 971 0 l 2,1,2
 837 1 837 1 778 91 c 0,3,4
 761 117 761 117 725 238 c 1,5,-1
 421 81 l 2,6,7
 262 1 262 1 91 0 c 2,8,-1
 -70 0 l 1,9,-1
 -70 150 l 1,10,-1
 87 150 l 2,11,12
 259 150 259 150 392 209 c 0,13,14
 483 252 483 252 665 337 c 1,15,16
 581 355 581 355 453 412 c 0,17,18
 338 464 338 464 309 464 c 0,19,20
 250 464 250 464 191 384 c 1,21,-1
 100 432 l 1,22,23
 199 618 199 618 297 618 c 0,24,25
 363 618 363 618 469 570 c 0,26,27
 631 497 631 497 674 482 c 0,28,29
 811 435 811 435 957 435 c 0,30,31
 987 435 987 435 1017 437 c 1,32,-1
 983 297 l 1,33,34
 864 296 864 296 796 264 c 1,35,36
 826 149 826 149 1009 150 c 2,37,-1
 1100 150 l 1,38,-1
 1100 0 l 1,0,-1
EndSplineSet
EndChar

